<?xml version="1.0" encoding="utf-8"?>
<!-- Generator: Adobe Illustrator 23.0.1, SVG Export Plug-In . SVG Version: 6.00 Build 0)  -->
<svg version="1.1" id="Layer_1" xmlns="http://www.w3.org/2000/svg" xmlns:xlink="http://www.w3.org/1999/xlink" x="0px" y="0px"
	 viewBox="0 0 217.2 35.5" style="enable-background:new 0 0 217.2 35.5;" xml:space="preserve">
<title>Artboard 1</title>
<path d="M107.7,0h-2.4L0,0.3c3.2,1.4,4.2,3.1,4.5,4.4C4.6,5.9,4.7,7,4.6,8.1c0,0,0.1,2,0.4,5.1s2.3,11,7,16
	c3.9,4.1,9.1,6.4,14.6,6.4h164c5.5,0,10.8-2.3,14.6-6.4c4.7-5,6.7-13.1,7-16s0.4-5.1,0.4-5.1c-0.1-1.1,0-2.2,0.1-3.4
	c0.3-1.3,1.3-3,4.5-4.4L107.7,0z"/>
</svg>
