<?xml version="1.0" encoding="UTF-8"?>
<svg width="80px" height="80px" viewBox="0 0 80 80" version="1.1" xmlns="http://www.w3.org/2000/svg" xmlns:xlink="http://www.w3.org/1999/xlink">
    <!-- Generator: Sketch 57.1 (83088) - https://sketch.com -->
    <title>logo c flattened</title>
    <desc>Created with Sketch.</desc>
    <g id="logo-c-flattened" stroke="none" stroke-width="1" fill="none" fill-rule="evenodd">
        <g id="Group">
            <path d="M72.3427494,63.5408209 C72.277122,63.630832 72.2111279,63.7205586 72.1447694,63.8099987 L72.1446485,63.8101616 Z M55.7186423,76.7932917 C55.778017,76.7678938 55.8377214,76.7421814 55.8973504,76.7163281 C55.8376981,76.7421911 55.7782074,76.7678116 55.7186423,76.7932917 Z M57.006717,9.09703081 C55.5486466,10.8156593 54.6693387,13.0406139 54.6693387,15.4709419 C54.6693387,20.9163146 59.0836854,25.3306613 64.5290581,25.3306613 C66.4157907,25.3306613 68.1787477,24.8007149 69.6771976,23.8815537 C68.0572532,27.9253765 64.1016546,30.7815631 59.4789579,30.7815631 C53.4137867,30.7815631 48.496994,25.8647704 48.496994,19.7995992 C48.496994,14.584527 52.1320945,10.218478 57.006717,9.09703081 Z M58.9914253,75.2128276 C58.7894242,75.322003 58.5863771,75.429491 58.382303,75.5352727 Z M73.0483585,62.5413825 L72.9951539,62.6190406 L72.9951539,62.6190406 L72.7319579,62.9975573 C72.8384505,62.8462672 72.9439207,62.6942056 73.0483585,62.5413825 Z M73.3585648,62.0806389 L73.3401883,62.1083207 L73.3401883,62.1083207 L73.0483585,62.5413825 C73.1527963,62.3885595 73.2562018,62.2349749 73.3585648,62.0806389 Z M74.1288712,60.872867 C74.0884599,60.938802 74.0478628,61.0046109 74.0070808,61.0702929 L73.9601532,61.1456858 L73.9601532,61.1456858 Z M75.8617326,57.7382875 L75.816417,57.8294346 L75.816417,57.8294346 L75.6099872,58.2374397 C75.6950285,58.0717234 75.778947,57.905336 75.8617326,57.7382875 Z M76.1066811,57.235169 L76.0892043,57.2716683 L76.0892043,57.2716683 L75.8617326,57.7382875 C75.9445183,57.5712391 76.0261711,57.4035296 76.1066811,57.235169 Z M76.6780958,55.9852401 C76.6552985,56.0374754 76.6323928,56.0896525 76.6093791,56.1417712 L76.5759461,56.2172742 L76.5759461,56.2172742 Z M77.0173,55.1842373 L76.8566017,55.5698052 C76.9246343,55.408958 76.9916447,55.2475733 77.0576248,55.0856591 C77.0442668,55.1184399 77.0308047,55.1513496 77.0173,55.1842373 Z M78.154643,52.0449518 L77.9954106,52.5385623 L77.9954106,52.5385623 L77.9607734,52.6430938 C78.0269175,52.4444013 78.0915453,52.2450161 78.154643,52.0449518 Z M78.169075,51.9990952 L78.154643,52.0449518 L78.154643,52.0449518 L78.3352796,51.4563247 C78.2811281,51.637792 78.2257232,51.8187189 78.169075,51.9990952 Z M78.5448462,50.7287884 C78.530866,50.7791228 78.5167898,50.8294172 78.5026178,50.8796715 L78.5026989,50.8793841 Z M78.7885316,49.8087952 L78.6808398,50.2264087 C78.7266608,50.0526303 78.7713418,49.878389 78.8148744,49.7036935 C78.8060958,49.7389207 78.7973367,49.7738671 78.7885316,49.8087952 Z M79.1724756,48.1337044 L79.153139,48.2267541 C79.1690714,48.1505433 79.1847868,48.0742528 79.2002847,47.9978833 L79.1530961,48.2269593 C79.159592,48.1958876 79.1660519,48.1648026 79.1724756,48.1337044 Z M0.728343559,47.637662 L0.867012478,48.322558 L15.6713427,31.6232465 L55.7182378,76.7934647 C50.893151,78.8574235 45.580007,80 40,80 C20.5205299,80 4.29322964,66.0758059 0.728343559,47.637662 Z M0.631813464,47.1200547 L0.61096296,47.0029973 C0.637042723,47.1506884 0.663932836,47.2980999 0.691628544,47.445227 L0.61084693,47.0023401 C0.617778548,47.0415981 0.624767423,47.0808363 0.631813464,47.1200547 Z M79.3788904,47.0602147 C79.3753372,47.0801665 79.3717693,47.1001132 79.3681865,47.1200547 L79.284774,47.5694973 L79.284774,47.5694973 Z M0.355461781,45.3558376 L0.346153077,45.2858028 C0.358021672,45.375705 0.370188839,45.465513 0.382653551,45.5552259 L0.346181855,45.2860207 C0.349255151,45.3092993 0.352348466,45.3325716 0.355461781,45.3558376 Z M0.336817687,45.2145966 L0.274156503,44.7080951 C0.296793404,44.9011607 0.320805207,45.0938059 0.346181855,45.2860207 L0.274165499,44.7081719 C0.293996653,44.8773049 0.31488297,45.0461154 0.336817687,45.2145966 Z M79.7259312,44.7073472 L79.6631823,45.2145966 L79.6631823,45.2145966 L79.6539452,45.2850583 C79.6793077,45.0929146 79.7033064,44.9003409 79.7259312,44.7073472 Z M0.261955961,44.6028362 L0.258548607,44.5729971 C0.263679341,44.6180781 0.268885014,44.6631364 0.274165499,44.7081719 C0.270044263,44.6730227 0.265977396,44.6379363 0.261955961,44.6028362 Z M79.7671605,44.3411014 C79.7577282,44.4285015 79.7480143,44.5158173 79.7380198,44.6030477 Z M0.182469672,43.8455731 L0.154924391,43.5448527 C0.164846673,43.657847 0.175238772,43.7707064 0.186098723,43.8834291 L0.154928919,43.5449043 C0.163739226,43.6452339 0.172919935,43.7454573 0.182469672,43.8455731 Z M0.117136309,43.0841816 L0.107872763,42.9601738 C0.112478354,43.0231345 0.117229679,43.0860548 0.1221264,43.1489343 L0.107827206,42.9595509 C0.11086677,43.0011121 0.113969836,43.0426557 0.117136309,43.0841816 Z M0.0850828749,42.630011 L0.0691584338,42.3718785 C0.0801286367,42.559474 0.0923916725,42.7467222 0.105938761,42.9336144 L0.0691753562,42.3721679 C0.0742063087,42.4581889 0.0795090972,42.5441369 0.0850828749,42.630011 Z M79.8451131,43.5444252 L79.8224518,43.7936211 C79.8358178,43.6515458 79.8484407,43.5092543 79.8603165,43.3667506 L79.8224547,43.7935903 C79.8302613,43.7106087 79.8378144,43.6275534 79.8451131,43.5444252 Z M79.9803624,41.2654653 C79.9782668,41.3328977 79.9760043,41.4002881 79.9735752,41.467636 L79.9735798,41.4675078 Z M0.006430865,40.7245751 C0.00214963857,40.4835642 0,40.2420331 0,40 L0.00436434943,40.5969854 L0.00436434943,40.5969854 Z M72.5257234,63.2878018 C72.5948873,63.191373 72.663633,63.0946239 72.7319579,62.9975573 L72.6425038,63.1241213 L72.6425038,63.1241213 Z M57.762125,75.8499094 C58.1886335,75.638186 58.6108264,75.4190753 59.0285363,75.1927449 L57.8294346,75.816417 L57.8294346,75.816417 Z M57.6180959,75.9210454 L57.762125,75.8499094 C57.714279,75.8736607 57.6663787,75.8973189 57.6184244,75.920884 L57.6180959,75.9210454 Z M57.1231562,76.1600313 L57.6180959,75.9210454 C57.4536896,76.0018339 57.2886477,76.081527 57.1229798,76.160115 L57.1231562,76.1600313 Z M56.9679462,76.23325 L57.1231562,76.1600313 C57.0715501,76.1845121 57.0198832,76.2088857 56.9681558,76.2331517 L56.9679462,76.23325 Z M56.493582,76.4519914 L56.9679462,76.23325 C56.8104884,76.3071146 56.6524703,76.3799831 56.4939001,76.4518473 L56.493582,76.4519914 Z M56.3040536,76.5372879 L56.493582,76.4519914 C56.4303098,76.4806658 56.3669497,76.5091802 56.3035022,76.5375343 L56.3040536,76.5372879 Z M55.897114,76.7164306 L56.3040536,76.5372879 C56.1688808,76.5976977 56.0333114,76.6573794 55.8973504,76.7163281 L55.897114,76.7164306 Z M59.0285363,75.1927449 L38.7341884,52.3017234 L50.260521,39.3186373 L72.0808147,63.895959 L72.0808147,63.895959 L71.9146859,64.1170358 C68.5726939,68.5326694 64.3354156,72.2331269 59.4730164,74.948243 L59.0285363,75.1927449 Z M75.4321153,58.5799601 C75.4919397,58.4661092 75.5512314,58.3519346 75.6099872,58.2374397 L75.5352727,58.382303 L75.5352727,58.382303 Z M76.8566017,55.5698052 L76.800142,55.7026184 C76.7598613,55.7968974 76.7192289,55.8909902 76.6782464,55.9848952 C76.7383563,55.8471661 76.7978601,55.708686 76.8566017,55.5698052 Z M77.9607734,52.6430938 L77.8143466,53.0746657 C77.8026774,53.1084209 77.7909642,53.1421556 77.7792072,53.1758697 C77.8410768,52.998445 77.9015333,52.8210473 77.9607734,52.6430938 Z M78.6808398,50.2264087 L78.6450682,50.3611144 C78.6122468,50.4838417 78.5788563,50.6063364 78.5448998,50.7285955 C78.5912364,50.5617656 78.6365701,50.3943032 78.6808398,50.2264087 Z M79.0873715,48.5352344 L79.1329875,48.322558 C79.1179967,48.3933941 79.1028184,48.464161 79.0874532,48.5348582 L79.0873715,48.5352344 Z M79.2002781,47.9979159 L79.281282,47.5877056 C79.2549803,47.7246812 79.2279799,47.8614084 79.2002847,47.9978833 L79.2002781,47.9979159 Z M0.728343559,47.637662 L0.867012478,48.322558 C0.814104935,48.0725539 0.76353255,47.8216879 0.715319219,47.5699838 C0.719607357,47.5923714 0.723965911,47.6150201 0.728343559,47.637662 Z M79.4764675,46.4882078 L79.3891303,47.0024689 C79.3857081,47.0218506 79.3822719,47.0412275 79.3788218,47.0605996 C79.4127638,46.8700076 79.445293,46.6793352 79.4764675,46.4882078 Z M0.552693425,46.6645035 L0.606545439,46.9779339 C0.588214822,46.873738 0.570287501,46.7694033 0.552765144,46.6649312 L0.552693425,46.6645035 Z M0.496296012,46.3189361 L0.552693425,46.6645035 C0.533392272,46.5494182 0.514582542,46.4341662 0.496266467,46.3187499 L0.496296012,46.3189361 Z M0.43833709,45.9421104 L0.496296012,46.3189361 C0.476381978,46.1934542 0.457051458,46.0677781 0.438307319,45.9419105 L0.43833709,45.9421104 Z M0.382645403,45.5551672 L0.43833709,45.9421104 C0.419161225,45.8133482 0.400599022,45.6843857 0.382653551,45.5552259 L0.382645403,45.5551672 Z M79.8003732,44.0213535 L79.8175357,43.8455172 C79.8119336,43.9042479 79.8062045,43.9629416 79.8003488,44.0215979 L79.8003732,44.0213535 Z M0.186123457,43.8836858 L0.210401084,44.1278478 C0.202055956,44.046447 0.19395492,43.9649738 0.186098723,43.8834291 L0.186123457,43.8836858 Z M0.122082476,43.1483702 L0.154924391,43.5448527 C0.143351565,43.4130622 0.132417862,43.2810884 0.1221264,43.1489343 L0.122082476,43.1483702 Z M79.9564292,41.8836975 L79.9705404,41.5494868 C79.9662954,41.6609345 79.9615945,41.7722653 79.9564394,41.8834775 L79.9564292,41.8836975 Z M79.9803624,41.2654653 L79.9926149,40.7764341 C79.9895074,40.9396576 79.9854223,41.1026417 79.9803651,41.265381 L79.9803624,41.2654653 Z M0.0611156145,42.230067 L0.0691584338,42.3718785 C0.0663933806,42.3245949 0.0637104609,42.2772891 0.0611098152,42.2299615 L0.0611156145,42.230067 Z M0.0345112387,41.6768486 L0.0611156145,42.230067 C0.0509992994,42.0459748 0.0421277964,41.8615509 0.03450938,41.6768036 L0.0345112387,41.6768486 Z M0.0259215061,41.453615 L0.0345112387,41.6768486 C0.0314466711,41.6025346 0.0285848563,41.5281682 0.0259263326,41.4537501 L0.0259215061,41.453615 Z M0.0114335662,40.9659022 L0.0259215061,41.453615 C0.0201212167,41.2912365 0.0152887994,41.1286114 0.0114298487,40.9657453 L0.0114335662,40.9659022 Z M0.006430865,40.7245751 L0.0114335662,40.9659022 C0.00952970567,40.8855634 0.00786271583,40.8051659 0.00643326823,40.7247104 L0.006430865,40.7245751 Z M72.4094232,63.4491028 L72.3427494,63.5408209 C72.4040444,63.456752 72.4650196,63.3724351 72.5256731,63.2878718 L72.3428665,63.5406603 C72.3650942,63.5101737 72.3872798,63.4796546 72.4094232,63.4491028 Z M59.0285363,75.1927449 L58.9914253,75.2128276 L58.9914253,75.2128276 L59.0285363,75.1927449 Z M74.2514149,60.6715969 L74.1288712,60.872867 C74.1852022,60.7809576 74.2411723,60.6888032 74.2967796,60.5964056 L74.1286876,60.8731666 C74.1697891,60.8061069 74.2106984,60.7389168 74.2514149,60.6715969 Z M74.3858731,60.4476379 C74.3562797,60.4972967 74.3265817,60.5468861 74.2967796,60.5964056 L74.2965324,60.5968163 Z M74.5362412,60.1931802 L74.3858731,60.4476379 C74.4624265,60.3191783 74.5382805,60.1902536 74.6134299,60.0608689 L74.3856949,60.4479368 C74.4361817,60.3632198 74.4863643,60.2783004 74.5362412,60.1931802 Z M74.6993845,59.9121456 C74.6708364,59.9617871 74.6421847,60.0113617 74.6134299,60.0608689 L74.6135336,60.0606903 Z M74.8145718,59.7104958 L74.6993845,59.9121456 C74.7631776,59.8012176 74.8264541,59.6899549 74.8892107,59.5783607 L74.6995378,59.9118791 C74.7380712,59.8448732 74.7764161,59.7777453 74.8145718,59.7104958 Z M75.0048729,59.3712516 C74.9665176,59.4404138 74.9279633,59.5094505 74.8892107,59.5783607 L74.889447,59.5779405 Z M75.0863466,59.2236041 L75.0048729,59.3712516 C75.0667124,59.2597429 75.1280344,59.1479075 75.1888359,59.0357489 L75.0050063,59.3710112 C75.03222,59.3219387 75.0593335,59.2728029 75.0863466,59.2236041 Z M75.2896843,58.8485279 C75.2562292,58.9110343 75.2226129,58.9734415 75.1888359,59.0357489 L75.1886586,59.0360759 Z M75.3515051,58.7325653 L75.2896843,58.8485279 C75.3375123,58.7591677 75.3850108,58.6696046 75.4321782,58.5798404 L75.2894608,58.8489455 C75.3102043,58.8101902 75.3308857,58.7713968 75.3515051,58.7325653 Z M77.1521075,54.8516765 C77.1208522,54.9297926 77.0893577,55.0077871 77.0576248,55.0856591 L77.0576862,55.0855084 Z M77.2273597,54.6621912 L77.1521075,54.8516765 C77.2021589,54.7265836 77.2515968,54.601179 77.3004176,54.4754663 L77.1521272,54.8516274 C77.1773608,54.7885611 77.2024385,54.7254155 77.2273597,54.6621912 Z M77.3475503,54.3535057 C77.3319039,54.3941913 77.316193,54.4348449 77.3004176,54.4754663 L77.300317,54.4757252 Z M77.4302609,54.1365404 L77.3475503,54.3535057 C77.4039856,54.2067558 77.4595809,54.0595891 77.5143302,53.9120116 L77.3474258,54.3538293 C77.3752418,54.2815007 77.4028538,54.2090708 77.4302609,54.1365404 Z M77.5766025,53.742981 C77.5559683,53.7993841 77.5352108,53.8557277 77.5143302,53.9120116 L77.5143764,53.9118871 Z M77.6259433,53.6073452 L77.5766025,53.742981 C77.6198351,53.6248054 77.6625261,53.506369 77.7046726,53.3876746 L77.5766948,53.7427285 C77.5931899,53.6976387 77.6096061,53.6525108 77.6259433,53.6073452 Z M77.7794138,53.1752773 C77.7546938,53.2461675 77.7297798,53.3169668 77.7046726,53.3876746 L77.7045939,53.3878963 Z M78.8704512,49.4778476 C78.8521389,49.5532133 78.833613,49.6284955 78.8148744,49.7036935 L78.8148089,49.7039561 Z M78.9242942,49.2534137 L78.8704512,49.4778476 C78.9031818,49.343143 78.9352304,49.2081716 78.9665931,49.0729373 L78.8704306,49.4779324 C78.8885954,49.4031747 78.9065502,49.3283349 78.9242942,49.2534137 Z M79.0081177,48.8919652 C78.9944126,48.9523412 78.980571,49.0126654 78.9665931,49.0729373 L78.9665927,49.072939 Z M79.0522956,48.69503 L79.0081177,48.8919652 C79.0350928,48.7731297 79.0615389,48.6540931 79.0874532,48.5348582 L79.0080754,48.8921516 C79.0229771,48.8265056 79.0377173,48.7607982 79.0522956,48.69503 Z M79.7896739,44.1271161 L79.7671605,44.3411014 C79.7786409,44.2347247 79.7897042,44.128223 79.8003488,44.0215979 L79.7672265,44.3404899 C79.7748953,44.2694209 79.7823779,44.1982962 79.7896739,44.1271161 Z M79.8751382,43.1838631 C79.8703344,43.2448642 79.8653937,43.3058268 79.8603165,43.3667506 L79.860325,43.3666489 Z M79.8921886,42.9593349 L79.8751382,43.1838631 C79.8873182,43.0291969 79.8986184,42.8742832 79.9090339,42.7191272 L79.8751551,43.1836491 C79.8810384,43.1089352 79.8867164,43.0341636 79.8921886,42.9593349 Z M79.9215876,42.525128 C79.9175568,42.5898362 79.9133721,42.6545027 79.9090339,42.7191272 L79.9090526,42.7188481 Z M79.93084,42.3719053 L79.9215876,42.525128 C79.9284346,42.4152123 79.9348376,42.3051763 79.9407949,42.1950218 L79.9215969,42.5249787 C79.9247736,42.47398 79.9278547,42.4229555 79.93084,42.3719053 Z M79.9564292,41.8836975 C79.9516136,41.9875763 79.9464016,42.0913515 79.9407949,42.1950218 L79.9408,42.1949292 Z" id="foreground" fill="#FFFFFF"></path>
            <path d="M40,0 C62.09139,0 80,17.90861 80,40 C80,48.9581928 77.0551946,57.2285894 72.0808147,63.895959 L50.260521,39.3186373 L38.7341884,52.3017234 L59.0285363,75.1927449 C57.9539571,75.774991 56.8497094,76.3094564 55.7186423,76.7932917 L15.6713427,31.6232465 L0.867012478,48.322558 C0.298867943,45.6379039 0,42.8538541 0,40 C0,17.90861 17.90861,0 40,0 Z M57.006717,9.09703081 C52.1320945,10.218478 48.496994,14.584527 48.496994,19.7995992 C48.496994,25.8647704 53.4137867,30.7815631 59.4789579,30.7815631 C64.1016546,30.7815631 68.0572532,27.9253765 69.6771976,23.8815537 C68.1787477,24.8007149 66.4157907,25.3306613 64.5290581,25.3306613 C59.0836854,25.3306613 54.6693387,20.9163146 54.6693387,15.4709419 C54.6693387,13.0406139 55.5486466,10.8156593 57.006717,9.09703081 Z" id="background" fill="#000000"></path>
        </g>
    </g>
</svg>