<svg id="Layer_1" data-name="Layer 1" xmlns="http://www.w3.org/2000/svg" viewBox="0 0 392.79 300.09"><title>Artboard 1</title><g id="Hk6E0d.tif"><path d="M160.81,97.4h-1.58c-11.92,0-23.84-.13-35.76,0a54,54,0,0,1-21.6-4.21,58.56,58.56,0,0,1-20-12.91c-4.17-4.24-7.29-9.11-8.09-15.17-.5-3.81.08-7.32,3-10.17a9.46,9.46,0,0,1,7-2.63h77.09V50.91q0-15.84,0-31.68a18.66,18.66,0,0,1,12-17.83,26.67,26.67,0,0,1,8.7-1.3C191.46,0,201.38,0,211.3.08c3.06,0,6.2.09,9.06,1.4C227.83,4.91,231.82,10.82,232,19c.18,10.6.06,21.2.07,31.8v1.56h1.62c25,0,50.08.08,75.12,0,7.38,0,11,5.92,10.49,11.49a25,25,0,0,1-7.72,15.94,60.32,60.32,0,0,1-36.92,17.6,13.55,13.55,0,0,1-1.56.05H232v1.74q0,97.32.05,194.64a6,6,0,0,1-6.31,6.3c-19.52-.08-39,0-58.56,0-4.29,0-6.41-2.11-6.41-6.4V97.4Zm11.13,76.09V288.94h49V173.49ZM221,162.3V87.83H171.94V162.3Zm.06-85.7V75.32q0-27.66,0-55.31c0-5.74-3.34-9.07-9.08-9.08H191c-3.52,0-7,0-10.55,0-5.14.06-8.57,3.53-8.57,8.63v57Zm87.13-13.1H232.11V86.42H272a23.32,23.32,0,0,0,2.51-.14,49,49,0,0,0,17.65-5.83c4.94-2.62,9.51-5.75,13-10.21A13,13,0,0,0,308.18,63.5Zm-147.4,0h-76c0,.34.06.61.12.88a16.51,16.51,0,0,0,4.83,8.12,45.9,45.9,0,0,0,13.5,9.19c5.72,2.68,11.62,4.74,18,4.75q19.13,0,38.26,0h1.3Z"/><path d="M93.76,126.94c-1.07-5.72-5.91-10.67-11.13-11.35a65.16,65.16,0,0,0-8.72-.58c-4.3,0-8.61.26-12.92.43-5,.2-10.94,5-12,11.56a65.3,65.3,0,0,0-.34,9.08l0,131.82c0,6.56,0,13.12,0,19.68,0,3.61,2.25,5.88,5.82,5.89,11.28,0,22.56,0,33.84,0a7,7,0,0,0,3.18-.84c2.19-1.18,2.69-3.28,2.69-5.61,0-36.52-.07-151.56-.11-156.11A22.53,22.53,0,0,0,93.76,126.94ZM83.12,282.38H59.69V130.7q0-4.71,4.71-4.71h14c3,0,4.61,1.6,4.61,4.58q0,75.24.07,150.47Z"/><path d="M48.67,144.77H8.86c-2.67,0-5.27.55-7.23,2.46-1.5,2-1.92,2.37-1.45,6.12C2,159.15,2.82,160.45,7,164.72a53.2,53.2,0,0,0,13.91,10.09c6.83,3.53,14,6.17,21.69,6.83,2,.17,4,0,6.08,0Zm0,26.14a56.18,56.18,0,0,1-6.44-.42A51.86,51.86,0,0,1,14.85,156.9c-.35-.34-1-1-1-1l34.81,0Z"/><path d="M141.16,147.35c-2-1.92-4.56-2.47-7.22-2.46q-19.14,0-38.27,0H94.12l0,36.9c2.11,0,4.11.14,6.08,0,7.73-.66,14.86-3.29,21.69-6.83a53.22,53.22,0,0,0,13.92-10.08c4.14-4.27,5-5.57,6.78-11.38C143.08,149.72,142.66,149.34,141.16,147.35ZM128,157a51.9,51.9,0,0,1-27.36,13.6,56.17,56.17,0,0,1-6.43.41V156c13,0,34.81,0,34.81,0S128.3,156.69,128,157Z"/><path d="M343.76,126.94c-1.07-5.72-5.91-10.67-11.13-11.35a65.16,65.16,0,0,0-8.72-.58c-4.3,0-8.61.26-12.92.43-5,.2-10.94,5-12,11.56a65.3,65.3,0,0,0-.34,9.08l0,131.82c0,6.56,0,13.12,0,19.68,0,3.61,2.25,5.88,5.82,5.89,11.28,0,22.56,0,33.84,0a7,7,0,0,0,3.18-.84c2.19-1.18,2.69-3.28,2.69-5.61,0-36.52-.07-151.56-.11-156.11A22.53,22.53,0,0,0,343.76,126.94ZM333.12,282.38H309.69V130.7q0-4.71,4.71-4.71h14c3,0,4.61,1.6,4.61,4.58q0,75.24.07,150.47Z"/><path d="M298.67,144.77H258.86c-2.67,0-5.27.55-7.23,2.46-1.5,2-1.92,2.37-1.45,6.12,1.78,5.81,2.64,7.11,6.79,11.38a53.2,53.2,0,0,0,13.91,10.09c6.83,3.53,14,6.17,21.69,6.83,2,.17,4,0,6.08,0Zm0,26.14a56.18,56.18,0,0,1-6.44-.42,51.86,51.86,0,0,1-27.35-13.59c-.35-.34-1-1-1-1l34.81,0Z"/><path d="M391.16,147.35c-2-1.92-4.56-2.47-7.22-2.46q-19.14,0-38.27,0h-1.55l0,36.9c2.11,0,4.11.14,6.08,0,7.73-.66,14.86-3.29,21.69-6.83a53.22,53.22,0,0,0,13.92-10.08c4.14-4.27,5-5.57,6.78-11.38C393.08,149.72,392.66,149.34,391.16,147.35ZM378,157a51.9,51.9,0,0,1-27.36,13.6,56.17,56.17,0,0,1-6.43.41V156c13,0,34.81,0,34.81,0S378.3,156.69,378,157Z"/><path d="M191,210.54c0-3.64,0-7.28,0-10.92a5.5,5.5,0,0,1,11-.62,7.69,7.69,0,0,1,.07,1.07q0,10.44,0,20.87c0,2.89-1.23,4.87-3.49,5.74a5.47,5.47,0,0,1-7.55-5.11C191,217.89,191,214.21,191,210.54Z"/><path d="M191,257.75c0-1.84,0-3.68,0-5.52a5.49,5.49,0,0,1,10.91-.84,14.33,14.33,0,0,1,.12,2.27c0,3.4.1,6.8-.14,10.18a5.22,5.22,0,0,1-5.75,4.74,5.39,5.39,0,0,1-5.14-5.44C191,261.34,191,259.54,191,257.75Z"/><path d="M191,125.1c0-3.64,0-7.28,0-10.92a5.5,5.5,0,0,1,11-.62,7.59,7.59,0,0,1,.07,1.07q0,10.44,0,20.87c0,2.89-1.23,4.87-3.49,5.74a5.47,5.47,0,0,1-7.55-5.11C191,132.45,191,128.77,191,125.1Z"/><path d="M191,33.59c-1.46,0-2.74,0-4,0a5.86,5.86,0,0,1-6-6c-.07-3.73,2.2-6.41,5.75-6.46q9.72-.15,19.44,0c3.65.05,5.86,2.68,5.79,6.53a5.85,5.85,0,0,1-6.05,5.94H202v1.47q0,11.1,0,22.2c0,2.21-.63,4.12-2.61,5.33a5.34,5.34,0,0,1-5.7.11A5.11,5.11,0,0,1,191,58V33.59Z"/></g></svg>