<?xml version="1.0" standalone="no"?>
<!DOCTYPE svg PUBLIC "-//W3C//DTD SVG 20010904//EN"
 "http://www.w3.org/TR/2001/REC-SVG-20010904/DTD/svg10.dtd">
<svg version="1.0" xmlns="http://www.w3.org/2000/svg"
 width="700.000000pt" height="700.000000pt" viewBox="0 0 700.000000 700.000000"
 preserveAspectRatio="xMidYMid meet">
<metadata>
Created by potrace 1.11, written by Peter Selinger 2001-2013
</metadata>
<g transform="translate(0.000000,700.000000) scale(0.100000,-0.100000)"
fill="#000000" stroke="none">
<path d="M0 4843 l0 -2158 23 27 c12 15 319 363 682 772 l660 745 37 -37 c27
-27 3491 -3933 3685 -4155 l33 -37 204 2 205 3 -935 1055 c-515 580 -998 1125
-1074 1211 l-138 155 504 567 503 567 1103 -1242 c606 -684 1194 -1346 1305
-1471 l203 -228 0 3191 0 3190 -3500 0 -3500 0 0 -2157z m5274 1633 c-55 -80
-105 -193 -129 -296 -25 -108 -23 -290 4 -395 130 -494 643 -771 1119 -604 48
17 101 40 118 50 43 26 46 24 29 -18 -54 -128 -205 -306 -334 -393 -80 -54
-186 -103 -282 -130 -94 -28 -306 -38 -415 -20 -394 63 -721 390 -784 784 -18
109 -8 321 20 415 75 262 256 481 500 606 38 20 193 75 198 70 2 -1 -18 -33
-44 -69z"/>
</g>
</svg>
