<?xml version="1.0" standalone="no"?>
<!DOCTYPE svg PUBLIC "-//W3C//DTD SVG 1.1//EN" "http://www.w3.org/Graphics/SVG/1.1/DTD/svg11.dtd" >
<svg xmlns="http://www.w3.org/2000/svg" xmlns:xlink="http://www.w3.org/1999/xlink" version="1.1">
<metadata>
Created by FontForge 20170731 at Tue Mar 13 19:28:57 2018
 By Aleksey,,,
Copyright (c) 2018 by MadeType. All rights reserved.
</metadata>
<defs>
<font id="MADEEvolveSans-Thin" horiz-adv-x="545" >
  <font-face 
    font-family="MADE Evolve Sans"
    font-weight="250"
    font-stretch="normal"
    units-per-em="1000"
    panose-1="2 0 5 3 0 0 0 2 0 4"
    ascent="800"
    descent="-200"
    x-height="482"
    cap-height="700"
    bbox="-55 -225 1070 950"
    underline-thickness="50"
    underline-position="-200"
    unicode-range="U+0020-F6C3"
  />
<missing-glyph horiz-adv-x="280" 
 />
    <glyph glyph-name=".notdef" horiz-adv-x="280" 
 />
    <glyph glyph-name=".null" horiz-adv-x="0" 
 />
    <glyph glyph-name="nonmarkingreturn" horiz-adv-x="333" 
 />
    <glyph glyph-name="space" unicode=" " horiz-adv-x="280" 
 />
    <glyph glyph-name="exclam" unicode="!" horiz-adv-x="256" 
d="M128 56q11 0 19.5 -8.5t8.5 -19.5t-8.5 -19.5t-19.5 -8.5t-19.5 8.5t-8.5 19.5t8.5 19.5t19.5 8.5zM142 174h-29l-2 526h34z" />
    <glyph glyph-name="quotedbl" unicode="&#x22;" horiz-adv-x="250" 
d="M61 538l-11 168h43l-12 -168h-20zM157 706h43l-12 -168h-20z" />
    <glyph glyph-name="numbersign" unicode="#" horiz-adv-x="783" 
d="M725 446h-149l-43 -204h149l-7 -34h-149l-44 -208h-35l43 208h-248l-44 -208h-35l43 208h-156l7 34h157l42 204h-156l8 34h156l46 220h35l-46 -220h249l46 220h35l-46 -220h150zM497 242l43 204h-248l-43 -204h248z" />
    <glyph glyph-name="dollar" unicode="$" horiz-adv-x="626" 
d="M315 368q139 -32 190 -75.5t51 -108.5q0 -31 -11.5 -61.5t-37.5 -60.5t-75.5 -49t-116.5 -20v-94h-35v95q-94 7 -157 50t-83 108l32 11q16 -55 70.5 -91.5t137.5 -42.5v311q-114 27 -169 68t-55 107q0 84 63.5 136.5t160.5 53.5v96h35v-97q80 -6 139 -46t74 -107l-34 -11
q-11 54 -58 88.5t-121 40.5v-301zM91 515q0 -31 14.5 -54t43.5 -39t58 -26t73 -20v295q-84 -2 -136.5 -44.5t-52.5 -111.5zM315 28q86 1 146 40.5t60 115.5q0 33 -16 58t-47 42t-63.5 28t-79.5 21v-305z" />
    <glyph glyph-name="percent" unicode="%" horiz-adv-x="732" 
d="M306 563q0 -61 -41 -102t-102 -41t-102 41t-41 102t41 102t102 41t102 -41t41 -102zM52 563q0 -47 32 -79t79 -32t79.5 32t32.5 79t-32.5 79t-79.5 32t-79 -32t-32 -79zM528 279q61 0 102.5 -41t41.5 -102t-41.5 -102t-102.5 -41q-60 0 -101.5 41t-41.5 102t41.5 102
t101.5 41zM528 25q48 0 80 32t32 79t-32 79.5t-80 32.5q-47 0 -79 -32.5t-32 -79.5t32 -79t79 -32zM545 700h41l-437 -700h-41z" />
    <glyph glyph-name="ampersand" unicode="&#x26;" horiz-adv-x="679" 
d="M92 56q-28 38 -31 89.5t18 99.5q34 77 147 160q-47 61 -66 107q-29 69 7.5 131.5t110.5 62.5q65 0 101 -49.5t18 -113.5q-11 -42 -40.5 -73.5t-81.5 -70.5q74 -93 200 -227q22 32 67 109h41q-66 -108 -84 -134l140 -147h-49q-45 48 -112 118q-96 -120 -204 -128
q-128 -10 -182 66zM247 378q-107 -79 -136 -147q-37 -85 12 -152q23 -32 61 -47.5t84 -10.5q100 12 186 123q-120 125 -207 234zM275 670q-47 0 -75 -45.5t-7 -100.5q13 -36 60 -98q34 25 52 40t36 38t23 47q12 57 -14 88t-75 31z" />
    <glyph glyph-name="quotesingle" unicode="'" horiz-adv-x="123" 
d="M30 706h43l-12 -168h-20z" />
    <glyph glyph-name="parenleft" unicode="(" horiz-adv-x="306" 
d="M266 730q-95 -113 -131.5 -276t-7 -325.5t119.5 -273.5l-27 -22q-148 184 -139 467q4 130 45.5 248.5t112.5 203.5z" />
    <glyph glyph-name="parenright" unicode=")" horiz-adv-x="306" 
d="M85 752q149 -183 140 -467q-5 -131 -46.5 -249t-112.5 -203l-26 22q95 113 131.5 276t6.5 325.5t-120 273.5z" />
    <glyph glyph-name="asterisk" unicode="*" horiz-adv-x="345" 
d="M305 611l-118 -60l118 -59l-17 -31l-111 73l8 -132h-35l8 132l-111 -73l-17 31l118 59l-118 60l17 30l111 -73l-8 132h35l-8 -132l111 73z" />
    <glyph glyph-name="plus" unicode="+" horiz-adv-x="508" 
d="M448 324v-35h-177v-176h-34v176h-177v35h177v177h34v-177h177z" />
    <glyph glyph-name="comma" unicode="," horiz-adv-x="170" 
d="M76 52h44l-70 -168h-20z" />
    <glyph glyph-name="hyphen" unicode="-" horiz-adv-x="450" 
d="M60 324h330v-35h-330v35z" />
    <glyph glyph-name="period" unicode="." horiz-adv-x="175" 
d="M87 56q12 0 20 -8.5t8 -19.5t-8 -19.5t-20 -8.5q-11 0 -19 8.5t-8 19.5t8 19.5t19 8.5z" />
    <glyph glyph-name="slash" unicode="/" horiz-adv-x="437" 
d="M350 751h37l-300 -905h-37z" />
    <glyph glyph-name="zero" unicode="0" horiz-adv-x="564" 
d="M282 706q96 0 154 -96t58 -260q0 -165 -57 -261t-155 -96t-155 96t-57 261q0 164 58 260t154 96zM282 28q47 0 82 28t54.5 75t28.5 102t9 117q0 89 -17 159.5t-57.5 116.5t-99.5 46t-99.5 -46t-58 -116.5t-17.5 -159.5q0 -62 9.5 -117t29 -102t54.5 -75t82 -28z" />
    <glyph glyph-name="one" unicode="1" horiz-adv-x="301" 
d="M166 700h35v-700h-35v582q-55 -83 -136 -104v30q113 57 136 192z" />
    <glyph glyph-name="two" unicode="2" horiz-adv-x="515" 
d="M98 35h342v-35h-380q0 71 43.5 133t124.5 137q146 135 152 247q4 72 -29.5 112.5t-102.5 40.5q-63 0 -99.5 -42t-48.5 -96l-35 8q4 18 11.5 37.5t22.5 43t34.5 41.5t49.5 30.5t65 12.5q92 0 133 -53t37 -136q-4 -72 -48 -137t-118 -135q-67 -62 -105 -110t-49 -99z" />
    <glyph glyph-name="three" unicode="3" horiz-adv-x="540" 
d="M320 379q71 -21 108 -73.5t37 -109.5q0 -88 -57.5 -145.5t-159.5 -57.5q-61 0 -119.5 32.5t-78.5 78.5l36 17q19 -41 65.5 -67.5t96.5 -26.5q82 0 132 47t50 122q0 73 -52 119t-136 46h-54v35h51q77 0 117.5 40.5t40.5 98.5q0 62 -41 98.5t-100 36.5q-61 0 -102 -31.5
t-55 -90.5l-34 6q10 60 61 105.5t130 45.5q87 0 131.5 -50t44.5 -120q0 -50 -31 -93t-81 -63z" />
    <glyph glyph-name="four" unicode="4" horiz-adv-x="578" 
d="M518 210v-34h-93v-176h-35v176h-330v34l330 490h35v-490h93zM102 210h288v429z" />
    <glyph glyph-name="five" unicode="5" horiz-adv-x="550" 
d="M271 457q97 0 148 -64t51 -165q0 -37 -12 -76t-36 -75.5t-66.5 -60t-95.5 -23.5q-44 0 -81.5 13t-61.5 33t-36.5 35t-20.5 29l30 18q55 -93 170 -93q75 0 125.5 57.5t50.5 142.5q0 94 -44.5 144.5t-123.5 50.5q-101 0 -153 -95l-1 -1l-34 5l58 368h312v-34h-282l-45 -280
q63 71 148 71z" />
    <glyph glyph-name="six" unicode="6" horiz-adv-x="576" 
d="M289 -7q-46 1 -87 23t-74.5 66t-48.5 121t-5 177q17 169 85 248.5t158 77.5t156 -78l-25 -24q-54 69 -135 69q-89 1 -149 -102.5t-59 -270.5q28 53 75 88t99 42q90 13 158.5 -42t68.5 -168q0 -98 -62.5 -163.5t-154.5 -63.5zM109 241q10 -91 53.5 -147t116.5 -65
q74 -9 131.5 46t57.5 146q0 84 -47 133t-130 42q-62 -5 -112.5 -51t-69.5 -104z" />
    <glyph glyph-name="seven" unicode="7" horiz-adv-x="514" 
d="M50 700h404v-34l-304 -666h-39l305 666h-366v34z" />
    <glyph glyph-name="eight" unicode="8" horiz-adv-x="576" 
d="M363 381q71 -20 107 -73t36 -111q0 -87 -60 -145t-163 -58t-163 58t-60 145q0 59 36 111.5t107 72.5q-49 20 -78.5 61.5t-29.5 90.5q0 69 50 121t138 52t137.5 -52t49.5 -121q0 -49 -29 -90.5t-78 -61.5zM130 533q0 -57 41 -96.5t112 -39.5t111.5 39.5t40.5 96.5
q0 61 -41 100t-111 39t-111.5 -39t-41.5 -100zM283 29q83 0 135.5 47t52.5 121q0 73 -52.5 119.5t-135.5 46.5q-84 0 -136 -46.5t-52 -119.5q0 -74 52.5 -121t135.5 -47z" />
    <glyph glyph-name="nine" unicode="9" horiz-adv-x="577" 
d="M287 706q46 0 87.5 -22.5t75 -66.5t48.5 -121t5 -177q-17 -169 -85.5 -248.5t-158.5 -77.5q-87 2 -153 75l-3 3l25 24q54 -69 135 -69q89 0 149 103.5t60 269.5q-27 -53 -75 -87.5t-100 -42.5q-90 -12 -158.5 43t-68.5 167q0 98 63 163.5t154 63.5zM467 459
q-9 90 -53 146t-117 65q-74 9 -131.5 -46t-57.5 -146q0 -84 47 -133t130 -42q63 5 113 51t69 105z" />
    <glyph glyph-name="colon" unicode=":" horiz-adv-x="196" 
d="M78 56q11 0 19.5 -8.5t8.5 -19.5t-8.5 -19.5t-19.5 -8.5t-19.5 8.5t-8.5 19.5t8.5 19.5t19.5 8.5zM78 423q-11 0 -19.5 8t-8.5 19q0 12 8.5 20t19.5 8t19.5 -8t8.5 -20q0 -11 -8.5 -19t-19.5 -8z" />
    <glyph glyph-name="semicolon" unicode=";" horiz-adv-x="196" 
d="M78 423q-11 0 -19 8t-8 19q0 12 8 20t19 8q12 0 20 -8t8 -20q0 -11 -8 -19t-20 -8zM17 -116l46 168h43l-69 -168h-20z" />
    <glyph glyph-name="less" unicode="&#x3c;" horiz-adv-x="482" 
d="M412 487v-39l-303 -147l303 -147v-39l-342 166v40z" />
    <glyph glyph-name="equal" unicode="=" horiz-adv-x="538" 
d="M70 401h388v-35h-388v35zM70 203v35h388v-35h-388z" />
    <glyph glyph-name="greater" unicode="&#x3e;" horiz-adv-x="483" 
d="M70 487l343 -166v-40l-343 -166v39l303 147l-303 147v39z" />
    <glyph glyph-name="question" unicode="?" horiz-adv-x="470" 
d="M204 56q12 0 20 -8.5t8 -19.5t-8 -19.5t-20 -8.5q-11 0 -19 8.5t-8 19.5t8 19.5t19 8.5zM223 706q90 0 137.5 -55.5t37.5 -138.5q-5 -38 -23 -76.5t-33 -59t-44 -55.5q-27 -32 -39.5 -49t-25 -44.5t-12.5 -53.5h-35q0 32 14 64t28.5 52t42.5 53q27 33 41.5 53t30.5 53.5
t21 66.5q9 70 -33 112.5t-108 42.5q-57 0 -97 -37t-51 -107l-35 8q13 84 65.5 127.5t117.5 43.5z" />
    <glyph glyph-name="at" unicode="@" horiz-adv-x="936" 
d="M874 259q3 -48 -2.5 -94.5t-20 -89t-43 -68.5t-67.5 -26q-90 0 -108 131q-25 -50 -71.5 -79.5t-106.5 -29.5q-92 0 -150 65t-58 161q0 95 58 159.5t150 64.5q57 0 102 -26.5t72 -73.5v80h31v-205q0 -48 2.5 -81.5t10.5 -66.5t25 -50t43 -17q53 0 81 71.5t20 171.5
q-7 86 -41.5 153.5t-86.5 108t-113 61.5t-127 21q-154 0 -255.5 -84.5t-121.5 -231.5q-14 -105 18.5 -195t106.5 -147q82 -63 192 -73.5t220 35.5l12 -30q-64 -28 -141 -35.5t-159 12t-144 66.5q-81 62 -116.5 159.5t-20.5 211.5q22 160 132 252t277 92q96 0 173 -33.5
t123.5 -88.5t72.5 -119t31 -132zM455 35q78 0 124.5 55.5t46.5 138.5t-46.5 138t-124.5 55t-126 -55.5t-48 -137.5q0 -83 48 -138.5t126 -55.5z" />
    <glyph glyph-name="A" unicode="A" horiz-adv-x="652" 
d="M575 0l-86 222h-326l-86 -222h-37l270 700h32l270 -700h-37zM176 256h300l-150 388z" />
    <glyph glyph-name="B" unicode="B" horiz-adv-x="653" 
d="M436 376q65 -16 103.5 -62t38.5 -121q0 -93 -60 -143t-151 -50h-267v700h250q84 0 136.5 -47.5t52.5 -125.5q0 -54 -27.5 -93.5t-75.5 -57.5zM350 665h-215v-275h215q68 0 110 36t42 101q0 67 -41 102.5t-111 35.5zM367 35q74 0 123.5 40t49.5 118q0 79 -49 120.5
t-124 41.5h-232v-320h232z" />
    <glyph glyph-name="C" unicode="C" horiz-adv-x="757" 
d="M404 29q82 0 149 38.5t107 105.5l32 -15q-45 -76 -120.5 -120t-167.5 -44q-145 0 -242 103.5t-97 252.5t97 252.5t242 103.5q92 0 167.5 -44t120.5 -120l-32 -15q-40 67 -107 105.5t-149 38.5q-130 0 -215.5 -93t-86.5 -228q1 -135 86.5 -228t215.5 -93z" />
    <glyph glyph-name="D" unicode="D" horiz-adv-x="738" 
d="M296 700q162 0 264.5 -92.5t102.5 -257.5t-102.5 -257.5t-264.5 -92.5h-196v700h196zM296 35q142 0 234 83.5t92 231.5t-91 231.5t-235 83.5h-161v-630h161z" />
    <glyph glyph-name="E" unicode="E" horiz-adv-x="639" 
d="M134 35h431v-35h-465v700h459v-35h-425v-298h394v-34h-394v-298z" />
    <glyph glyph-name="F" unicode="F" horiz-adv-x="614" 
d="M559 665h-424v-298h357v-34h-357v-333h-35v700h459v-35z" />
    <glyph glyph-name="G" unicode="G" horiz-adv-x="787" 
d="M418 350h284v-192q-45 -76 -120 -120t-167 -44q-145 0 -242.5 103.5t-97.5 252.5t97.5 252.5t242.5 103.5q92 0 167 -44t120 -120l-31 -15q-41 67 -107.5 105.5t-148.5 38.5q-131 0 -216.5 -93t-85.5 -228t85.5 -228t216.5 -93q79 0 145 36t107 98v152h-249v35z" />
    <glyph glyph-name="H" unicode="H" horiz-adv-x="731" 
d="M596 700h35v-700h-35v332h-461v-332h-35v700h35v-333h461v333z" />
    <glyph glyph-name="I" unicode="I" horiz-adv-x="234" 
d="M100 700h34v-700h-34v700z" />
    <glyph glyph-name="J" unicode="J" horiz-adv-x="444" 
d="M319 700h35v-514q0 -89 -42.5 -141t-122.5 -52q-56 0 -98.5 21t-65.5 53l31 20q17 -24 52 -42t77 -18q66 0 100 43.5t34 116.5v513z" />
    <glyph glyph-name="K" unicode="K" horiz-adv-x="642" 
d="M554 0l-272 383l-147 -163v-220h-35v700h35v-428l387 428h47l-263 -291l291 -409h-43z" />
    <glyph glyph-name="L" unicode="L" horiz-adv-x="560" 
d="M135 35h385v-35h-420v700h35v-665z" />
    <glyph glyph-name="M" unicode="M" horiz-adv-x="886" 
d="M754 700h32v-700h-35v634l-296 -450h-23l-297 450v-634h-35v700h32l311 -473z" />
    <glyph glyph-name="N" unicode="N" horiz-adv-x="733" 
d="M598 700h35v-700h-32l-466 638v-638h-35v700h32l466 -640v640z" />
    <glyph glyph-name="O" unicode="O" horiz-adv-x="789" 
d="M394 706q146 0 243 -104t97 -253t-97.5 -252.5t-242.5 -103.5t-242 103.5t-97 252.5t97 253t242 104zM394 27q131 0 216.5 93.5t85.5 228.5t-85.5 228.5t-216.5 93.5q-130 0 -215.5 -93.5t-85.5 -228.5t85.5 -228.5t215.5 -93.5z" />
    <glyph glyph-name="P" unicode="P" horiz-adv-x="619" 
d="M351 700q98 0 163 -59.5t65 -154.5t-64.5 -154.5t-163.5 -59.5h-217v-272h-34v700h251zM351 307q82 0 136.5 48.5t54.5 130.5t-53.5 130.5t-137.5 48.5h-217v-358h217z" />
    <glyph glyph-name="Q" unicode="Q" horiz-adv-x="809" 
d="M744 350q0 -145 -91 -247l85 -87l-24 -25l-86 87q-93 -85 -223 -85q-146 0 -243 104t-97 253t97.5 252.5t242.5 103.5t242 -103.5t97 -252.5zM405 28q115 0 198 75l-76 78l24 24l76 -77q80 93 80 222q0 135 -86 228.5t-216 93.5q-131 0 -216.5 -93.5t-85.5 -228.5
t85.5 -228.5t216.5 -93.5z" />
    <glyph glyph-name="R" unicode="R" horiz-adv-x="658" 
d="M593 0h-40l-156 276q-20 -4 -46 -4h-217v-272h-34v700h251q98 0 163 -59.5t65 -154.5q0 -74 -40 -127.5t-107 -74.5zM351 307q82 0 136.5 48.5t54.5 130.5t-53.5 130.5t-137.5 48.5h-217v-358h217z" />
    <glyph glyph-name="S" unicode="S" horiz-adv-x="626" 
d="M295 707q89 0 157.5 -41t85.5 -115l-33 -11q-12 60 -68.5 96t-141.5 36q-86 0 -140 -43.5t-54 -113.5q0 -27 13 -48.5t30.5 -35.5t50 -26.5t57.5 -19t67 -15.5q143 -33 195 -76.5t52 -109.5q0 -31 -12 -62t-38 -61.5t-77 -49.5t-119 -19q-105 0 -176.5 45t-93.5 115
l33 11q17 -59 79.5 -97.5t157.5 -38.5q88 0 149.5 40t61.5 117q0 34 -17 60t-51.5 43.5t-68 27.5t-83.5 21q-125 27 -184.5 69t-59.5 110q0 85 64.5 138.5t163.5 53.5z" />
    <glyph glyph-name="T" unicode="T" horiz-adv-x="536" 
d="M526 700v-35h-236v-665h-34v665h-236v35h506z" />
    <glyph glyph-name="U" unicode="U" horiz-adv-x="715" 
d="M580 700h35v-418q0 -133 -68 -211t-190 -78t-189.5 77t-67.5 212v418h35v-418q0 -120 59 -187.5t163 -67.5t163.5 67.5t59.5 187.5v418z" />
    <glyph glyph-name="V" unicode="V" horiz-adv-x="626" 
d="M559 700h37l-267 -700h-32l-267 700h37l246 -644z" />
    <glyph glyph-name="W" unicode="W" horiz-adv-x="1031" 
d="M949 700h37l-228 -700h-36l-207 644l-208 -644h-35l-227 700h37l209 -643l207 643h35l207 -643z" />
    <glyph glyph-name="X" unicode="X" horiz-adv-x="601" 
d="M581 0h-43l-232 329l-233 -329h-43l254 360l-241 340h43l220 -310l219 310h43l-241 -340z" />
    <glyph glyph-name="Y" unicode="Y" horiz-adv-x="599" 
d="M579 700l-262 -467v-233h-34v232l-263 468h40l240 -427l239 427h40z" />
    <glyph glyph-name="Z" unicode="Z" horiz-adv-x="673" 
d="M114 35h489v-35h-533v35l481 630h-451v35h495v-35z" />
    <glyph glyph-name="bracketleft" unicode="[" horiz-adv-x="314" 
d="M274 716h-159v-835h159v-35h-194v905h194v-35z" />
    <glyph glyph-name="backslash" unicode="\" horiz-adv-x="437" 
d="M87 751l300 -905h-36l-301 905h37z" />
    <glyph glyph-name="bracketright" unicode="]" horiz-adv-x="314" 
d="M200 716h-160v35h194v-905h-194v35h160v835z" />
    <glyph glyph-name="asciicircum" unicode="^" horiz-adv-x="438" 
d="M378 422h-39l-130 242l-129 -242h-40l150 278h39z" />
    <glyph glyph-name="underscore" unicode="_" horiz-adv-x="533" 
d="M10 -55l513 1v-35h-513v34z" />
    <glyph glyph-name="grave" unicode="`" horiz-adv-x="160" 
d="M52 700l78 -136h-21l-99 136h42z" />
    <glyph glyph-name="a" unicode="a" horiz-adv-x="500" 
d="M252 489q29 0 56.5 -8t53.5 -25.5t42 -52.5t16 -82v-321h-34v99q-69 -106 -197 -106q-37 0 -68.5 10t-56 38t-24.5 71q0 64 47 97t131 53q13 3 34.5 7.5t34 7t30 7t28 9t21 11t15 14t4.5 17.5q0 53 -33 86.5t-100 33.5q-64 0 -102.5 -30t-50.5 -80l-34 8q35 136 187 136z
M386 201v64q-15 -3 -68.5 -16.5t-91.5 -20.5q-82 -17 -115.5 -43.5t-33.5 -72.5q0 -42 33 -63.5t84 -21.5q81 0 136.5 51t55.5 123z" />
    <glyph glyph-name="b" unicode="b" horiz-adv-x="586" 
d="M306 489q101 0 163 -71.5t62 -176.5t-62 -176.5t-163 -71.5q-66 0 -115 31.5t-76 86.5v-111h-35v700h35v-329q27 55 76 86.5t115 31.5zM306 27q86 0 137 61.5t51 152.5t-51 152.5t-137 61.5t-137 -61.5t-51 -152.5t51 -152.5t137 -61.5z" />
    <glyph glyph-name="c" unicode="c" horiz-adv-x="533" 
d="M281 27q109 0 164 96l33 -16q-31 -53 -82 -83.5t-115 -30.5q-101 0 -166 71.5t-65 176.5t65 176.5t166 71.5q64 0 115 -30.5t82 -83.5l-33 -15q-55 95 -164 95q-87 0 -140.5 -61.5t-53.5 -152.5t53.5 -152.5t140.5 -61.5z" />
    <glyph glyph-name="d" unicode="d" horiz-adv-x="582" 
d="M467 700h35v-700h-35v111q-27 -55 -76.5 -86.5t-114.5 -31.5q-101 0 -163.5 71.5t-62.5 176.5t62.5 176.5t163.5 71.5q65 0 114.5 -31.5t76.5 -86.5v329zM276 27q86 0 137 61.5t51 152.5t-51 152.5t-137 61.5t-137 -61.5t-51 -152.5t51 -152.5t137 -61.5z" />
    <glyph glyph-name="e" unicode="e" 
d="M485 241q0 -17 -1 -26h-405q8 -82 60.5 -135t132.5 -53q109 0 164 96l32 -16q-30 -53 -81 -83.5t-115 -30.5q-101 0 -166.5 72t-65.5 176t65.5 176t166.5 72q99 0 156 -70.5t57 -177.5zM272 455q-84 0 -137.5 -58.5t-56.5 -146.5h369q-2 90 -47 147.5t-128 57.5z" />
    <glyph glyph-name="f" unicode="f" horiz-adv-x="313" 
d="M223 671q-71 0 -71 -98v-91h117v-35h-117v-447h-35v447h-72v35h72v85q0 139 106 139q44 0 90 -32l-19 -29q-34 26 -71 26z" />
    <glyph glyph-name="g" unicode="g" horiz-adv-x="581" 
d="M466 482h35v-473q0 -107 -57 -170.5t-162 -63.5q-67 0 -120.5 32t-78.5 77l30 20q25 -38 69.5 -66t99.5 -28q91 0 137.5 55.5t46.5 149.5v96q-27 -55 -76 -86.5t-115 -31.5q-101 0 -163 71.5t-62 176.5t62 176.5t163 71.5q66 0 115 -31.5t76 -86.5v111zM275 27
q86 0 137 61.5t51 152.5t-51 152.5t-137 61.5t-137 -61.5t-51 -152.5t51 -152.5t137 -61.5z" />
    <glyph glyph-name="h" unicode="h" horiz-adv-x="541" 
d="M273 489q89 0 138.5 -58t49.5 -157v-274h-35v274q0 81 -40.5 131t-112.5 50q-68 0 -113 -53.5t-45 -139.5v-262h-35v700h35v-316q23 48 63.5 76.5t94.5 28.5z" />
    <glyph glyph-name="i" unicode="i" horiz-adv-x="220" 
d="M90 0v482h35v-482h-35zM107 630q12 0 20 -8.5t8 -19.5t-8 -19.5t-20 -8.5q-11 0 -19 8.5t-8 19.5t8 19.5t19 8.5z" />
    <glyph glyph-name="j" unicode="j" horiz-adv-x="231" 
d="M123 630q11 0 19.5 -8.5t8.5 -19.5t-8.5 -19.5t-19.5 -8.5t-19.5 8.5t-8.5 19.5t8.5 19.5t19.5 8.5zM105 -89v571h34v-571q0 -59 -27.5 -97.5t-81.5 -38.5q-50 0 -85 30l21 27q28 -22 64 -22t55.5 26.5t19.5 74.5z" />
    <glyph glyph-name="k" unicode="k" horiz-adv-x="502" 
d="M429 0l-191 264l-123 -132v-132h-35v700h35v-517l278 299h47l-178 -192l210 -290h-43z" />
    <glyph glyph-name="l" unicode="l" horiz-adv-x="215" 
d="M80 750h35v-750h-35v750z" />
    <glyph glyph-name="m" unicode="m" horiz-adv-x="846" 
d="M593 489q87 0 130 -57t43 -158v-274h-35v274q0 82 -36.5 131.5t-107.5 49.5q-68 0 -107.5 -52.5t-39.5 -140.5v-262h-35v274q0 82 -36 131.5t-107 49.5q-68 0 -107.5 -52.5t-39.5 -140.5v-262h-35v482h35v-94q49 101 152 101q124 0 161 -118q21 54 63.5 86t101.5 32z" />
    <glyph glyph-name="n" unicode="n" horiz-adv-x="540" 
d="M273 489q88 0 137.5 -58t49.5 -157v-274h-35v274q0 81 -40 131t-112 50q-69 0 -114 -53.5t-45 -139.5v-262h-34v482h34v-98q52 105 159 105z" />
    <glyph glyph-name="o" unicode="o" horiz-adv-x="568" 
d="M282 489q101 0 166 -71.5t65 -176.5t-65 -176.5t-166 -71.5t-166.5 72t-65.5 176t65.5 176t166.5 72zM282 27q87 0 140 61.5t53 152.5t-53 152.5t-140 61.5t-140.5 -61.5t-53.5 -152.5t53.5 -152.5t140.5 -61.5z" />
    <glyph glyph-name="p" unicode="p" horiz-adv-x="586" 
d="M306 490q100 0 162.5 -72t62.5 -177t-62 -176.5t-163 -71.5q-66 0 -115 31.5t-76 87.5v-330h-35v700h35v-111q27 55 76 87t115 32zM306 28q86 0 137 61t51 152t-51 152.5t-137 61.5t-137 -61.5t-51 -152.5t51 -152t137 -61z" />
    <glyph glyph-name="q" unicode="q" horiz-adv-x="582" 
d="M467 482h35v-700h-35v330q-27 -55 -76.5 -87t-114.5 -32q-101 0 -163.5 71.5t-62.5 176.5t62.5 177t163.5 72q65 0 114.5 -32t76.5 -87v111zM276 28q86 0 137 61t51 152t-51 152.5t-137 61.5t-137 -61.5t-51 -152.5t51 -152t137 -61z" />
    <glyph glyph-name="r" unicode="r" horiz-adv-x="325" 
d="M279 490q3 0 10 -0.5t11 -0.5l-6 -35q-5 1 -15 1q-70 0 -117 -53.5t-47 -139.5v-262h-35v482h35v-101q24 49 66.5 79t97.5 30z" />
    <glyph glyph-name="s" unicode="s" horiz-adv-x="441" 
d="M223 259q30 -8 48.5 -13.5t44 -17t40 -24.5t25 -33t10.5 -44q0 -64 -47 -99.5t-115 -35.5q-72 0 -122.5 31.5t-66.5 79.5l33 15q13 -38 52.5 -65t103.5 -27q53 0 90 26t37 75q0 37 -34.5 58t-106.5 40q-71 18 -112.5 44.5t-47.5 77.5q-7 59 35.5 101t120.5 42
q61 0 103 -30t58 -79l-32 -13q-32 87 -129 87q-62 0 -94 -30t-27 -74q4 -35 38.5 -55.5t94.5 -36.5z" />
    <glyph glyph-name="t" unicode="t" horiz-adv-x="308" 
d="M272 50l17 -30q-37 -27 -88 -27q-107 0 -107 139v315h-74v35h74v131l35 10v-141h120v-35h-120v-321q0 -98 72 -98q39 0 71 22z" />
    <glyph glyph-name="u" unicode="u" horiz-adv-x="531" 
d="M416 482h35v-482h-35v91q-55 -98 -159 -98q-88 0 -137.5 58.5t-49.5 157.5v273h35v-273q0 -81 40 -131t112 -50q68 0 113.5 51.5t45.5 130.5v272z" />
    <glyph glyph-name="v" unicode="v" horiz-adv-x="455" 
d="M396 482h37l-182 -482h-37l-182 482h37l164 -433z" />
    <glyph glyph-name="w" unicode="w" horiz-adv-x="710" 
d="M653 482h37l-156 -482h-34l-140 426l-141 -426h-34l-155 482h36l138 -425l140 425h31l140 -425z" />
    <glyph glyph-name="x" unicode="x" horiz-adv-x="443" 
d="M413 0h-43l-154 218l-153 -218h-43l175 248l-165 234h43l143 -203l144 203h42l-164 -234z" />
    <glyph glyph-name="y" unicode="y" horiz-adv-x="445" 
d="M386 482h37l-182 -482q-25 -67 -39.5 -98t-35.5 -54q-21 -25 -47.5 -34.5t-41.5 -8.5t-42 6l6 34q61 -12 91.5 18.5t71.5 136.5l-182 482h37l164 -433z" />
    <glyph glyph-name="z" unicode="z" horiz-adv-x="472" 
d="M94 35h328v-35h-372v35l319 412h-306v35h350v-35z" />
    <glyph glyph-name="braceleft" unicode="{" horiz-adv-x="319" 
d="M145 545q0 -118 -13 -173.5t-44 -72.5q31 -17 44 -73t13 -174q0 -100 29 -134t105 -34v-35q-45 0 -73 7t-51.5 27.5t-34 62t-10.5 106.5q0 140 -12.5 185.5t-57.5 45.5v32q45 0 57.5 45t12.5 185q0 65 10.5 106.5t34 62t51.5 27.5t73 7v-35q-76 0 -105 -34t-29 -134z" />
    <glyph glyph-name="bar" unicode="|" horiz-adv-x="234" 
d="M100 751h34v-905h-34v905z" />
    <glyph glyph-name="braceright" unicode="}" horiz-adv-x="319" 
d="M209 545q0 -140 12.5 -185t57.5 -45v-32q-45 0 -57.5 -45.5t-12.5 -185.5q0 -65 -10.5 -106.5t-34 -62t-51.5 -27.5t-73 -7v35q76 0 105 34t29 134q0 118 13 174t44 73q-31 17 -44 72.5t-13 173.5q0 100 -29 134t-105 34v35q45 0 73 -7t51.5 -27.5t34 -62t10.5 -106.5z
" />
    <glyph glyph-name="asciitilde" unicode="~" horiz-adv-x="514" 
d="M431 343l33 -12q-37 -74 -116 -74q-36 0 -99 35q-50 29 -80 28q-56 -1 -85 -51l-34 12q20 34 46 53.5t72 20.5q39 1 99 -33q48 -29 78 -30q59 -2 86 51z" />
    <glyph glyph-name="exclamdown" unicode="&#xa1;" horiz-adv-x="236" 
d="M128 490q11 0 19.5 -8.5t8.5 -19.5t-8.5 -19.5t-19.5 -8.5t-19.5 8.5t-8.5 19.5t8.5 19.5t19.5 8.5zM113 316h29l3 -526h-34z" />
    <glyph glyph-name="cent" unicode="&#xa2;" horiz-adv-x="533" 
d="M281 28q54 0 96.5 25.5t67.5 69.5l33 -16q-30 -53 -81 -83.5t-116 -30.5v-94h-34v96q-88 13 -142.5 82t-54.5 164t54.5 164t142.5 82v96h34v-93q64 0 115.5 -30.5t81.5 -83.5l-33 -16q-25 44 -67.5 69.5t-96.5 25.5v-427zM88 241q0 -81 43.5 -139.5t115.5 -70.5v421
q-72 -13 -115.5 -71.5t-43.5 -139.5z" />
    <glyph glyph-name="sterling" unicode="&#xa3;" horiz-adv-x="595" 
d="M185 35h360v-35h-495v35h100v255h-77v34h77v136q0 65 16 113.5t37 73t50 39t48 17.5t38 3q55 0 104.5 -33t78.5 -93l-31 -16q-25 51 -66.5 79.5t-85.5 28.5q-24 0 -45.5 -6.5t-48.5 -26t-43.5 -65.5t-16.5 -114v-136h235v-34h-235v-255z" />
    <glyph glyph-name="currency" unicode="&#xa4;" horiz-adv-x="663" 
d="M546 357q0 -77 -50 -138l87 -86l-24 -25l-88 87q-58 -52 -140 -52q-80 0 -140 52l-87 -87l-24 25l87 86q-51 61 -51 138q0 79 51 138l-87 87l24 24l87 -86q60 52 140 52q82 0 140 -52l88 86l24 -24l-87 -87q50 -60 50 -138zM331 179q74 0 125 52t51 126q0 75 -51 127
t-125 52q-73 0 -124.5 -52.5t-51.5 -126.5t51.5 -126t124.5 -52z" />
    <glyph glyph-name="yen" unicode="&#xa5;" horiz-adv-x="659" 
d="M609 700l-243 -432h169v-35h-188v-61h188v-35h-188v-137h-35v137h-188v35h188v60v1h-188v35h168l-242 432h40l239 -427l240 427h40z" />
    <glyph glyph-name="brokenbar" unicode="&#xa6;" horiz-adv-x="235" 
d="M100 -154v345h35v-345h-35zM100 751h35v-345h-35v345z" />
    <glyph glyph-name="section" unicode="&#xa7;" horiz-adv-x="590" 
d="M405 107q61 -51 58 -126q-2 -64 -46.5 -111t-120.5 -47q-63 0 -112 38.5t-60 98.5l34 9q8 -44 45.5 -77.5t92.5 -33.5q60 0 95 37.5t37 87.5q1 32 -10.5 56.5t-40 44t-50.5 30.5t-65 29q-33 14 -50.5 22t-44.5 23.5t-41.5 29.5t-27.5 36t-16 47q-8 56 20 107t83 78
q-61 51 -58 125q2 64 47 111t121 47q62 0 111 -38.5t60 -97.5l-33 -10q-9 44 -46 77.5t-92 33.5q-61 0 -96 -37t-37 -87q-1 -32 10.5 -56.5t40.5 -44.5t50 -30.5t65 -29.5q33 -14 50.5 -22t44.5 -23.5t41.5 -29.5t27.5 -35.5t16 -46.5q8 -56 -20 -107.5t-83 -77.5zM117 305
q2 -19 13 -36.5t22.5 -28.5t37 -25t39.5 -20t46 -20q65 -26 96 -45q45 15 77.5 56t25.5 102q-3 19 -13.5 36t-23.5 28.5t-36.5 24.5t-39.5 20.5t-46 19.5q-71 31 -96 46q-46 -16 -78 -56.5t-24 -101.5z" />
    <glyph glyph-name="dieresis" unicode="&#xa8;" horiz-adv-x="340" 
d="M237 656q11 0 19.5 -8.5t8.5 -19.5t-8.5 -19.5t-19.5 -8.5t-19.5 8.5t-8.5 19.5t8.5 19.5t19.5 8.5zM103 656q11 0 19.5 -8.5t8.5 -19.5t-8.5 -19.5t-19.5 -8.5t-19.5 8.5t-8.5 19.5t8.5 19.5t19.5 8.5z" />
    <glyph glyph-name="copyright" unicode="&#xa9;" horiz-adv-x="824" 
d="M417 520q-67 0 -109 -48t-42 -119t41.5 -119t109.5 -48q86 0 129 74l25 -13q-52 -89 -154 -89q-79 0 -129.5 56.5t-50.5 138.5t50.5 138t129.5 56q102 0 154 -89l-25 -13q-43 75 -129 75zM414 706q147 0 251 -105.5t104 -252.5t-104.5 -251t-251.5 -104t-252.5 104
t-105.5 251t106 252.5t253 105.5zM413 25q134 0 229 95t95 228q0 134 -95 230t-228 96q-134 0 -230.5 -96t-96.5 -230q0 -133 96 -228t230 -95z" />
    <glyph glyph-name="guillemotleft" unicode="&#xab;" horiz-adv-x="446" 
d="M224 425l-112 -157l112 -157h-43l-111 157l111 157h43zM376 425l-111 -157l111 -157h-42l-112 157l112 157h42z" />
    <glyph glyph-name="registered" unicode="&#xae;" horiz-adv-x="824" 
d="M414 706q147 0 251 -105.5t104 -252.5t-104.5 -251t-251.5 -104t-252.5 104t-105.5 251t106 252.5t253 105.5zM413 25q134 0 229 95t95 228q0 134 -95 230t-228 96q-134 0 -230.5 -96t-96.5 -230q0 -133 96 -228t230 -95zM565 421q0 -81 -75 -110l80 -141h-31l-75 134
q-15 -3 -31 -3h-118v-131h-27v372h145q56 0 94 -32.5t38 -88.5zM315 328h118q44 0 73 24t29 69t-29.5 69.5t-72.5 24.5h-118v-187z" />
    <glyph glyph-name="macron" unicode="&#xaf;" horiz-adv-x="400" 
d="M75 668h250v-34h-250v34z" />
    <glyph glyph-name="degree" unicode="&#xb0;" horiz-adv-x="407" 
d="M203 706q61 0 102.5 -41t41.5 -102t-41.5 -102t-102.5 -41q-60 0 -101.5 41t-41.5 102t41.5 102t101.5 41zM203 452q48 0 80 32t32 79t-32 79t-80 32q-47 0 -79 -32t-32 -79t32 -79t79 -32z" />
    <glyph glyph-name="plusminus" unicode="&#xb1;" horiz-adv-x="508" 
d="M60 56v35h388v-35h-388zM272 369h176v-35h-176v-176h-35v176h-177v35h177v177h35v-177z" />
    <glyph glyph-name="acute" unicode="&#xb4;" horiz-adv-x="270" 
d="M152 700h43l-99 -136h-21z" />
    <glyph glyph-name="paragraph" unicode="&#xb6;" horiz-adv-x="549" 
d="M489 700v-35h-72v-819h-35v819h-136v-819h-34v529q-59 0 -105.5 44.5t-46.5 117.5t47.5 118t104.5 45h277z" />
    <glyph glyph-name="cedilla" unicode="&#xb8;" horiz-adv-x="318" 
d="M154 -55q43 5 66 -16t23 -53q0 -46 -39 -69q-58 -33 -129 12l13 22q32 -22 69 -21t54 27q15 23 6 47.5t-34 29.5q-28 7 -47 -6l-16 12l34 70h28z" />
    <glyph glyph-name="guillemotright" unicode="&#xbb;" horiz-adv-x="447" 
d="M265 425l112 -157l-112 -157h-42l111 157l-111 157h42zM113 425l111 -157l-111 -157h-43l112 157l-112 157h43z" />
    <glyph glyph-name="questiondown" unicode="&#xbf;" horiz-adv-x="425" 
d="M251 434q-12 0 -20 8.5t-8 19.5t8 19.5t20 8.5q11 0 19 -8.5t8 -19.5t-8 -19.5t-19 -8.5zM381 -37l34 -8q-13 -84 -65.5 -127.5t-117.5 -43.5q-90 0 -137.5 55.5t-37.5 138.5q5 38 23 76.5t33 59t44 55.5q27 32 39.5 49t25 44.5t12.5 53.5h35q0 -32 -14.5 -64.5t-28 -51
t-42.5 -53.5q-28 -34 -42 -53t-30 -52.5t-20 -67.5q-9 -69 32.5 -112t107.5 -43q57 0 97 37t52 107z" />
    <glyph glyph-name="Agrave" unicode="&#xc0;" horiz-adv-x="652" 
d="M575 0l-86 222h-326l-86 -222h-37l270 700h32l270 -700h-37zM176 256h300l-150 388zM248 900l78 -136h-21l-99 136h42z" />
    <glyph glyph-name="Aacute" unicode="&#xc1;" horiz-adv-x="652" 
d="M575 0l-86 222h-326l-86 -222h-37l270 700h32l270 -700h-37zM176 256h300l-150 388zM404 900h43l-99 -136h-21z" />
    <glyph glyph-name="Acircumflex" unicode="&#xc2;" horiz-adv-x="652" 
d="M575 0l-86 222h-326l-86 -222h-37l270 700h32l270 -700h-37zM176 256h300l-150 388zM453 764h-45l-82 109l-81 -109h-45l106 136h41z" />
    <glyph glyph-name="Atilde" unicode="&#xc3;" horiz-adv-x="652" 
d="M575 0l-86 222h-326l-86 -222h-37l270 700h32l270 -700h-37zM176 256h300l-150 388zM445 844l31 -6q-19 -77 -82 -77q-26 0 -50 17t-44.5 34t-38.5 17q-31 0 -54 -44l-28 14q34 61 88 61q25 0 47.5 -17t42.5 -33.5t39 -16.5q39 0 49 51z" />
    <glyph glyph-name="Adieresis" unicode="&#xc4;" horiz-adv-x="652" 
d="M575 0l-86 222h-326l-86 -222h-37l270 700h32l270 -700h-37zM176 256h300l-150 388zM393 856q11 0 19.5 -8.5t8.5 -19.5t-8.5 -19.5t-19.5 -8.5t-19.5 8.5t-8.5 19.5t8.5 19.5t19.5 8.5zM259 856q11 0 19.5 -8.5t8.5 -19.5t-8.5 -19.5t-19.5 -8.5t-19.5 8.5t-8.5 19.5
t8.5 19.5t19.5 8.5z" />
    <glyph glyph-name="Aring" unicode="&#xc5;" horiz-adv-x="652" 
d="M575 0l-86 222h-326l-86 -222h-37l270 700h32l270 -700h-37zM176 256h300l-150 388zM326 933q38 0 64.5 -26.5t26.5 -64.5t-26.5 -64.5t-64.5 -26.5t-64.5 26.5t-26.5 64.5t26.5 64.5t64.5 26.5zM326 780q26 0 44.5 18t18.5 44t-18.5 44t-44.5 18t-44 -18t-18 -44t18 -44
t44 -18z" />
    <glyph glyph-name="AE" unicode="&#xc6;" horiz-adv-x="1029" 
d="M524 35h431v-35h-465v224h-304l-117 -224h-39l367 700h552v-35h-425v-298h394v-34h-394v-298zM205 258h285v407h-72z" />
    <glyph glyph-name="Ccedilla" unicode="&#xc7;" horiz-adv-x="757" 
d="M404 29q82 0 149 38.5t108 105.5l31 -15q-44 -74 -117 -118t-162 -46l-24 -49q43 5 66 -16t23 -53q0 -46 -39 -69q-58 -33 -129 12l12 22q33 -22 70 -21t54 27q15 23 6 47.5t-34 29.5q-28 7 -48 -6l-16 12l32 65q-138 7 -229.5 109t-91.5 246q0 149 97 252.5t242 103.5
q92 0 167.5 -44t120.5 -119l-31 -16q-41 67 -108 106t-149 39q-130 0 -215.5 -93.5t-86.5 -228.5q1 -135 86.5 -228t215.5 -93z" />
    <glyph glyph-name="Egrave" unicode="&#xc8;" horiz-adv-x="639" 
d="M134 35h431v-35h-465v700h459v-35h-425v-298h394v-34h-394v-298zM294 900l78 -136h-21l-99 136h42z" />
    <glyph glyph-name="Eacute" unicode="&#xc9;" horiz-adv-x="639" 
d="M134 35h431v-35h-465v700h459v-35h-425v-298h394v-34h-394v-298zM379 900h43l-99 -136h-21z" />
    <glyph glyph-name="Ecircumflex" unicode="&#xca;" horiz-adv-x="639" 
d="M134 35h431v-35h-465v700h459v-35h-425v-298h394v-34h-394v-298zM459 764h-45l-82 109l-81 -109h-45l106 136h41z" />
    <glyph glyph-name="Edieresis" unicode="&#xcb;" horiz-adv-x="639" 
d="M134 35h431v-35h-465v700h459v-35h-425v-298h394v-34h-394v-298zM399 856q11 0 19.5 -8.5t8.5 -19.5t-8.5 -19.5t-19.5 -8.5t-19.5 8.5t-8.5 19.5t8.5 19.5t19.5 8.5zM265 856q11 0 19.5 -8.5t8.5 -19.5t-8.5 -19.5t-19.5 -8.5t-19.5 8.5t-8.5 19.5t8.5 19.5t19.5 8.5z
" />
    <glyph glyph-name="Igrave" unicode="&#xcc;" horiz-adv-x="234" 
d="M100 700h34v-700h-34v700zM44 900l78 -136h-21l-99 136h42z" />
    <glyph glyph-name="Iacute" unicode="&#xcd;" horiz-adv-x="234" 
d="M100 700h34v-700h-34v700zM191 900h43l-99 -136h-21z" />
    <glyph glyph-name="Icircumflex" unicode="&#xce;" horiz-adv-x="233" 
d="M99 700h34v-700h-34v700zM243 764h-45l-82 109l-81 -109h-45l106 136h41z" />
    <glyph glyph-name="Idieresis" unicode="&#xcf;" horiz-adv-x="234" 
d="M100 700h34v-700h-34v700zM184 856q11 0 19.5 -8.5t8.5 -19.5t-8.5 -19.5t-19.5 -8.5t-19.5 8.5t-8.5 19.5t8.5 19.5t19.5 8.5zM50 856q11 0 19.5 -8.5t8.5 -19.5t-8.5 -19.5t-19.5 -8.5t-19.5 8.5t-8.5 19.5t8.5 19.5t19.5 8.5z" />
    <glyph glyph-name="Eth" unicode="&#xd0;" horiz-adv-x="757" 
d="M315 700q162 0 264.5 -92.5t102.5 -257.5t-102.5 -257.5t-264.5 -92.5h-195v333h-90v34h90v333h195zM315 35q142 0 235.5 84t93.5 231q0 148 -92.5 231.5t-236.5 83.5h-161v-298h206v-34h-206v-298h161z" />
    <glyph glyph-name="Ntilde" unicode="&#xd1;" horiz-adv-x="733" 
d="M598 700h35v-700h-32l-466 638v-638h-35v700h32l466 -640v640zM506 844l31 -6q-19 -77 -82 -77q-26 0 -50 17t-44.5 34t-38.5 17q-31 0 -54 -44l-28 14q34 61 88 61q30 0 69 -33.5t60 -33.5q39 0 49 51z" />
    <glyph glyph-name="Ograve" unicode="&#xd2;" horiz-adv-x="789" 
d="M394 706q146 0 243 -104t97 -253t-97.5 -252.5t-242.5 -103.5t-242 103.5t-97 252.5t97 253t242 104zM394 27q131 0 216.5 93.5t85.5 228.5t-85.5 228.5t-216.5 93.5q-130 0 -215.5 -93.5t-85.5 -228.5t85.5 -228.5t215.5 -93.5zM337 900l78 -136h-21l-99 136h42z" />
    <glyph glyph-name="Oacute" unicode="&#xd3;" horiz-adv-x="789" 
d="M394 706q146 0 243 -104t97 -253t-97.5 -252.5t-242.5 -103.5t-242 103.5t-97 252.5t97 253t242 104zM394 27q131 0 216.5 93.5t85.5 228.5t-85.5 228.5t-216.5 93.5q-130 0 -215.5 -93.5t-85.5 -228.5t85.5 -228.5t215.5 -93.5zM462 900h43l-99 -136h-21z" />
    <glyph glyph-name="Ocircumflex" unicode="&#xd4;" horiz-adv-x="789" 
d="M394 706q146 0 243 -104t97 -253t-97.5 -252.5t-242.5 -103.5t-242 103.5t-97 252.5t97 253t242 104zM394 27q131 0 216.5 93.5t85.5 228.5t-85.5 228.5t-216.5 93.5q-130 0 -215.5 -93.5t-85.5 -228.5t85.5 -228.5t215.5 -93.5zM521 764h-45l-82 109l-81 -109h-45
l106 136h41z" />
    <glyph glyph-name="Otilde" unicode="&#xd5;" horiz-adv-x="789" 
d="M394 706q146 0 243 -104t97 -253t-97.5 -252.5t-242.5 -103.5t-242 103.5t-97 252.5t97 253t242 104zM394 27q131 0 216.5 93.5t85.5 228.5t-85.5 228.5t-216.5 93.5q-130 0 -215.5 -93.5t-85.5 -228.5t85.5 -228.5t215.5 -93.5zM524 844l31 -6q-19 -77 -82 -77
q-26 0 -50 17t-44.5 34t-38.5 17q-31 0 -54 -44l-28 14q34 61 88 61q30 0 69 -33.5t60 -33.5q39 0 49 51z" />
    <glyph glyph-name="Odieresis" unicode="&#xd6;" horiz-adv-x="789" 
d="M394 706q146 0 243 -104t97 -253t-97.5 -252.5t-242.5 -103.5t-242 103.5t-97 252.5t97 253t242 104zM394 27q131 0 216.5 93.5t85.5 228.5t-85.5 228.5t-216.5 93.5q-130 0 -215.5 -93.5t-85.5 -228.5t85.5 -228.5t215.5 -93.5zM462 856q11 0 19.5 -8.5t8.5 -19.5
t-8.5 -19.5t-19.5 -8.5t-19.5 8.5t-8.5 19.5t8.5 19.5t19.5 8.5zM328 856q11 0 19.5 -8.5t8.5 -19.5t-8.5 -19.5t-19.5 -8.5t-19.5 8.5t-8.5 19.5t8.5 19.5t19.5 8.5z" />
    <glyph glyph-name="multiply" unicode="&#xd7;" horiz-adv-x="448" 
d="M388 445l-139 -138l138 -140l-24 -24l-139 139l-139 -139l-25 25l139 139l-138 139l24 24l139 -139l139 139z" />
    <glyph glyph-name="Oslash" unicode="&#xd8;" horiz-adv-x="789" 
d="M641 597q93 -101 93 -248q0 -149 -97 -252.5t-242 -103.5q-129 0 -223 84l-81 -89l-25 24l81 90q-92 102 -92 247q0 149 97 253t243 104q127 0 222 -84l81 89l26 -23zM93 349q0 -129 78 -220l422 466q-82 76 -198 76q-131 0 -216.5 -93.5t-85.5 -228.5zM395 27
q130 0 216 93.5t86 228.5q0 129 -80 222l-422 -467q83 -77 200 -77z" />
    <glyph glyph-name="Ugrave" unicode="&#xd9;" horiz-adv-x="715" 
d="M580 700h35v-418q0 -133 -68 -211t-190 -78t-189.5 77t-67.5 212v418h35v-418q0 -120 59 -187.5t163 -67.5t163.5 67.5t59.5 187.5v418zM300 900l78 -136h-21l-99 136h42z" />
    <glyph glyph-name="Uacute" unicode="&#xda;" horiz-adv-x="715" 
d="M580 700h35v-418q0 -133 -68 -211t-190 -78t-189.5 77t-67.5 212v418h35v-418q0 -120 59 -187.5t163 -67.5t163.5 67.5t59.5 187.5v418zM425 900h43l-99 -136h-21z" />
    <glyph glyph-name="Ucircumflex" unicode="&#xdb;" horiz-adv-x="715" 
d="M580 700h35v-418q0 -133 -68 -211t-190 -78t-189.5 77t-67.5 212v418h35v-418q0 -120 59 -187.5t163 -67.5t163.5 67.5t59.5 187.5v418zM484 764h-45l-82 109l-81 -109h-45l106 136h41z" />
    <glyph glyph-name="Udieresis" unicode="&#xdc;" horiz-adv-x="715" 
d="M580 700h35v-418q0 -133 -68 -211t-190 -78t-189.5 77t-67.5 212v418h35v-418q0 -120 59 -187.5t163 -67.5t163.5 67.5t59.5 187.5v418zM425 856q11 0 19.5 -8.5t8.5 -19.5t-8.5 -19.5t-19.5 -8.5t-19.5 8.5t-8.5 19.5t8.5 19.5t19.5 8.5zM291 856q11 0 19.5 -8.5
t8.5 -19.5t-8.5 -19.5t-19.5 -8.5t-19.5 8.5t-8.5 19.5t8.5 19.5t19.5 8.5z" />
    <glyph glyph-name="Yacute" unicode="&#xdd;" horiz-adv-x="599" 
d="M579 700l-262 -467v-233h-34v232l-263 468h40l240 -427l239 427h40zM377 900h43l-99 -136h-21z" />
    <glyph glyph-name="Thorn" unicode="&#xde;" horiz-adv-x="619" 
d="M351 564q97 0 162.5 -59.5t65.5 -154.5q0 -96 -64.5 -155t-163.5 -59h-217v-136h-34v700h34v-136h217zM351 171q82 0 136.5 48.5t54.5 130.5t-53.5 130.5t-137.5 48.5h-217v-358h217z" />
    <glyph glyph-name="germandbls" unicode="&#xdf;" horiz-adv-x="532" 
d="M339 381q72 -21 107.5 -71t35.5 -107q0 -88 -60.5 -149t-162.5 -61h-11v34h11q82 0 135.5 50.5t53.5 125.5q0 72 -52 115.5t-137 43.5h-11v35h11q70 0 106 40t36 99t-35 97t-101 38q-70 0 -110 -52.5t-40 -158.5v-460h-35v463q0 114 47.5 178.5t137.5 64.5
q84 0 127.5 -51.5t43.5 -118.5q0 -52 -24.5 -93.5t-72.5 -61.5z" />
    <glyph glyph-name="agrave" unicode="&#xe0;" horiz-adv-x="500" 
d="M252 489q29 0 56.5 -8t53.5 -25.5t42 -52.5t16 -82v-321h-34v99q-69 -106 -197 -106q-37 0 -68.5 10t-56 38t-24.5 71q0 64 47 97t131 53q13 3 34.5 7.5t34 7t30 7t28 9t21 11t15 14t4.5 17.5q0 53 -33 86.5t-100 33.5q-64 0 -102.5 -30t-50.5 -80l-34 8q35 136 187 136z
M386 201v64q-15 -3 -68.5 -16.5t-91.5 -20.5q-82 -17 -115.5 -43.5t-33.5 -72.5q0 -42 33 -63.5t84 -21.5q81 0 136.5 51t55.5 123zM186 700l78 -136h-21l-99 136h42z" />
    <glyph glyph-name="aacute" unicode="&#xe1;" horiz-adv-x="500" 
d="M252 489q29 0 56.5 -8t53.5 -25.5t42 -52.5t16 -82v-321h-34v99q-69 -106 -197 -106q-37 0 -68.5 10t-56 38t-24.5 71q0 64 47 97t131 53q13 3 34.5 7.5t34 7t30 7t28 9t21 11t15 14t4.5 17.5q0 53 -33 86.5t-100 33.5q-64 0 -102.5 -30t-50.5 -80l-34 8q35 136 187 136z
M386 201v64q-15 -3 -68.5 -16.5t-91.5 -20.5q-82 -17 -115.5 -43.5t-33.5 -72.5q0 -42 33 -63.5t84 -21.5q81 0 136.5 51t55.5 123zM307 700h43l-99 -136h-21z" />
    <glyph glyph-name="acircumflex" unicode="&#xe2;" horiz-adv-x="500" 
d="M252 489q29 0 56.5 -8t53.5 -25.5t42 -52.5t16 -82v-321h-34v99q-69 -106 -197 -106q-37 0 -68.5 10t-56 38t-24.5 71q0 64 47 97t131 53q13 3 34.5 7.5t34 7t30 7t28 9t21 11t15 14t4.5 17.5q0 53 -33 86.5t-100 33.5q-64 0 -102.5 -30t-50.5 -80l-34 8q35 136 187 136z
M386 201v64q-15 -3 -68.5 -16.5t-91.5 -20.5q-82 -17 -115.5 -43.5t-33.5 -72.5q0 -42 33 -63.5t84 -21.5q81 0 136.5 51t55.5 123zM378 564h-45l-82 109l-81 -109h-45l106 136h41z" />
    <glyph glyph-name="atilde" unicode="&#xe3;" horiz-adv-x="500" 
d="M252 489q29 0 56.5 -8t53.5 -25.5t42 -52.5t16 -82v-321h-34v99q-69 -106 -197 -106q-37 0 -68.5 10t-56 38t-24.5 71q0 64 47 97t131 53q13 3 34.5 7.5t34 7t30 7t28 9t21 11t15 14t4.5 17.5q0 53 -33 86.5t-100 33.5q-64 0 -102.5 -30t-50.5 -80l-34 8q35 136 187 136z
M386 201v64q-15 -3 -68.5 -16.5t-91.5 -20.5q-82 -17 -115.5 -43.5t-33.5 -72.5q0 -42 33 -63.5t84 -21.5q81 0 136.5 51t55.5 123zM364 644l31 -6q-19 -77 -82 -77q-26 0 -50 17t-44.5 34t-38.5 17q-31 0 -54 -44l-28 14q34 61 88 61q30 0 69 -33.5t60 -33.5q39 0 49 51z
" />
    <glyph glyph-name="adieresis" unicode="&#xe4;" horiz-adv-x="500" 
d="M252 489q29 0 56.5 -8t53.5 -25.5t42 -52.5t16 -82v-321h-34v99q-69 -106 -197 -106q-37 0 -68.5 10t-56 38t-24.5 71q0 64 47 97t131 53q13 3 34.5 7.5t34 7t30 7t28 9t21 11t15 14t4.5 17.5q0 53 -33 86.5t-100 33.5q-64 0 -102.5 -30t-50.5 -80l-34 8q35 136 187 136z
M386 201v64q-15 -3 -68.5 -16.5t-91.5 -20.5q-82 -17 -115.5 -43.5t-33.5 -72.5q0 -42 33 -63.5t84 -21.5q81 0 136.5 51t55.5 123zM314 656q11 0 19.5 -8.5t8.5 -19.5t-8.5 -19.5t-19.5 -8.5t-19.5 8.5t-8.5 19.5t8.5 19.5t19.5 8.5zM180 656q11 0 19.5 -8.5t8.5 -19.5
t-8.5 -19.5t-19.5 -8.5t-19.5 8.5t-8.5 19.5t8.5 19.5t19.5 8.5z" />
    <glyph glyph-name="aring" unicode="&#xe5;" horiz-adv-x="500" 
d="M252 489q29 0 56.5 -8t53.5 -25.5t42 -52.5t16 -82v-321h-34v99q-69 -106 -197 -106q-37 0 -68.5 10t-56 38t-24.5 71q0 64 47 97t131 53q13 3 34.5 7.5t34 7t30 7t28 9t21 11t15 14t4.5 17.5q0 53 -33 86.5t-100 33.5q-64 0 -102.5 -30t-50.5 -80l-34 8q35 136 187 136z
M386 201v64q-15 -3 -68.5 -16.5t-91.5 -20.5q-82 -17 -115.5 -43.5t-33.5 -72.5q0 -42 33 -63.5t84 -21.5q81 0 136.5 51t55.5 123zM250 733q38 0 64.5 -26.5t26.5 -64.5t-26.5 -64.5t-64.5 -26.5t-64.5 26.5t-26.5 64.5t26.5 64.5t64.5 26.5zM250 580q26 0 44.5 18t18.5 44
t-18.5 44t-44.5 18t-44 -18t-18 -44t18 -44t44 -18z" />
    <glyph glyph-name="ae" unicode="&#xe6;" horiz-adv-x="897" 
d="M837 241q0 -18 -1 -26h-405q8 -82 60.5 -135t132.5 -53q109 0 164 95l32 -16q-30 -52 -81 -82.5t-115 -30.5q-74 0 -130.5 40t-82.5 107q-6 -19 -19 -41q-25 -40 -77.5 -73t-125.5 -33q-59 0 -104 28t-45 90q0 65 47.5 98t131.5 52q15 3 47.5 10t48.5 11.5t37 12t30 17.5
t9 23q0 52 -34 85.5t-102 33.5q-65 0 -106 -30.5t-53 -78.5l-34 8q15 55 61 95.5t132 40.5q56 0 104.5 -29t62.5 -94q29 57 82 90t120 33q99 0 156 -70.5t57 -177.5zM624 454q-84 0 -137.5 -58.5t-56.5 -145.5h369q-2 90 -47 147t-128 57zM392 201v64q-13 -3 -70 -16.5
t-96 -20.5q-82 -17 -115.5 -44t-33.5 -73q0 -41 33 -62.5t84 -21.5q82 0 140 51t58 123z" />
    <glyph glyph-name="ccedilla" unicode="&#xe7;" horiz-adv-x="533" 
d="M282 28q110 0 164 95l32 -16q-28 -50 -75 -80t-107 -34l-24 -48q43 5 66 -16t23 -53q0 -47 -40 -69q-58 -33 -128 12l12 22q33 -22 69.5 -21t53.5 27q15 23 6 47.5t-34 29.5q-28 7 -47 -6l-16 12l31 63q-96 5 -157 76t-61 172q0 105 65.5 177t166.5 72q64 0 115 -31
t81 -83l-32 -16q-55 95 -164 95q-87 0 -140.5 -61.5t-53.5 -152.5t53.5 -152t140.5 -61z" />
    <glyph glyph-name="egrave" unicode="&#xe8;" 
d="M485 241q0 -17 -1 -26h-405q8 -82 60.5 -135t132.5 -53q109 0 164 96l32 -16q-30 -53 -81 -83.5t-115 -30.5q-101 0 -166.5 72t-65.5 176t65.5 176t166.5 72q99 0 156 -70.5t57 -177.5zM272 455q-84 0 -137.5 -58.5t-56.5 -146.5h369q-2 90 -47 147.5t-128 57.5zM205 700
l78 -136h-21l-99 136h42z" />
    <glyph glyph-name="eacute" unicode="&#xe9;" 
d="M485 241q0 -17 -1 -26h-405q8 -82 60.5 -135t132.5 -53q109 0 164 96l32 -16q-30 -53 -81 -83.5t-115 -30.5q-101 0 -166.5 72t-65.5 176t65.5 176t166.5 72q99 0 156 -70.5t57 -177.5zM272 455q-84 0 -137.5 -58.5t-56.5 -146.5h369q-2 90 -47 147.5t-128 57.5zM340 700
h43l-99 -136h-21z" />
    <glyph glyph-name="ecircumflex" unicode="&#xea;" 
d="M485 241q0 -17 -1 -26h-405q8 -82 60.5 -135t132.5 -53q109 0 164 96l32 -16q-30 -53 -81 -83.5t-115 -30.5q-101 0 -166.5 72t-65.5 176t65.5 176t166.5 72q99 0 156 -70.5t57 -177.5zM272 455q-84 0 -137.5 -58.5t-56.5 -146.5h369q-2 90 -47 147.5t-128 57.5zM399 564
h-45l-82 109l-81 -109h-45l106 136h41z" />
    <glyph glyph-name="edieresis" unicode="&#xeb;" 
d="M485 241q0 -17 -1 -26h-405q8 -82 60.5 -135t132.5 -53q109 0 164 96l32 -16q-30 -53 -81 -83.5t-115 -30.5q-101 0 -166.5 72t-65.5 176t65.5 176t166.5 72q99 0 156 -70.5t57 -177.5zM272 455q-84 0 -137.5 -58.5t-56.5 -146.5h369q-2 90 -47 147.5t-128 57.5zM340 656
q11 0 19.5 -8.5t8.5 -19.5t-8.5 -19.5t-19.5 -8.5t-19.5 8.5t-8.5 19.5t8.5 19.5t19.5 8.5zM206 656q11 0 19.5 -8.5t8.5 -19.5t-8.5 -19.5t-19.5 -8.5t-19.5 8.5t-8.5 19.5t8.5 19.5t19.5 8.5z" />
    <glyph glyph-name="igrave" unicode="&#xec;" horiz-adv-x="220" 
d="M90 0v482h35v-482h-35zM30 700l78 -136h-21l-99 136h42z" />
    <glyph glyph-name="iacute" unicode="&#xed;" horiz-adv-x="220" 
d="M90 0v482h35v-482h-35zM175 700h43l-99 -136h-21z" />
    <glyph glyph-name="icircumflex" unicode="&#xee;" horiz-adv-x="220" 
d="M91 0v482h35v-482h-35zM235 564h-45l-82 109l-81 -109h-45l106 136h41z" />
    <glyph glyph-name="idieresis" unicode="&#xef;" horiz-adv-x="220" 
d="M92 0v482h35v-482h-35zM177 646q11 0 19.5 -8.5t8.5 -19.5t-8.5 -19.5t-19.5 -8.5t-19.5 8.5t-8.5 19.5t8.5 19.5t19.5 8.5zM43 646q11 0 19.5 -8.5t8.5 -19.5t-8.5 -19.5t-19.5 -8.5t-19.5 8.5t-8.5 19.5t8.5 19.5t19.5 8.5z" />
    <glyph glyph-name="eth" unicode="&#xf0;" horiz-adv-x="588" 
d="M332 693q106 -74 155.5 -190.5t40 -226.5t-63.5 -188q-29 -42 -75 -68.5t-102 -26.5q-102 0 -169.5 72t-67.5 176q0 105 65 176.5t166 71.5q81 0 139 -48t77 -124q-3 68 -22.5 128t-48.5 103t-58.5 72t-59.5 48l-109 -110l-24 24l102 104q-68 36 -143 48l6 35
q90 -17 162 -57l88 90l25 -25zM287 27q86 0 136 61t50 153q0 97 -52 155t-140 58q-87 0 -140.5 -61t-53.5 -152q0 -90 56.5 -152t143.5 -62z" />
    <glyph glyph-name="ntilde" unicode="&#xf1;" horiz-adv-x="540" 
d="M273 489q88 0 137.5 -58t49.5 -157v-274h-35v274q0 81 -40 131t-112 50q-69 0 -114 -53.5t-45 -139.5v-262h-34v482h34v-98q52 105 159 105zM390 644l31 -6q-19 -77 -82 -77q-26 0 -50 17t-44.5 34t-38.5 17q-31 0 -54 -44l-28 14q34 61 88 61q30 0 69 -33.5t60 -33.5
q39 0 49 51z" />
    <glyph glyph-name="ograve" unicode="&#xf2;" horiz-adv-x="568" 
d="M282 489q101 0 166 -71.5t65 -176.5t-65 -176.5t-166 -71.5t-166.5 72t-65.5 176t65.5 176t166.5 72zM282 27q87 0 140 61.5t53 152.5t-53 152.5t-140 61.5t-140.5 -61.5t-53.5 -152.5t53.5 -152.5t140.5 -61.5zM214 700l78 -136h-21l-99 136h42z" />
    <glyph glyph-name="oacute" unicode="&#xf3;" horiz-adv-x="568" 
d="M282 489q101 0 166 -71.5t65 -176.5t-65 -176.5t-166 -71.5t-166.5 72t-65.5 176t65.5 176t166.5 72zM282 27q87 0 140 61.5t53 152.5t-53 152.5t-140 61.5t-140.5 -61.5t-53.5 -152.5t53.5 -152.5t140.5 -61.5zM349 700h43l-99 -136h-21z" />
    <glyph glyph-name="ocircumflex" unicode="&#xf4;" horiz-adv-x="568" 
d="M282 489q101 0 166 -71.5t65 -176.5t-65 -176.5t-166 -71.5t-166.5 72t-65.5 176t65.5 176t166.5 72zM282 27q87 0 140 61.5t53 152.5t-53 152.5t-140 61.5t-140.5 -61.5t-53.5 -152.5t53.5 -152.5t140.5 -61.5zM408 564h-45l-82 109l-81 -109h-45l106 136h41z" />
    <glyph glyph-name="otilde" unicode="&#xf5;" horiz-adv-x="568" 
d="M282 489q101 0 166 -71.5t65 -176.5t-65 -176.5t-166 -71.5t-166.5 72t-65.5 176t65.5 176t166.5 72zM282 27q87 0 140 61.5t53 152.5t-53 152.5t-140 61.5t-140.5 -61.5t-53.5 -152.5t53.5 -152.5t140.5 -61.5zM401 644l31 -6q-19 -77 -82 -77q-26 0 -50 17t-44.5 34
t-38.5 17q-31 0 -54 -44l-28 14q34 61 88 61q31 0 69 -33.5t60 -33.5q39 0 49 51z" />
    <glyph glyph-name="odieresis" unicode="&#xf6;" horiz-adv-x="568" 
d="M282 489q101 0 166 -71.5t65 -176.5t-65 -176.5t-166 -71.5t-166.5 72t-65.5 176t65.5 176t166.5 72zM282 27q87 0 140 61.5t53 152.5t-53 152.5t-140 61.5t-140.5 -61.5t-53.5 -152.5t53.5 -152.5t140.5 -61.5zM349 656q11 0 19.5 -8.5t8.5 -19.5t-8.5 -19.5t-19.5 -8.5
t-19.5 8.5t-8.5 19.5t8.5 19.5t19.5 8.5zM215 656q11 0 19.5 -8.5t8.5 -19.5t-8.5 -19.5t-19.5 -8.5t-19.5 8.5t-8.5 19.5t8.5 19.5t19.5 8.5z" />
    <glyph glyph-name="divide" unicode="&#xf7;" horiz-adv-x="508" 
d="M60 324h388v-35h-388v35zM254 449q-11 0 -19 8.5t-8 19.5t8 19.5t19 8.5q12 0 20 -8.5t8 -19.5t-8 -19.5t-20 -8.5zM254 164q12 0 20 -8t8 -20q0 -11 -8 -19.5t-20 -8.5q-11 0 -19 8.5t-8 19.5q0 12 8 20t19 8z" />
    <glyph glyph-name="oslash" unicode="&#xf8;" horiz-adv-x="567" 
d="M455 408q57 -70 57 -167q0 -105 -65 -176.5t-166 -71.5q-88 0 -150 56l-55 -61l-26 24l57 62q-57 68 -57 167q0 105 65 176.5t166 71.5q88 0 150 -56l55 60l25 -23zM87 241q0 -82 44 -140l276 306q-50 47 -126 47q-87 0 -140.5 -61t-53.5 -152zM281 27q87 0 140 61.5
t53 152.5q0 82 -43 140l-277 -306q53 -48 127 -48z" />
    <glyph glyph-name="ugrave" unicode="&#xf9;" horiz-adv-x="531" 
d="M416 482h35v-482h-35v91q-55 -98 -159 -98q-88 0 -137.5 58.5t-49.5 157.5v273h35v-273q0 -81 40 -131t112 -50q68 0 113.5 51.5t45.5 130.5v272zM203 700l78 -136h-21l-99 136h42z" />
    <glyph glyph-name="uacute" unicode="&#xfa;" horiz-adv-x="531" 
d="M416 482h35v-482h-35v91q-55 -98 -159 -98q-88 0 -137.5 58.5t-49.5 157.5v273h35v-273q0 -81 40 -131t112 -50q68 0 113.5 51.5t45.5 130.5v272zM328 700h43l-99 -136h-21z" />
    <glyph glyph-name="ucircumflex" unicode="&#xfb;" horiz-adv-x="531" 
d="M416 482h35v-482h-35v91q-55 -98 -159 -98q-88 0 -137.5 58.5t-49.5 157.5v273h35v-273q0 -81 40 -131t112 -50q68 0 113.5 51.5t45.5 130.5v272zM397 564h-45l-82 109l-81 -109h-45l106 136h41z" />
    <glyph glyph-name="udieresis" unicode="&#xfc;" horiz-adv-x="531" 
d="M416 482h35v-482h-35v91q-55 -98 -159 -98q-88 0 -137.5 58.5t-49.5 157.5v273h35v-273q0 -81 40 -131t112 -50q68 0 113.5 51.5t45.5 130.5v272zM338 656q11 0 19.5 -8.5t8.5 -19.5t-8.5 -19.5t-19.5 -8.5t-19.5 8.5t-8.5 19.5t8.5 19.5t19.5 8.5zM204 656
q11 0 19.5 -8.5t8.5 -19.5t-8.5 -19.5t-19.5 -8.5t-19.5 8.5t-8.5 19.5t8.5 19.5t19.5 8.5z" />
    <glyph glyph-name="yacute" unicode="&#xfd;" horiz-adv-x="445" 
d="M386 482h37l-182 -482q-25 -67 -39.5 -98t-35.5 -54q-21 -25 -47.5 -34.5t-41.5 -8.5t-42 6l6 34q61 -12 91.5 18.5t71.5 136.5l-182 482h37l164 -433zM300 700h43l-99 -136h-21z" />
    <glyph glyph-name="thorn" unicode="&#xfe;" horiz-adv-x="586" 
d="M306 489q101 0 163 -71.5t62 -176.5t-62 -176.5t-163 -71.5q-66 0 -115 31.5t-76 86.5v-329h-35v918h35v-329q27 55 76 86.5t115 31.5zM306 27q86 0 137 61.5t51 152.5t-51 152t-137 61t-137 -61t-51 -152t51 -152.5t137 -61.5z" />
    <glyph glyph-name="ydieresis" unicode="&#xff;" horiz-adv-x="445" 
d="M386 482h37l-182 -482q-25 -67 -39.5 -98t-35.5 -54q-21 -25 -47.5 -34.5t-41.5 -8.5t-42 6l6 34q61 -12 91.5 18.5t71.5 136.5l-182 482h37l164 -433zM300 656q11 0 19.5 -8.5t8.5 -19.5t-8.5 -19.5t-19.5 -8.5t-19.5 8.5t-8.5 19.5t8.5 19.5t19.5 8.5zM166 656
q11 0 19.5 -8.5t8.5 -19.5t-8.5 -19.5t-19.5 -8.5t-19.5 8.5t-8.5 19.5t8.5 19.5t19.5 8.5z" />
    <glyph glyph-name="Amacron" unicode="&#x100;" horiz-adv-x="652" 
d="M575 0l-86 222h-326l-86 -222h-37l270 700h32l270 -700h-37zM176 256h300l-150 388zM201 868h250v-34h-250v34z" />
    <glyph glyph-name="amacron" unicode="&#x101;" horiz-adv-x="500" 
d="M252 489q29 0 56.5 -8t53.5 -25.5t42 -52.5t16 -82v-321h-34v99q-69 -106 -197 -106q-37 0 -68.5 10t-56 38t-24.5 71q0 64 47 97t131 53q13 3 34.5 7.5t34 7t30 7t28 9t21 11t15 14t4.5 17.5q0 53 -33 86.5t-100 33.5q-64 0 -102.5 -30t-50.5 -80l-34 8q35 136 187 136z
M386 201v64q-15 -3 -68.5 -16.5t-91.5 -20.5q-82 -17 -115.5 -43.5t-33.5 -72.5q0 -42 33 -63.5t84 -21.5q81 0 136.5 51t55.5 123zM125 668h250v-34h-250v34z" />
    <glyph glyph-name="Abreve" unicode="&#x102;" horiz-adv-x="652" 
d="M575 0l-86 222h-326l-86 -222h-37l270 700h32l270 -700h-37zM176 256h300l-150 388zM400 879h29q0 -49 -27.5 -80.5t-74.5 -31.5q-48 0 -75.5 31.5t-27.5 80.5h29q0 -36 21 -59.5t53 -23.5q33 0 53 23t20 60z" />
    <glyph glyph-name="abreve" unicode="&#x103;" horiz-adv-x="500" 
d="M252 489q29 0 56.5 -8t53.5 -25.5t42 -52.5t16 -82v-321h-34v99q-69 -106 -197 -106q-37 0 -68.5 10t-56 38t-24.5 71q0 64 47 97t131 53q13 3 34.5 7.5t34 7t30 7t28 9t21 11t15 14t4.5 17.5q0 53 -33 86.5t-100 33.5q-64 0 -102.5 -30t-50.5 -80l-34 8q35 136 187 136z
M386 201v64q-15 -3 -68.5 -16.5t-91.5 -20.5q-82 -17 -115.5 -43.5t-33.5 -72.5q0 -42 33 -63.5t84 -21.5q81 0 136.5 51t55.5 123zM328 679h29q0 -49 -27.5 -80.5t-74.5 -31.5q-48 0 -75.5 31.5t-27.5 80.5h29q0 -36 21 -59.5t53 -23.5q33 0 53 23t20 60z" />
    <glyph glyph-name="Aogonek" unicode="&#x104;" horiz-adv-x="642" 
d="M631 -153v-41q-26 -8 -47 -8q-38 0 -65 24.5t-23 64.5q3 36 30 67t52 46h-3l-86 222h-326l-86 -222h-37l270 700h32l270 -700h-3q-33 -18 -60.5 -53t-24.5 -66q4 -36 38 -46t69 12zM176 257h300l-150 388z" />
    <glyph glyph-name="aogonek" unicode="&#x105;" horiz-adv-x="500" 
d="M440 -153v-41q-24 -8 -46 -8q-39 0 -65.5 24.5t-22.5 64.5q3 36 29.5 67t51.5 46h-1v100q-68 -107 -197 -107q-37 0 -68.5 10t-56 38t-24.5 71q0 64 47 97t131 53q13 3 34.5 7.5t34 7t30 7t28 9t21 11t15 14t4.5 17.5q0 53 -33 86.5t-100 33.5q-64 0 -102.5 -30
t-50.5 -80l-34 8q35 137 187 137q29 0 56.5 -8t53.5 -26t42 -53t16 -82v-321h-1q-34 -18 -61 -53t-24 -66q4 -36 37.5 -46t68.5 12zM386 201v65q-2 -1 -61 -15.5t-99 -22.5q-82 -16 -115.5 -43t-33.5 -73q0 -41 33 -62.5t84 -21.5q82 0 137 49.5t55 123.5z" />
    <glyph glyph-name="Cacute" unicode="&#x106;" horiz-adv-x="757" 
d="M404 29q82 0 149 38.5t107 105.5l32 -15q-45 -76 -120.5 -120t-167.5 -44q-145 0 -242 103.5t-97 252.5t97 252.5t242 103.5q92 0 167.5 -44t120.5 -120l-32 -15q-40 67 -107 105.5t-149 38.5q-130 0 -215.5 -93t-86.5 -228q1 -135 86.5 -228t215.5 -93zM455 900h43
l-99 -136h-21z" />
    <glyph glyph-name="cacute" unicode="&#x107;" horiz-adv-x="533" 
d="M281 27q109 0 164 96l33 -16q-31 -53 -82 -83.5t-115 -30.5q-101 0 -166 71.5t-65 176.5t65 176.5t166 71.5q64 0 115 -30.5t82 -83.5l-33 -15q-55 95 -164 95q-87 0 -140.5 -61.5t-53.5 -152.5t53.5 -152.5t140.5 -61.5zM341 700h43l-99 -136h-21z" />
    <glyph glyph-name="Ccircumflex" unicode="&#x108;" horiz-adv-x="757" 
d="M404 29q82 0 149 38.5t107 105.5l32 -15q-45 -76 -120.5 -120t-167.5 -44q-145 0 -242 103.5t-97 252.5t97 252.5t242 103.5q92 0 167.5 -44t120.5 -120l-32 -15q-40 67 -107 105.5t-149 38.5q-130 0 -215.5 -93t-86.5 -228q1 -135 86.5 -228t215.5 -93zM531 764h-45
l-82 109l-81 -109h-45l106 136h41z" />
    <glyph glyph-name="ccircumflex" unicode="&#x109;" horiz-adv-x="533" 
d="M281 27q109 0 164 96l33 -16q-31 -53 -82 -83.5t-115 -30.5q-101 0 -166 71.5t-65 176.5t65 176.5t166 71.5q64 0 115 -30.5t82 -83.5l-33 -15q-55 95 -164 95q-87 0 -140.5 -61.5t-53.5 -152.5t53.5 -152.5t140.5 -61.5zM411 564h-45l-82 109l-81 -109h-45l106 136h41z
" />
    <glyph glyph-name="Cdotaccent" unicode="&#x10a;" horiz-adv-x="757" 
d="M404 29q82 0 149 38.5t107 105.5l32 -15q-45 -76 -120.5 -120t-167.5 -44q-145 0 -242 103.5t-97 252.5t97 252.5t242 103.5q92 0 167.5 -44t120.5 -120l-32 -15q-40 67 -107 105.5t-149 38.5q-130 0 -215.5 -93t-86.5 -228q1 -135 86.5 -228t215.5 -93zM410 856
q12 0 20 -8.5t8 -19.5t-8 -19.5t-20 -8.5q-11 0 -19 8.5t-8 19.5t8 19.5t19 8.5z" />
    <glyph glyph-name="cdotaccent" unicode="&#x10b;" horiz-adv-x="533" 
d="M281 27q109 0 164 96l33 -16q-31 -53 -82 -83.5t-115 -30.5q-101 0 -166 71.5t-65 176.5t65 176.5t166 71.5q64 0 115 -30.5t82 -83.5l-33 -15q-55 95 -164 95q-87 0 -140.5 -61.5t-53.5 -152.5t53.5 -152.5t140.5 -61.5zM284 656q12 0 20 -8.5t8 -19.5t-8 -19.5
t-20 -8.5q-11 0 -19 8.5t-8 19.5t8 19.5t19 8.5z" />
    <glyph glyph-name="Ccaron" unicode="&#x10c;" horiz-adv-x="757" 
d="M404 29q82 0 149 38.5t107 105.5l32 -15q-45 -76 -120.5 -120t-167.5 -44q-145 0 -242 103.5t-97 252.5t97 252.5t242 103.5q92 0 167.5 -44t120.5 -120l-32 -15q-40 67 -107 105.5t-149 38.5q-130 0 -215.5 -93t-86.5 -228q1 -135 86.5 -228t215.5 -93zM480 900h45
l-106 -136h-41l-106 136h45l81 -109z" />
    <glyph glyph-name="ccaron" unicode="&#x10d;" horiz-adv-x="533" 
d="M281 27q109 0 164 96l33 -16q-31 -53 -82 -83.5t-115 -30.5q-101 0 -166 71.5t-65 176.5t65 176.5t166 71.5q64 0 115 -30.5t82 -83.5l-33 -15q-55 95 -164 95q-87 0 -140.5 -61.5t-53.5 -152.5t53.5 -152.5t140.5 -61.5zM366 700h45l-106 -136h-41l-106 136h45l81 -109z
" />
    <glyph glyph-name="Dcaron" unicode="&#x10e;" horiz-adv-x="738" 
d="M296 700q162 0 264.5 -92.5t102.5 -257.5t-102.5 -257.5t-264.5 -92.5h-196v700h196zM296 35q142 0 234 83.5t92 231.5t-91 231.5t-235 83.5h-161v-630h161zM420 900h45l-106 -136h-41l-106 136h45l81 -109z" />
    <glyph glyph-name="dcaron" unicode="&#x10f;" horiz-adv-x="609" 
d="M467 700h35v-700h-35v111q-27 -55 -76.5 -86.5t-114.5 -31.5q-101 0 -163.5 71.5t-62.5 176.5t62.5 176.5t163.5 71.5q65 0 114.5 -31.5t76.5 -86.5v329zM276 27q86 0 137 61.5t51 152.5t-51 152.5t-137 61.5t-137 -61.5t-51 -152.5t51 -152.5t137 -61.5zM579 532l46 168
h44l-70 -168h-20z" />
    <glyph glyph-name="Dcroat" unicode="&#x110;" horiz-adv-x="757" 
d="M315 700q162 0 264.5 -92.5t102.5 -257.5t-102.5 -257.5t-264.5 -92.5h-195v333h-90v34h90v333h195zM315 35q142 0 235.5 84t93.5 231q0 148 -92.5 231.5t-236.5 83.5h-161v-298h206v-34h-206v-298h161z" />
    <glyph glyph-name="dcroat" unicode="&#x111;" horiz-adv-x="599" 
d="M599 607v-35h-97v-572h-35v111q-27 -55 -76.5 -86.5t-114.5 -31.5q-101 0 -163.5 71.5t-62.5 176.5t62.5 176.5t163.5 71.5q65 0 114.5 -31.5t76.5 -86.5v201h-144v35h144v93h35v-93h97zM276 27q86 0 137 61.5t51 152.5t-51 152t-137 61t-137 -61t-51 -152t51 -152.5
t137 -61.5z" />
    <glyph glyph-name="Emacron" unicode="&#x112;" horiz-adv-x="639" 
d="M134 35h431v-35h-465v700h459v-35h-425v-298h394v-34h-394v-298zM207 868h250v-34h-250v34z" />
    <glyph glyph-name="emacron" unicode="&#x113;" 
d="M485 241q0 -17 -1 -26h-405q8 -82 60.5 -135t132.5 -53q109 0 164 96l32 -16q-30 -53 -81 -83.5t-115 -30.5q-101 0 -166.5 72t-65.5 176t65.5 176t166.5 72q99 0 156 -70.5t57 -177.5zM272 455q-84 0 -137.5 -58.5t-56.5 -146.5h369q-2 90 -47 147.5t-128 57.5zM148 668
h250v-34h-250v34z" />
    <glyph glyph-name="Ebreve" unicode="&#x114;" horiz-adv-x="639" 
d="M134 35h431v-35h-465v700h459v-35h-425v-298h394v-34h-394v-298zM406 879h29q0 -49 -27.5 -80.5t-74.5 -31.5q-48 0 -75.5 31.5t-27.5 80.5h29q0 -36 21 -59.5t53 -23.5q33 0 53 23t20 60z" />
    <glyph glyph-name="ebreve" unicode="&#x115;" 
d="M485 241q0 -17 -1 -26h-405q8 -82 60.5 -135t132.5 -53q109 0 164 96l32 -16q-30 -53 -81 -83.5t-115 -30.5q-101 0 -166.5 72t-65.5 176t65.5 176t166.5 72q99 0 156 -70.5t57 -177.5zM272 455q-84 0 -137.5 -58.5t-56.5 -146.5h369q-2 90 -47 147.5t-128 57.5zM346 679
h29q0 -49 -27.5 -80.5t-74.5 -31.5q-48 0 -75.5 31.5t-27.5 80.5h29q0 -36 21 -59.5t53 -23.5q33 0 53 23t20 60z" />
    <glyph glyph-name="Edotaccent" unicode="&#x116;" horiz-adv-x="639" 
d="M134 35h431v-35h-465v700h459v-35h-425v-298h394v-34h-394v-298zM333 856q12 0 20 -8.5t8 -19.5t-8 -19.5t-20 -8.5q-11 0 -19 8.5t-8 19.5t8 19.5t19 8.5z" />
    <glyph glyph-name="edotaccent" unicode="&#x117;" 
d="M485 241q0 -17 -1 -26h-405q8 -82 60.5 -135t132.5 -53q109 0 164 96l32 -16q-30 -53 -81 -83.5t-115 -30.5q-101 0 -166.5 72t-65.5 176t65.5 176t166.5 72q99 0 156 -70.5t57 -177.5zM272 455q-84 0 -137.5 -58.5t-56.5 -146.5h369q-2 90 -47 147.5t-128 57.5zM272 656
q12 0 20 -8.5t8 -19.5t-8 -19.5t-20 -8.5q-11 0 -19 8.5t-8 19.5t8 19.5t19 8.5z" />
    <glyph glyph-name="Eogonek" unicode="&#x118;" horiz-adv-x="639" 
d="M586 -153v-41q-24 -8 -46 -8q-39 0 -65.5 24.5t-22.5 64.5q3 36 29.5 67t51.5 46h-433v700h459v-34h-424v-298h393v-35h-393v-298h430v-35q-34 -18 -61 -53t-24 -66q4 -36 37.5 -46t68.5 12z" />
    <glyph glyph-name="eogonek" unicode="&#x119;" horiz-adv-x="544" 
d="M484 241q0 -17 -1 -26h-404q8 -81 60 -134t132 -53q110 0 164 95l33 -16q-32 -57 -88 -87q-45 -30 -72.5 -69t-25.5 -70q4 -36 38 -46t69 12v-41q-26 -8 -47 -8q-38 0 -65 24.5t-23 64.5q6 57 67 111q-27 -5 -50 -5q-101 0 -166 71.5t-65 176.5t65 177t166 72
q99 0 156 -71t57 -178zM271 455q-84 0 -137.5 -58.5t-56.5 -146.5h369q-2 90 -47 147.5t-128 57.5z" />
    <glyph glyph-name="Ecaron" unicode="&#x11a;" horiz-adv-x="639" 
d="M134 35h431v-35h-465v700h459v-35h-425v-298h394v-34h-394v-298zM414 900h45l-106 -136h-41l-106 136h45l81 -109z" />
    <glyph glyph-name="ecaron" unicode="&#x11b;" 
d="M485 241q0 -17 -1 -26h-405q8 -82 60.5 -135t132.5 -53q109 0 164 96l32 -16q-30 -53 -81 -83.5t-115 -30.5q-101 0 -166.5 72t-65.5 176t65.5 176t166.5 72q99 0 156 -70.5t57 -177.5zM272 455q-84 0 -137.5 -58.5t-56.5 -146.5h369q-2 90 -47 147.5t-128 57.5zM354 700
h45l-106 -136h-41l-106 136h45l81 -109z" />
    <glyph glyph-name="Gcircumflex" unicode="&#x11c;" horiz-adv-x="787" 
d="M418 350h284v-192q-45 -76 -120 -120t-167 -44q-145 0 -242.5 103.5t-97.5 252.5t97.5 252.5t242.5 103.5q92 0 167 -44t120 -120l-31 -15q-41 67 -107.5 105.5t-148.5 38.5q-131 0 -216.5 -93t-85.5 -228t85.5 -228t216.5 -93q79 0 145 36t107 98v152h-249v35zM535 764
h-45l-82 109l-81 -109h-45l106 136h41z" />
    <glyph glyph-name="gcircumflex" unicode="&#x11d;" horiz-adv-x="581" 
d="M466 482h35v-473q0 -107 -57 -170.5t-162 -63.5q-67 0 -120.5 32t-78.5 77l30 20q25 -38 69.5 -66t99.5 -28q91 0 137.5 55.5t46.5 149.5v96q-27 -55 -76 -86.5t-115 -31.5q-101 0 -163 71.5t-62 176.5t62 176.5t163 71.5q66 0 115 -31.5t76 -86.5v111zM275 27
q86 0 137 61.5t51 152.5t-51 152.5t-137 61.5t-137 -61.5t-51 -152.5t51 -152.5t137 -61.5zM412 564h-45l-82 109l-81 -109h-45l106 136h41z" />
    <glyph glyph-name="Gbreve" unicode="&#x11e;" horiz-adv-x="787" 
d="M418 350h284v-192q-45 -76 -120 -120t-167 -44q-145 0 -242.5 103.5t-97.5 252.5t97.5 252.5t242.5 103.5q92 0 167 -44t120 -120l-31 -15q-41 67 -107.5 105.5t-148.5 38.5q-131 0 -216.5 -93t-85.5 -228t85.5 -228t216.5 -93q79 0 145 36t107 98v152h-249v35zM482 879
h29q0 -49 -27.5 -80.5t-74.5 -31.5q-48 0 -75.5 31.5t-27.5 80.5h29q0 -36 21 -59.5t53 -23.5q33 0 53 23t20 60z" />
    <glyph glyph-name="gbreve" unicode="&#x11f;" horiz-adv-x="581" 
d="M466 482h35v-473q0 -107 -57 -170.5t-162 -63.5q-67 0 -120.5 32t-78.5 77l30 20q25 -38 69.5 -66t99.5 -28q91 0 137.5 55.5t46.5 149.5v96q-27 -55 -76 -86.5t-115 -31.5q-101 0 -163 71.5t-62 176.5t62 176.5t163 71.5q66 0 115 -31.5t76 -86.5v111zM275 27
q86 0 137 61.5t51 152.5t-51 152.5t-137 61.5t-137 -61.5t-51 -152.5t51 -152.5t137 -61.5zM359 679h29q0 -49 -27.5 -80.5t-74.5 -31.5q-48 0 -75.5 31.5t-27.5 80.5h29q0 -36 21 -59.5t53 -23.5q33 0 53 23t20 60z" />
    <glyph glyph-name="Gdotaccent" unicode="&#x120;" horiz-adv-x="787" 
d="M418 350h284v-192q-45 -76 -120 -120t-167 -44q-145 0 -242.5 103.5t-97.5 252.5t97.5 252.5t242.5 103.5q92 0 167 -44t120 -120l-31 -15q-41 67 -107.5 105.5t-148.5 38.5q-131 0 -216.5 -93t-85.5 -228t85.5 -228t216.5 -93q79 0 145 36t107 98v152h-249v35zM408 856
q12 0 20 -8.5t8 -19.5t-8 -19.5t-20 -8.5q-11 0 -19 8.5t-8 19.5t8 19.5t19 8.5z" />
    <glyph glyph-name="gdotaccent" unicode="&#x121;" horiz-adv-x="581" 
d="M466 482h35v-473q0 -107 -57 -170.5t-162 -63.5q-67 0 -120.5 32t-78.5 77l30 20q25 -38 69.5 -66t99.5 -28q91 0 137.5 55.5t46.5 149.5v96q-27 -55 -76 -86.5t-115 -31.5q-101 0 -163 71.5t-62 176.5t62 176.5t163 71.5q66 0 115 -31.5t76 -86.5v111zM275 27
q86 0 137 61.5t51 152.5t-51 152.5t-137 61.5t-137 -61.5t-51 -152.5t51 -152.5t137 -61.5zM295 656q12 0 20 -8.5t8 -19.5t-8 -19.5t-20 -8.5q-11 0 -19 8.5t-8 19.5t8 19.5t19 8.5z" />
    <glyph glyph-name="Gcommaaccent" unicode="&#x122;" horiz-adv-x="787" 
d="M378 -77h40l-54 -132h-20zM418 350h284v-192q-45 -76 -120 -120t-167 -44q-145 0 -242.5 103.5t-97.5 252.5t97.5 252.5t242.5 103.5q92 0 167 -44t120 -120l-31 -15q-41 67 -107.5 105.5t-148.5 38.5q-131 0 -216.5 -93t-85.5 -228t85.5 -228t216.5 -93q79 0 145 36
t107 98v152h-249v35z" />
    <glyph glyph-name="gcommaaccent" unicode="&#x123;" horiz-adv-x="581" 
d="M466 482h35v-473q0 -107 -57 -170.5t-162 -63.5q-67 0 -120.5 32t-78.5 77l30 20q25 -38 69.5 -66t99.5 -28q91 0 137.5 55.5t46.5 149.5v96q-27 -55 -76 -86.5t-115 -31.5q-101 0 -163 71.5t-62 176.5t62 176.5t163 71.5q66 0 115 -31.5t76 -86.5v111zM275 27
q86 0 137 61.5t51 152.5t-51 152.5t-137 61.5t-137 -61.5t-51 -152.5t51 -152.5t137 -61.5zM281 578l70 168h20l-47 -168h-43z" />
    <glyph glyph-name="Hcircumflex" unicode="&#x124;" horiz-adv-x="731" 
d="M596 700h35v-700h-35v332h-461v-332h-35v700h35v-333h461v333zM492 764h-45l-82 109l-81 -109h-45l106 136h41z" />
    <glyph glyph-name="hcircumflex" unicode="&#x125;" horiz-adv-x="541" 
d="M273 489q89 0 138.5 -58t49.5 -157v-274h-35v274q0 81 -40.5 131t-112.5 50q-68 0 -113 -53.5t-45 -139.5v-262h-35v700h35v-316q23 48 63.5 76.5t94.5 28.5zM417 765h-45l-82 109l-81 -109h-45l106 136h41z" />
    <glyph glyph-name="Hbar" unicode="&#x126;" horiz-adv-x="745" 
d="M705 555v-34h-67v-521h-35v333h-462v-333h-34v521h-67v34h67v145h34v-145h462v145h35v-145h67zM603 367v154h-462v-154h462z" />
    <glyph glyph-name="hbar" unicode="&#x127;" horiz-adv-x="552" 
d="M285 489q88 0 137.5 -58t49.5 -157v-274h-35v274q0 81 -40 131t-112 50q-69 0 -114 -53.5t-45 -139.5v-262h-34v573h-72v34h72v93h34v-93h132v-34h-132v-189q52 105 159 105z" />
    <glyph glyph-name="Itilde" unicode="&#x128;" horiz-adv-x="235" 
d="M100 700h34v-700h-34v700zM237 844l31 -6q-19 -77 -82 -77q-26 0 -50 17t-44.5 34t-38.5 17q-31 0 -54 -44l-28 14q34 61 88 61q31 0 69 -33.5t60 -33.5q39 0 49 51z" />
    <glyph glyph-name="itilde" unicode="&#x129;" horiz-adv-x="220" 
d="M93 0v482h35v-482h-35zM230 634l31 -6q-19 -77 -82 -77q-26 0 -50 17t-44.5 34t-38.5 17q-31 0 -54 -44l-28 14q34 61 88 61q30 0 69 -33.5t60 -33.5q39 0 49 51z" />
    <glyph glyph-name="Imacron" unicode="&#x12a;" horiz-adv-x="234" 
d="M100 700h34v-700h-34v700zM-8 868h250v-34h-250v34z" />
    <glyph glyph-name="imacron" unicode="&#x12b;" horiz-adv-x="220" 
d="M92 0v482h35v-482h-35zM-15 638h250v-34h-250v34z" />
    <glyph glyph-name="Ibreve" unicode="&#x12c;" horiz-adv-x="233" 
d="M99 700h34v-700h-34v700zM190 879h29q0 -49 -27.5 -80.5t-74.5 -31.5q-48 0 -75.5 31.5t-27.5 80.5h29q0 -36 21 -59.5t53 -23.5q33 0 53 23t20 60z" />
    <glyph glyph-name="ibreve" unicode="&#x12d;" horiz-adv-x="220" 
d="M90 0v482h35v-482h-35zM181 679h29q0 -49 -27.5 -80.5t-74.5 -31.5q-48 0 -75.5 31.5t-27.5 80.5h29q0 -36 21 -59.5t53 -23.5q33 0 53 23t20 60z" />
    <glyph glyph-name="Iogonek" unicode="&#x12e;" horiz-adv-x="235" 
d="M155 -153v-41q-24 -8 -46 -8q-39 0 -65.5 24.5t-22.5 64.5q3 36 29.5 67t51.5 46h-1v700h35v-700h-2q-34 -18 -61 -53t-24 -66q4 -36 37.5 -46t68.5 12z" />
    <glyph glyph-name="iogonek" unicode="&#x12f;" horiz-adv-x="220" 
d="M109 574q-12 0 -20 8.5t-8 19.5t8 19.5t20 8.5q11 0 19 -8.5t8 -19.5t-8 -19.5t-19 -8.5zM146 -153v-41q-24 -8 -46 -8q-39 0 -65.5 24.5t-23.5 64.5q3 36 30 67t52 46h-2v482h35v-482h-1q-34 -18 -61 -53t-24 -66q3 -36 37 -46t69 12z" />
    <glyph glyph-name="Idotaccent" unicode="&#x130;" horiz-adv-x="235" 
d="M100 700h34v-700h-34v700zM117 856q12 0 20 -8.5t8 -19.5t-8 -19.5t-20 -8.5q-11 0 -19 8.5t-8 19.5t8 19.5t19 8.5z" />
    <glyph glyph-name="dotlessi" unicode="&#x131;" horiz-adv-x="220" 
d="M93 0v482h35v-482h-35z" />
    <glyph glyph-name="Jcircumflex" unicode="&#x134;" horiz-adv-x="444" 
d="M319 700h35v-514q0 -89 -42.5 -141t-122.5 -52q-56 0 -98.5 21t-65.5 53l31 20q17 -24 52 -42t77 -18q66 0 100 43.5t34 116.5v513zM463 764h-45l-82 109l-81 -109h-45l106 136h41z" />
    <glyph glyph-name="jcircumflex" unicode="&#x135;" horiz-adv-x="231" 
d="M105 -89v571h34v-571q0 -59 -27.5 -97.5t-81.5 -38.5q-50 0 -85 30l21 27q28 -22 64 -22t55.5 26.5t19.5 74.5zM247 564h-45l-82 109l-81 -109h-45l106 136h41z" />
    <glyph glyph-name="Kcommaaccent" unicode="&#x136;" horiz-adv-x="642" 
d="M284 -77h40l-54 -132h-20zM554 0l-272 383l-147 -163v-220h-35v700h35v-428l387 428h47l-263 -291l291 -409h-43z" />
    <glyph glyph-name="kcommaaccent" unicode="&#x137;" horiz-adv-x="502" 
d="M429 0l-191 264l-123 -132v-132h-35v700h35v-517l278 299h47l-178 -192l210 -290h-43zM238 -77h40l-54 -132h-20z" />
    <glyph glyph-name="Lacute" unicode="&#x139;" horiz-adv-x="560" 
d="M135 35h385v-35h-420v700h35v-665zM193 900h43l-99 -136h-21z" />
    <glyph glyph-name="lacute" unicode="&#x13a;" horiz-adv-x="215" 
d="M80 750h35v-750h-35v750zM165 950h43l-99 -136h-21z" />
    <glyph glyph-name="Lcommaaccent" unicode="&#x13b;" horiz-adv-x="560" 
d="M294 -77h40l-54 -132h-20zM135 35h385v-35h-420v700h35v-665z" />
    <glyph glyph-name="lcommaaccent" unicode="&#x13c;" horiz-adv-x="215" 
d="M80 750h35v-750h-35v750zM74 -77h40l-54 -132h-20z" />
    <glyph glyph-name="Lcaron" unicode="&#x13d;" horiz-adv-x="560" 
d="M135 35h385v-35h-420v700h35v-665zM255 532l46 168h44l-70 -168h-20z" />
    <glyph glyph-name="lcaron" unicode="&#x13e;" horiz-adv-x="236" 
d="M80 750h35v-750h-35v750zM206 532l46 168h44l-70 -168h-20z" />
    <glyph glyph-name="Ldot" unicode="&#x13f;" horiz-adv-x="560" 
d="M323 377q12 0 20 -8.5t8 -19.5t-8 -19.5t-20 -8.5q-11 0 -19 8.5t-8 19.5t8 19.5t19 8.5zM135 35h385v-35h-420v700h35v-665z" />
    <glyph glyph-name="ldot" unicode="&#x140;" horiz-adv-x="317" 
d="M80 750h35v-750h-35v750zM249 261q12 0 20 -8.5t8 -19.5t-8 -19.5t-20 -8.5q-11 0 -19 8.5t-8 19.5t8 19.5t19 8.5z" />
    <glyph glyph-name="Lslash" unicode="&#x141;" horiz-adv-x="605" 
d="M179 35h386v-35h-421v260l-124 -85v42l124 85v398h35v-374l253 173v-42l-253 -173v-249z" />
    <glyph glyph-name="lslash" unicode="&#x142;" horiz-adv-x="309" 
d="M299 492v-42l-117 -80v-370h-35v346l-117 -80v42l117 80v362h35v-338z" />
    <glyph glyph-name="Nacute" unicode="&#x143;" horiz-adv-x="733" 
d="M598 700h35v-700h-32l-466 638v-638h-35v700h32l466 -640v640zM444 900h43l-99 -136h-21z" />
    <glyph glyph-name="nacute" unicode="&#x144;" horiz-adv-x="540" 
d="M273 489q88 0 137.5 -58t49.5 -157v-274h-35v274q0 81 -40 131t-112 50q-69 0 -114 -53.5t-45 -139.5v-262h-34v482h34v-98q52 105 159 105zM347 700h43l-99 -136h-21z" />
    <glyph glyph-name="Ncommaaccent" unicode="&#x145;" horiz-adv-x="733" 
d="M324 -77h40l-54 -132h-20zM598 700h35v-700h-32l-466 638v-638h-35v700h32l466 -640v640z" />
    <glyph glyph-name="ncommaaccent" unicode="&#x146;" horiz-adv-x="540" 
d="M273 489q88 0 137.5 -58t49.5 -157v-274h-35v274q0 81 -40 131t-112 50q-69 0 -114 -53.5t-45 -139.5v-262h-34v482h34v-98q52 105 159 105zM252 -77h40l-54 -132h-20z" />
    <glyph glyph-name="Ncaron" unicode="&#x147;" horiz-adv-x="733" 
d="M598 700h35v-700h-32l-466 638v-638h-35v700h32l466 -640v640zM461 900h45l-106 -136h-41l-106 136h45l81 -109z" />
    <glyph glyph-name="ncaron" unicode="&#x148;" horiz-adv-x="540" 
d="M273 489q88 0 137.5 -58t49.5 -157v-274h-35v274q0 81 -40 131t-112 50q-69 0 -114 -53.5t-45 -139.5v-262h-34v482h34v-98q52 105 159 105zM362 700h45l-106 -136h-41l-106 136h45l81 -109z" />
    <glyph glyph-name="napostrophe" unicode="&#x149;" horiz-adv-x="573" 
d="M306 489q88 0 137.5 -58t49.5 -157v-274h-35v274q0 81 -40 131t-112 50q-69 0 -114 -53.5t-45 -139.5v-262h-34v482h34v-98q52 105 159 105zM44 580h40l-54 -132h-20z" />
    <glyph glyph-name="Eng" unicode="&#x14a;" horiz-adv-x="733" 
d="M598 700h35v-700v-58q0 -57 -28 -96.5t-81 -39.5q-47 0 -86 30l22 28q29 -23 64 -23t54.5 27.5t19.5 68.5v67l-463 636v-640h-35v700h32l466 -642v642z" />
    <glyph glyph-name="eng" unicode="&#x14b;" horiz-adv-x="540" 
d="M273 489q88 0 137.5 -58t49.5 -157v-332q0 -58 -28 -97t-81 -39q-47 0 -85 30l21 28q29 -23 64 -23t55 28t20 68v337q0 80 -40.5 130t-112.5 50q-69 0 -113.5 -53t-44.5 -139v-262h-35v482h35v-98q23 48 63.5 76.5t94.5 28.5z" />
    <glyph glyph-name="Omacron" unicode="&#x14c;" horiz-adv-x="789" 
d="M394 706q146 0 243 -104t97 -253t-97.5 -252.5t-242.5 -103.5t-242 103.5t-97 252.5t97 253t242 104zM394 27q131 0 216.5 93.5t85.5 228.5t-85.5 228.5t-216.5 93.5q-130 0 -215.5 -93.5t-85.5 -228.5t85.5 -228.5t215.5 -93.5zM270 868h250v-34h-250v34z" />
    <glyph glyph-name="omacron" unicode="&#x14d;" horiz-adv-x="568" 
d="M282 489q101 0 166 -71.5t65 -176.5t-65 -176.5t-166 -71.5t-166.5 72t-65.5 176t65.5 176t166.5 72zM282 27q87 0 140 61.5t53 152.5t-53 152.5t-140 61.5t-140.5 -61.5t-53.5 -152.5t53.5 -152.5t140.5 -61.5zM157 668h250v-34h-250v34z" />
    <glyph glyph-name="Obreve" unicode="&#x14e;" horiz-adv-x="789" 
d="M394 706q146 0 243 -104t97 -253t-97.5 -252.5t-242.5 -103.5t-242 103.5t-97 252.5t97 253t242 104zM394 27q131 0 216.5 93.5t85.5 228.5t-85.5 228.5t-216.5 93.5q-130 0 -215.5 -93.5t-85.5 -228.5t85.5 -228.5t215.5 -93.5zM468 879h29q0 -49 -27.5 -80.5
t-74.5 -31.5q-48 0 -75.5 31.5t-27.5 80.5h29q0 -36 21 -59.5t53 -23.5q33 0 53 23t20 60z" />
    <glyph glyph-name="obreve" unicode="&#x14f;" horiz-adv-x="568" 
d="M282 489q101 0 166 -71.5t65 -176.5t-65 -176.5t-166 -71.5t-166.5 72t-65.5 176t65.5 176t166.5 72zM282 27q87 0 140 61.5t53 152.5t-53 152.5t-140 61.5t-140.5 -61.5t-53.5 -152.5t53.5 -152.5t140.5 -61.5zM355 679h29q0 -49 -27.5 -80.5t-74.5 -31.5
q-48 0 -75.5 31.5t-27.5 80.5h29q0 -36 21 -59.5t53 -23.5q33 0 53 23t20 60z" />
    <glyph glyph-name="Ohungarumlaut" unicode="&#x150;" horiz-adv-x="789" 
d="M394 706q146 0 243 -104t97 -253t-97.5 -252.5t-242.5 -103.5t-242 103.5t-97 252.5t97 253t242 104zM394 27q131 0 216.5 93.5t85.5 228.5t-85.5 228.5t-216.5 93.5q-130 0 -215.5 -93.5t-85.5 -228.5t85.5 -228.5t215.5 -93.5zM401 900h43l-99 -136h-21zM523 900h43
l-99 -136h-21z" />
    <glyph glyph-name="ohungarumlaut" unicode="&#x151;" horiz-adv-x="568" 
d="M282 489q101 0 166 -71.5t65 -176.5t-65 -176.5t-166 -71.5t-166.5 72t-65.5 176t65.5 176t166.5 72zM282 27q87 0 140 61.5t53 152.5t-53 152.5t-140 61.5t-140.5 -61.5t-53.5 -152.5t53.5 -152.5t140.5 -61.5zM288 700h43l-99 -136h-21zM410 700h43l-99 -136h-21z" />
    <glyph glyph-name="OE" unicode="&#x152;" horiz-adv-x="1094" 
d="M589 35h430v-35h-465v33q-72 -40 -160 -40q-145 0 -242 103.5t-97 252.5t97 253t242 104q85 0 160 -40v34h459v-35h-424v-298h393v-34h-393v-298zM394 27q89 0 160 46v552q-71 46 -160 46q-131 0 -216.5 -93.5t-85.5 -228.5t85.5 -228.5t216.5 -93.5z" />
    <glyph glyph-name="oe" unicode="&#x153;" horiz-adv-x="980" 
d="M920 241q0 -18 -1 -26h-405q8 -82 60.5 -135t132.5 -53q109 0 164 95l33 -16q-31 -52 -82 -82.5t-115 -30.5q-74 0 -130.5 40t-82.5 107q-26 -67 -82 -107t-130 -40q-102 0 -167 71.5t-65 176.5t65 176.5t167 71.5q74 0 130 -40t82 -107q26 67 82.5 107t130.5 40
q99 0 156 -70.5t57 -177.5zM707 454q-84 0 -137.5 -58.5t-56.5 -145.5h369q-2 89 -47 146.5t-128 57.5zM282 27q86 0 139.5 61.5t53.5 152.5q0 90 -53.5 151.5t-139.5 61.5q-87 0 -140.5 -61t-53.5 -152t53.5 -152.5t140.5 -61.5z" />
    <glyph glyph-name="Racute" unicode="&#x154;" horiz-adv-x="658" 
d="M593 0h-40l-156 276q-20 -4 -46 -4h-217v-272h-34v700h251q98 0 163 -59.5t65 -154.5q0 -74 -40 -127.5t-107 -74.5zM351 307q82 0 136.5 48.5t54.5 130.5t-53.5 130.5t-137.5 48.5h-217v-358h217zM384 900h43l-99 -136h-21z" />
    <glyph glyph-name="racute" unicode="&#x155;" horiz-adv-x="325" 
d="M279 490q3 0 10 -0.5t11 -0.5l-6 -35q-5 1 -15 1q-70 0 -117 -53.5t-47 -139.5v-262h-35v482h35v-101q24 49 66.5 79t97.5 30zM267 700h43l-99 -136h-21z" />
    <glyph glyph-name="Rcommaaccent" unicode="&#x156;" horiz-adv-x="658" 
d="M593 0h-40l-156 276q-20 -4 -46 -4h-217v-272h-34v700h251q98 0 163 -59.5t65 -154.5q0 -74 -40 -127.5t-107 -74.5zM351 307q82 0 136.5 48.5t54.5 130.5t-53.5 130.5t-137.5 48.5h-217v-358h217zM308 -77h40l-54 -132h-20z" />
    <glyph glyph-name="rcommaaccent" unicode="&#x157;" horiz-adv-x="325" 
d="M279 490q3 0 10 -0.5t11 -0.5l-6 -35q-5 1 -15 1q-70 0 -117 -53.5t-47 -139.5v-262h-35v482h35v-101q24 49 66.5 79t97.5 30zM72 -77h40l-54 -132h-20z" />
    <glyph glyph-name="Rcaron" unicode="&#x158;" horiz-adv-x="658" 
d="M593 0h-40l-156 276q-20 -4 -46 -4h-217v-272h-34v700h251q98 0 163 -59.5t65 -154.5q0 -74 -40 -127.5t-107 -74.5zM351 307q82 0 136.5 48.5t54.5 130.5t-53.5 130.5t-137.5 48.5h-217v-358h217zM408 900h45l-106 -136h-41l-106 136h45l81 -109z" />
    <glyph glyph-name="rcaron" unicode="&#x159;" horiz-adv-x="325" 
d="M280 490q4 0 11 -0.5t10 -0.5l-6 -35q-5 1 -15 1q-70 0 -117 -53.5t-47 -139.5v-262h-35v482h35v-101q24 49 66.5 79t97.5 30zM273 700h45l-106 -136h-41l-106 136h45l81 -109z" />
    <glyph glyph-name="Sacute" unicode="&#x15a;" horiz-adv-x="626" 
d="M295 707q89 0 157.5 -41t85.5 -115l-33 -11q-12 60 -68.5 96t-141.5 36q-86 0 -140 -43.5t-54 -113.5q0 -27 13 -48.5t30.5 -35.5t50 -26.5t57.5 -19t67 -15.5q143 -33 195 -76.5t52 -109.5q0 -31 -12 -62t-38 -61.5t-77 -49.5t-119 -19q-105 0 -176.5 45t-93.5 115
l33 11q17 -59 79.5 -97.5t157.5 -38.5q88 0 149.5 40t61.5 117q0 34 -17 60t-51.5 43.5t-68 27.5t-83.5 21q-125 27 -184.5 69t-59.5 110q0 85 64.5 138.5t163.5 53.5zM375 900h43l-99 -136h-21z" />
    <glyph glyph-name="sacute" unicode="&#x15b;" horiz-adv-x="441" 
d="M223 259q30 -8 48.5 -13.5t44 -17t40 -24.5t25 -33t10.5 -44q0 -64 -47 -99.5t-115 -35.5q-72 0 -122.5 31.5t-66.5 79.5l33 15q13 -38 52.5 -65t103.5 -27q53 0 90 26t37 75q0 37 -34.5 58t-106.5 40q-71 18 -112.5 44.5t-47.5 77.5q-7 59 35.5 101t120.5 42
q61 0 103 -30t58 -79l-32 -13q-32 87 -129 87q-62 0 -94 -30t-27 -74q4 -35 38.5 -55.5t94.5 -36.5zM283 700h43l-99 -136h-21z" />
    <glyph glyph-name="Scircumflex" unicode="&#x15c;" horiz-adv-x="626" 
d="M295 707q89 0 157.5 -41t85.5 -115l-33 -11q-12 60 -68.5 96t-141.5 36q-86 0 -140 -43.5t-54 -113.5q0 -27 13 -48.5t30.5 -35.5t50 -26.5t57.5 -19t67 -15.5q143 -33 195 -76.5t52 -109.5q0 -31 -12 -62t-38 -61.5t-77 -49.5t-119 -19q-105 0 -176.5 45t-93.5 115
l33 11q17 -59 79.5 -97.5t157.5 -38.5q88 0 149.5 40t61.5 117q0 34 -17 60t-51.5 43.5t-68 27.5t-83.5 21q-125 27 -184.5 69t-59.5 110q0 85 64.5 138.5t163.5 53.5zM445 764h-45l-82 109l-81 -109h-45l106 136h41z" />
    <glyph glyph-name="scircumflex" unicode="&#x15d;" horiz-adv-x="441" 
d="M223 259q30 -8 48.5 -13.5t44 -17t40 -24.5t25 -33t10.5 -44q0 -64 -47 -99.5t-115 -35.5q-72 0 -122.5 31.5t-66.5 79.5l33 15q13 -38 52.5 -65t103.5 -27q53 0 90 26t37 75q0 37 -34.5 58t-106.5 40q-71 18 -112.5 44.5t-47.5 77.5q-7 59 35.5 101t120.5 42
q61 0 103 -30t58 -79l-32 -13q-32 87 -129 87q-62 0 -94 -30t-27 -74q4 -35 38.5 -55.5t94.5 -36.5zM352 564h-45l-82 109l-81 -109h-45l106 136h41z" />
    <glyph glyph-name="Scedilla" unicode="&#x15e;" horiz-adv-x="627" 
d="M567 184q0 -30 -11.5 -60.5t-37 -61t-75 -50t-116.5 -20.5l-24 -47q43 5 66 -16t23 -53q0 -46 -39 -69q-57 -33 -129 12l13 22q33 -22 69.5 -21t53.5 27q15 23 6 47.5t-34 29.5q-28 7 -47 -6l-16 12l31 63q-97 4 -163 48.5t-87 110.5l33 11q18 -59 80.5 -97.5
t156.5 -38.5q88 0 150 40t62 117q0 34 -17.5 60t-51.5 43.5t-68 27.5t-84 21q-125 27 -184.5 69t-59.5 110q0 85 64.5 138.5t163.5 53.5q89 0 158 -41t85 -115l-33 -11q-12 60 -68 96t-142 36t-139.5 -43.5t-53.5 -113.5q0 -27 13 -48.5t30 -35t50.5 -26t57 -19t66.5 -16.5
q98 -22 154 -51t75 -60t19 -75z" />
    <glyph glyph-name="scedilla" unicode="&#x15f;" horiz-adv-x="441" 
d="M391 127q0 -62 -44 -97.5t-109 -37.5l-23 -47q43 5 66 -16t23 -53q0 -47 -40 -69q-58 -33 -128 12l12 22q33 -22 69.5 -21t53.5 27q15 23 6 47.5t-33 29.5q-30 7 -48 -6l-16 12l31 62q-65 4 -110 35t-61 76l33 15q13 -38 52.5 -65t103.5 -27q53 0 90 26t37 75
q0 38 -34.5 58.5t-107.5 39.5q-46 12 -75 24t-54.5 37.5t-29.5 60.5q-7 59 35.5 101t120.5 42q56 0 100.5 -30.5t60.5 -78.5l-32 -13q-14 39 -49 63t-80 24q-63 0 -95 -30t-26 -74q4 -35 38 -55.5t95 -36.5q30 -8 48.5 -13.5t44 -17t40 -24.5t25 -33t10.5 -44z" />
    <glyph glyph-name="Scaron" unicode="&#x160;" horiz-adv-x="626" 
d="M295 707q89 0 157.5 -41t85.5 -115l-33 -11q-12 60 -68.5 96t-141.5 36q-86 0 -140 -43.5t-54 -113.5q0 -27 13 -48.5t30.5 -35.5t50 -26.5t57.5 -19t67 -15.5q143 -33 195 -76.5t52 -109.5q0 -31 -12 -62t-38 -61.5t-77 -49.5t-119 -19q-105 0 -176.5 45t-93.5 115
l33 11q17 -59 79.5 -97.5t157.5 -38.5q88 0 149.5 40t61.5 117q0 34 -17 60t-51.5 43.5t-68 27.5t-83.5 21q-125 27 -184.5 69t-59.5 110q0 85 64.5 138.5t163.5 53.5zM400 900h45l-106 -136h-41l-106 136h45l81 -109z" />
    <glyph glyph-name="scaron" unicode="&#x161;" horiz-adv-x="441" 
d="M223 259q30 -8 48.5 -13.5t44 -17t40 -24.5t25 -33t10.5 -44q0 -64 -47 -99.5t-115 -35.5q-72 0 -122.5 31.5t-66.5 79.5l33 15q13 -38 52.5 -65t103.5 -27q53 0 90 26t37 75q0 37 -34.5 58t-106.5 40q-71 18 -112.5 44.5t-47.5 77.5q-7 59 35.5 101t120.5 42
q61 0 103 -30t58 -79l-32 -13q-32 87 -129 87q-62 0 -94 -30t-27 -74q4 -35 38.5 -55.5t94.5 -36.5zM307 700h45l-106 -136h-41l-106 136h45l81 -109z" />
    <glyph glyph-name="Tcommaaccent" unicode="&#x162;" horiz-adv-x="536" 
d="M526 700v-35h-236v-665h-34v665h-236v35h506zM249 -77h40l-54 -132h-20z" />
    <glyph glyph-name="tcommaaccent" unicode="&#x163;" horiz-adv-x="308" 
d="M272 50l17 -30q-37 -27 -88 -27q-107 0 -107 139v315h-74v35h74v131l35 10v-141h120v-35h-120v-321q0 -98 72 -98q39 0 71 22zM156 -77h40l-54 -132h-20z" />
    <glyph glyph-name="Tcaron" unicode="&#x164;" horiz-adv-x="536" 
d="M526 700v-35h-236v-665h-34v665h-236v35h506zM355 900h45l-106 -136h-41l-106 136h45l81 -109z" />
    <glyph glyph-name="tcaron" unicode="&#x165;" horiz-adv-x="322" 
d="M272 50l17 -30q-37 -27 -88 -27q-107 0 -107 139v315h-74v35h74v131l35 10v-141h120v-35h-120v-321q0 -98 72 -98q39 0 71 22zM292 528l46 168h44l-70 -168h-20z" />
    <glyph glyph-name="Tbar" unicode="&#x166;" horiz-adv-x="537" 
d="M527 665h-236v-263h178v-35h-178v-367h-35v367h-178v35h178v263h-236v35h507v-35z" />
    <glyph glyph-name="tbar" unicode="&#x167;" horiz-adv-x="307" 
d="M273 51l16 -30q-36 -28 -88 -28q-107 0 -107 138v136h-48v35h48v145h-74v35h74v130l35 10v-140h120v-35h-120v-145h94v-35h-94v-142q0 -97 72 -97q38 0 72 23z" />
    <glyph glyph-name="Utilde" unicode="&#x168;" horiz-adv-x="715" 
d="M580 700h35v-418q0 -133 -68 -211t-190 -78t-189.5 77t-67.5 212v418h35v-418q0 -120 59 -187.5t163 -67.5t163.5 67.5t59.5 187.5v418zM487 844l31 -6q-19 -77 -82 -77q-26 0 -50 17t-44.5 34t-38.5 17q-31 0 -54 -44l-28 14q34 61 88 61q31 0 69 -33.5t60 -33.5
q39 0 49 51z" />
    <glyph glyph-name="utilde" unicode="&#x169;" horiz-adv-x="531" 
d="M416 482h35v-482h-35v91q-55 -98 -159 -98q-88 0 -137.5 58.5t-49.5 157.5v273h35v-273q0 -81 40 -131t112 -50q68 0 113.5 51.5t45.5 130.5v272zM390 644l31 -6q-19 -77 -82 -77q-26 0 -50 17t-44.5 34t-38.5 17q-31 0 -54 -44l-28 14q34 61 88 61q30 0 69 -33.5
t60 -33.5q39 0 49 51z" />
    <glyph glyph-name="Umacron" unicode="&#x16a;" horiz-adv-x="715" 
d="M580 700h35v-418q0 -133 -68 -211t-190 -78t-189.5 77t-67.5 212v418h35v-418q0 -120 59 -187.5t163 -67.5t163.5 67.5t59.5 187.5v418zM233 868h250v-34h-250v34z" />
    <glyph glyph-name="umacron" unicode="&#x16b;" horiz-adv-x="531" 
d="M416 482h35v-482h-35v91q-55 -98 -159 -98q-88 0 -137.5 58.5t-49.5 157.5v273h35v-273q0 -81 40 -131t112 -50q68 0 113.5 51.5t45.5 130.5v272zM146 668h250v-34h-250v34z" />
    <glyph glyph-name="Ubreve" unicode="&#x16c;" horiz-adv-x="715" 
d="M580 700h35v-418q0 -133 -68 -211t-190 -78t-189.5 77t-67.5 212v418h35v-418q0 -120 59 -187.5t163 -67.5t163.5 67.5t59.5 187.5v418zM431 879h29q0 -49 -27.5 -80.5t-74.5 -31.5q-48 0 -75.5 31.5t-27.5 80.5h29q0 -36 21 -59.5t53 -23.5q33 0 53 23t20 60z" />
    <glyph glyph-name="ubreve" unicode="&#x16d;" horiz-adv-x="531" 
d="M416 482h35v-482h-35v91q-55 -98 -159 -98q-88 0 -137.5 58.5t-49.5 157.5v273h35v-273q0 -81 40 -131t112 -50q68 0 113.5 51.5t45.5 130.5v272zM344 679h29q0 -49 -27.5 -80.5t-74.5 -31.5q-48 0 -75.5 31.5t-27.5 80.5h29q0 -36 21 -59.5t53 -23.5q33 0 53 23t20 60z
" />
    <glyph glyph-name="Uring" unicode="&#x16e;" horiz-adv-x="715" 
d="M580 700h35v-418q0 -133 -68 -211t-190 -78t-189.5 77t-67.5 212v418h35v-418q0 -120 59 -187.5t163 -67.5t163.5 67.5t59.5 187.5v418zM358 933q38 0 64.5 -26.5t26.5 -64.5t-26.5 -64.5t-64.5 -26.5t-64.5 26.5t-26.5 64.5t26.5 64.5t64.5 26.5zM358 780q26 0 44.5 18
t18.5 44t-18.5 44t-44.5 18t-44 -18t-18 -44t18 -44t44 -18z" />
    <glyph glyph-name="uring" unicode="&#x16f;" horiz-adv-x="531" 
d="M416 482h35v-482h-35v91q-55 -98 -159 -98q-88 0 -137.5 58.5t-49.5 157.5v273h35v-273q0 -81 40 -131t112 -50q68 0 113.5 51.5t45.5 130.5v272zM271 733q38 0 64.5 -26.5t26.5 -64.5t-26.5 -64.5t-64.5 -26.5q-37 0 -64 26.5t-27 64.5t27 64.5t64 26.5zM271 580
q26 0 44.5 18t18.5 44t-18.5 44t-44.5 18q-25 0 -43.5 -18t-18.5 -44t18.5 -44t43.5 -18z" />
    <glyph glyph-name="Uhungarumlaut" unicode="&#x170;" horiz-adv-x="715" 
d="M580 700h35v-418q0 -133 -68 -211t-190 -78t-189.5 77t-67.5 212v418h35v-418q0 -120 59 -187.5t163 -67.5t163.5 67.5t59.5 187.5v418zM354 900h43l-99 -136h-21zM476 900h43l-99 -136h-21z" />
    <glyph glyph-name="uhungarumlaut" unicode="&#x171;" horiz-adv-x="531" 
d="M416 482h35v-482h-35v91q-55 -98 -159 -98q-88 0 -137.5 58.5t-49.5 157.5v273h35v-273q0 -81 40 -131t112 -50q68 0 113.5 51.5t45.5 130.5v272zM257 700h43l-99 -136h-21zM379 700h43l-99 -136h-21z" />
    <glyph glyph-name="Uogonek" unicode="&#x172;" horiz-adv-x="715" 
d="M581 700h34v-418q0 -183 -118 -253q-51 -31 -83 -73t-29 -75q4 -36 38 -46t68 12v-41q-24 -8 -46 -8q-39 0 -65.5 24.5t-22.5 64.5q4 57 69 113q-29 -7 -68 -7q-122 0 -190 77t-68 212v418h35v-418q0 -120 59 -187t164 -67t164 67t59 187v418z" />
    <glyph glyph-name="uogonek" unicode="&#x173;" horiz-adv-x="531" 
d="M471 -153v-41q-26 -8 -47 -8q-38 0 -65 24.5t-23 64.5q3 36 30 67t52 46h-2v91q-55 -98 -158 -98q-88 0 -138 58.5t-50 157.5v273h35v-273q0 -81 40.5 -131t112.5 -50q68 0 113 51.5t45 130.5v272h35v-482h-1q-34 -18 -61.5 -53t-23.5 -66q3 -36 37 -46t69 12z" />
    <glyph glyph-name="Wcircumflex" unicode="&#x174;" horiz-adv-x="1031" 
d="M949 700h37l-228 -700h-36l-207 644l-208 -644h-35l-227 700h37l209 -643l207 643h35l207 -643zM642 764h-45l-82 109l-81 -109h-45l106 136h41z" />
    <glyph glyph-name="wcircumflex" unicode="&#x175;" horiz-adv-x="710" 
d="M653 482h37l-156 -482h-34l-140 426l-141 -426h-34l-155 482h36l138 -425l140 425h31l140 -425zM487 564h-45l-82 109l-81 -109h-45l106 136h41z" />
    <glyph glyph-name="Ycircumflex" unicode="&#x176;" horiz-adv-x="599" 
d="M579 700l-262 -467v-233h-34v232l-263 468h40l240 -427l239 427h40zM426 764h-45l-82 109l-81 -109h-45l106 136h41z" />
    <glyph glyph-name="ycircumflex" unicode="&#x177;" horiz-adv-x="445" 
d="M386 482h37l-182 -482q-25 -67 -39.5 -98t-35.5 -54q-21 -25 -47.5 -34.5t-41.5 -8.5t-42 6l6 34q61 -12 91.5 18.5t71.5 136.5l-182 482h37l164 -433zM359 564h-45l-82 109l-81 -109h-45l106 136h41z" />
    <glyph glyph-name="Ydieresis" unicode="&#x178;" horiz-adv-x="599" 
d="M579 700l-262 -467v-233h-34v232l-263 468h40l240 -427l239 427h40zM367 856q11 0 19.5 -8.5t8.5 -19.5t-8.5 -19.5t-19.5 -8.5t-19.5 8.5t-8.5 19.5t8.5 19.5t19.5 8.5zM233 856q11 0 19.5 -8.5t8.5 -19.5t-8.5 -19.5t-19.5 -8.5t-19.5 8.5t-8.5 19.5t8.5 19.5t19.5 8.5
z" />
    <glyph glyph-name="Zacute" unicode="&#x179;" horiz-adv-x="673" 
d="M114 35h489v-35h-533v35l481 630h-451v35h495v-35zM414 900h43l-99 -136h-21z" />
    <glyph glyph-name="zacute" unicode="&#x17a;" horiz-adv-x="472" 
d="M94 35h328v-35h-372v35l319 412h-306v35h350v-35zM303 700h43l-99 -136h-21z" />
    <glyph glyph-name="Zdotaccent" unicode="&#x17b;" horiz-adv-x="673" 
d="M114 35h489v-35h-533v35l481 630h-451v35h495v-35zM356 856q12 0 20 -8.5t8 -19.5t-8 -19.5t-20 -8.5q-11 0 -19 8.5t-8 19.5t8 19.5t19 8.5z" />
    <glyph glyph-name="zdotaccent" unicode="&#x17c;" horiz-adv-x="472" 
d="M94 35h328v-35h-372v35l319 412h-306v35h350v-35zM246 656q12 0 20 -8.5t8 -19.5t-8 -19.5t-20 -8.5q-11 0 -19 8.5t-8 19.5t8 19.5t19 8.5z" />
    <glyph glyph-name="Zcaron" unicode="&#x17d;" horiz-adv-x="673" 
d="M114 35h489v-35h-533v35l481 630h-451v35h495v-35zM448 900h45l-106 -136h-41l-106 136h45l81 -109z" />
    <glyph glyph-name="zcaron" unicode="&#x17e;" horiz-adv-x="472" 
d="M94 35h328v-35h-372v35l319 412h-306v35h350v-35zM328 700h45l-106 -136h-41l-106 136h45l81 -109z" />
    <glyph glyph-name="AEacute" unicode="&#x1fc;" horiz-adv-x="1029" 
d="M524 35h431v-35h-465v224h-304l-117 -224h-39l367 700h552v-35h-425v-298h394v-34h-394v-298zM205 258h285v407h-72zM570 900h43l-99 -136h-21z" />
    <glyph glyph-name="aeacute" unicode="&#x1fd;" horiz-adv-x="897" 
d="M837 241q0 -18 -1 -26h-405q8 -82 60.5 -135t132.5 -53q109 0 164 95l32 -16q-30 -52 -81 -82.5t-115 -30.5q-74 0 -130.5 40t-82.5 107q-6 -19 -19 -41q-25 -40 -77.5 -73t-125.5 -33q-59 0 -104 28t-45 90q0 65 47.5 98t131.5 52q15 3 47.5 10t48.5 11.5t37 12t30 17.5
t9 23q0 52 -34 85.5t-102 33.5q-65 0 -106 -30.5t-53 -78.5l-34 8q15 55 61 95.5t132 40.5q56 0 104.5 -29t62.5 -94q29 57 82 90t120 33q99 0 156 -70.5t57 -177.5zM624 454q-84 0 -137.5 -58.5t-56.5 -145.5h369q-2 90 -47 147t-128 57zM392 201v64q-13 -3 -70 -16.5
t-96 -20.5q-82 -17 -115.5 -44t-33.5 -73q0 -41 33 -62.5t84 -21.5q82 0 140 51t58 123zM507 700h43l-99 -136h-21z" />
    <glyph glyph-name="Oslashacute" unicode="&#x1fe;" horiz-adv-x="789" 
d="M641 597q93 -101 93 -248q0 -149 -97 -252.5t-242 -103.5q-129 0 -223 84l-81 -89l-25 24l81 90q-92 102 -92 247q0 149 97 253t243 104q127 0 222 -84l81 89l26 -23zM93 349q0 -129 78 -220l422 466q-82 76 -198 76q-131 0 -216.5 -93.5t-85.5 -228.5zM395 27
q130 0 216 93.5t86 228.5q0 129 -80 222l-422 -467q83 -77 200 -77zM455 900h43l-99 -136h-21z" />
    <glyph glyph-name="oslashacute" unicode="&#x1ff;" horiz-adv-x="568" 
d="M455 408q57 -70 57 -167q0 -105 -65 -176.5t-166 -71.5q-88 0 -150 56l-55 -61l-26 24l57 62q-57 68 -57 167q0 105 65 176.5t166 71.5q88 0 150 -56l55 60l25 -23zM87 241q0 -82 44 -140l276 306q-50 47 -126 47q-87 0 -140.5 -61t-53.5 -152zM281 27q87 0 140 61.5
t53 152.5q0 82 -43 140l-277 -306q53 -48 127 -48zM356 700h43l-99 -136h-21z" />
    <glyph glyph-name="Scommaaccent" unicode="&#x218;" horiz-adv-x="626" 
d="M295 707q89 0 157.5 -41t85.5 -115l-33 -11q-12 60 -68.5 96t-141.5 36q-86 0 -140 -43.5t-54 -113.5q0 -27 13 -48.5t30.5 -35.5t50 -26.5t57.5 -19t67 -15.5q143 -33 195 -76.5t52 -109.5q0 -31 -12 -62t-38 -61.5t-77 -49.5t-119 -19q-105 0 -176.5 45t-93.5 115
l33 11q17 -59 79.5 -97.5t157.5 -38.5q88 0 149.5 40t61.5 117q0 34 -17 60t-51.5 43.5t-68 27.5t-83.5 21q-125 27 -184.5 69t-59.5 110q0 85 64.5 138.5t163.5 53.5zM268 -77h40l-54 -132h-20z" />
    <glyph glyph-name="scommaaccent" unicode="&#x219;" horiz-adv-x="441" 
d="M223 259q30 -8 48.5 -13.5t44 -17t40 -24.5t25 -33t10.5 -44q0 -64 -47 -99.5t-115 -35.5q-72 0 -122.5 31.5t-66.5 79.5l33 15q13 -38 52.5 -65t103.5 -27q53 0 90 26t37 75q0 37 -34.5 58t-106.5 40q-71 18 -112.5 44.5t-47.5 77.5q-7 59 35.5 101t120.5 42
q61 0 103 -30t58 -79l-32 -13q-32 87 -129 87q-62 0 -94 -30t-27 -74q4 -35 38.5 -55.5t94.5 -36.5zM187 -77h40l-54 -132h-20z" />
    <glyph glyph-name="uni021A" unicode="&#x21a;" horiz-adv-x="536" 
d="M526 700v-35h-236v-665h-34v665h-236v35h506zM249 -77h40l-54 -132h-20z" />
    <glyph glyph-name="uni021B" unicode="&#x21b;" horiz-adv-x="308" 
d="M272 50l17 -30q-37 -27 -88 -27q-107 0 -107 139v315h-74v35h74v131l35 10v-141h120v-35h-120v-321q0 -98 72 -98q39 0 71 22zM146 -77h40l-54 -132h-20z" />
    <glyph glyph-name="circumflex" unicode="&#x2c6;" horiz-adv-x="403" 
d="M328 564h-45l-82 109l-81 -109h-45l106 136h41z" />
    <glyph glyph-name="caron" unicode="&#x2c7;" horiz-adv-x="403" 
d="M283 700h45l-106 -136h-41l-106 136h45l81 -109z" />
    <glyph glyph-name="breve" unicode="&#x2d8;" horiz-adv-x="355" 
d="M251 679h29q0 -49 -27.5 -80.5t-74.5 -31.5q-48 0 -75.5 31.5t-27.5 80.5h29q0 -36 21 -59.5t53 -23.5q33 0 53 23t20 60z" />
    <glyph glyph-name="dotaccent" unicode="&#x2d9;" horiz-adv-x="205" 
d="M102 656q12 0 20 -8.5t8 -19.5t-8 -19.5t-20 -8.5q-11 0 -19 8.5t-8 19.5t8 19.5t19 8.5z" />
    <glyph glyph-name="ring" unicode="&#x2da;" horiz-adv-x="332" 
d="M166 733q38 0 64.5 -26.5t26.5 -64.5t-26.5 -64.5t-64.5 -26.5t-64.5 26.5t-26.5 64.5t26.5 64.5t64.5 26.5zM166 580q26 0 44.5 18t18.5 44t-18.5 44t-44.5 18t-44 -18t-18 -44t18 -44t44 -18z" />
    <glyph glyph-name="ogonek" unicode="&#x2db;" horiz-adv-x="285" 
d="M210 -153v-41q-24 -8 -46 -8q-39 0 -65.5 24.5t-22.5 64.5q3 36 29.5 67t51.5 46h32q-34 -18 -61 -53t-24 -66q4 -36 37.5 -46t68.5 12z" />
    <glyph glyph-name="tilde" unicode="&#x2dc;" horiz-adv-x="447" 
d="M341 644l31 -6q-19 -77 -82 -77q-26 0 -50 17t-44.5 34t-38.5 17q-31 0 -54 -44l-28 14q34 61 88 61q31 0 69 -33.5t60 -33.5q39 0 49 51z" />
    <glyph glyph-name="hungarumlaut" unicode="&#x2dd;" horiz-adv-x="392" 
d="M152 700h43l-99 -136h-21zM274 700h43l-99 -136h-21z" />
    <glyph glyph-name="uni0401" unicode="&#x401;" horiz-adv-x="639" 
d="M225 811q-11 0 -19 8.5t-8 19.5t8 19.5t19 8.5q12 0 20 -8.5t8 -19.5t-8 -19.5t-20 -8.5zM423 811q-11 0 -19.5 8.5t-8.5 19.5t8.5 19.5t19.5 8.5t19.5 -8.5t8.5 -19.5t-8.5 -19.5t-19.5 -8.5zM134 35h431v-35h-465v700h459v-35h-425v-298h394v-34h-394v-298z" />
    <glyph glyph-name="uni0402" unicode="&#x402;" horiz-adv-x="726" 
d="M458 458q89 0 138.5 -57t49.5 -156v-117q0 -58 -28 -97t-81 -39q-47 0 -85 30l21 28q29 -23 64 -23t55 27.5t20 67.5v123q0 80 -41 129t-113 49q-51 0 -98 -23t-69 -48v-352h-35v665h-236v35h507v-35h-236v-271q25 24 72.5 44t94.5 20z" />
    <glyph glyph-name="uni0403" unicode="&#x403;" horiz-adv-x="515" 
d="M475 700v-34h-340v-666h-35v700h375zM354 900h43l-99 -136h-21z" />
    <glyph glyph-name="uni0404" unicode="&#x404;" horiz-adv-x="757" 
d="M404 28q82 0 149 38.5t108 105.5l31 -15q-45 -76 -120.5 -120t-167.5 -44q-145 0 -242 103.5t-97 252.5t97 252.5t242 103.5q92 0 167.5 -44t120.5 -120l-31 -15q-41 67 -108 105.5t-149 38.5q-125 0 -209.5 -87t-91.5 -215h386v-35h-386q5 -129 90 -217t211 -88z" />
    <glyph glyph-name="uni0405" unicode="&#x405;" horiz-adv-x="626" 
d="M295 707q89 0 157.5 -41t85.5 -115l-33 -11q-12 60 -68.5 96t-141.5 36q-86 0 -140 -43.5t-54 -113.5q0 -27 13 -48.5t30.5 -35.5t50 -26.5t57.5 -19t67 -15.5q143 -33 195 -76.5t52 -109.5q0 -31 -12 -62t-38 -61.5t-77 -49.5t-119 -19q-105 0 -176.5 45t-93.5 115
l33 11q17 -59 79.5 -97.5t157.5 -38.5q88 0 149.5 40t61.5 117q0 34 -17 60t-51.5 43.5t-68 27.5t-83.5 21q-125 27 -184.5 69t-59.5 110q0 85 64.5 138.5t163.5 53.5z" />
    <glyph glyph-name="uni0406" unicode="&#x406;" horiz-adv-x="234" 
d="M100 700h34v-700h-34v700z" />
    <glyph glyph-name="uni0407" unicode="&#x407;" horiz-adv-x="235" 
d="M98 700h34v-700h-34v700zM182 856q11 0 19.5 -8.5t8.5 -19.5t-8.5 -19.5t-19.5 -8.5t-19.5 8.5t-8.5 19.5t8.5 19.5t19.5 8.5zM48 856q11 0 19.5 -8.5t8.5 -19.5t-8.5 -19.5t-19.5 -8.5t-19.5 8.5t-8.5 19.5t8.5 19.5t19.5 8.5z" />
    <glyph glyph-name="uni0408" unicode="&#x408;" horiz-adv-x="444" 
d="M319 700h35v-514q0 -89 -42.5 -141t-122.5 -52q-56 0 -98.5 21t-65.5 53l31 20q17 -24 52 -42t77 -18q66 0 100 43.5t34 116.5v513z" />
    <glyph glyph-name="uni0409" unicode="&#x409;" horiz-adv-x="1084" 
d="M791 428q99 0 163.5 -59t64.5 -155q0 -95 -65.5 -154.5t-162.5 -59.5h-251v665h-334q0 -126 -3 -211.5t-13.5 -182t-33.5 -159t-60 -91.5q-42 -33 -96 -21l8 34q37 -9 66 14q27 21 45.5 70.5t28.5 106.5t15.5 144t6.5 152.5t1 163.5v15h403v-272h217zM791 35
q83 0 137 48.5t54 130.5t-54.5 131t-136.5 49h-217v-359h217z" />
    <glyph glyph-name="uni040A" unicode="&#x40a;" horiz-adv-x="1135" 
d="M841 368q104 0 166.5 -45.5t62.5 -137.5t-63.5 -138.5t-165.5 -46.5h-245v333h-461v-333h-35v700h35v-332h461v332h35v-332h210zM841 35q191 0 191 150q0 148 -191 148h-210v-298h210z" />
    <glyph glyph-name="uni040B" unicode="&#x40b;" horiz-adv-x="727" 
d="M459 458q89 0 138.5 -57t49.5 -156v-245h-34v245q0 80 -41 129t-113 49q-52 0 -100.5 -24t-68.5 -49v-350h-35v665h-235v35h506v-35h-236v-272q24 23 72.5 44t96.5 21z" />
    <glyph glyph-name="uni040C" unicode="&#x40c;" horiz-adv-x="642" 
d="M554 0l-272 383l-147 -163v-220h-35v700h35v-428l387 428h47l-263 -291l291 -409h-43zM384 900h43l-99 -136h-21z" />
    <glyph glyph-name="uni040E" unicode="&#x40e;" horiz-adv-x="569" 
d="M569 700l-226 -524q-43 -96 -80 -133q-71 -71 -161 -41l11 33q109 -34 183 121l-276 544h39l255 -503l217 503h38zM380 879h29q0 -49 -27.5 -80.5t-74.5 -31.5q-48 0 -75.5 31.5t-27.5 80.5h29q0 -36 21 -59.5t53 -23.5q33 0 53 23t20 60z" />
    <glyph glyph-name="uni040F" unicode="&#x40f;" horiz-adv-x="699" 
d="M565 700h34v-700h-232v-127h-35v127h-232v700h35v-665h430v665z" />
    <glyph glyph-name="uni0410" unicode="&#x410;" horiz-adv-x="652" 
d="M575 0l-86 222h-326l-86 -222h-37l270 700h32l270 -700h-37zM176 256h300l-150 388z" />
    <glyph glyph-name="uni0411" unicode="&#x411;" horiz-adv-x="643" 
d="M367 390q91 0 151 -51t60 -145t-60 -144t-151 -50h-267v700h408v-34h-374v-276h233zM367 35q74 0 123.5 40t49.5 119t-49 120t-124 41h-233v-320h233z" />
    <glyph glyph-name="uni0412" unicode="&#x412;" horiz-adv-x="653" 
d="M436 376q65 -16 103.5 -62t38.5 -121q0 -93 -60 -143t-151 -50h-267v700h250q84 0 136.5 -47.5t52.5 -125.5q0 -54 -27.5 -93.5t-75.5 -57.5zM350 665h-215v-275h215q68 0 110 36t42 101q0 67 -41 102.5t-111 35.5zM367 35q74 0 123.5 40t49.5 118q0 79 -49 120.5
t-124 41.5h-232v-320h232z" />
    <glyph glyph-name="uni0413" unicode="&#x413;" horiz-adv-x="455" 
d="M465 700v-34h-340v-666h-35v700h375z" />
    <glyph glyph-name="uni0414" unicode="&#x414;" horiz-adv-x="706" 
d="M585 35h71v-162h-35v127h-576v-127h-35v162h37q84 50 116 277q22 154 22 360v28h400v-665zM101 35h449v631h-330q0 -501 -119 -631z" />
    <glyph glyph-name="uni0415" unicode="&#x415;" horiz-adv-x="639" 
d="M134 35h431v-35h-465v700h459v-35h-425v-298h394v-34h-394v-298z" />
    <glyph glyph-name="uni0416" unicode="&#x416;" horiz-adv-x="972" 
d="M899 0l-272 383l-129 -153v-230h-35v230l-128 153l-273 -383h-42l291 410l-263 290h47l368 -418v418h35v-418l369 418h47l-263 -290l291 -410h-43z" />
    <glyph glyph-name="uni0417" unicode="&#x417;" horiz-adv-x="619" 
d="M403 372q141 -42 141 -171q0 -82 -65 -145t-183 -63q-56 0 -103.5 13t-76 32.5t-44 35t-22.5 28.5l30 17q6 -11 19.5 -24t38.5 -29t66.5 -27t91.5 -11q93 0 151.5 48t58.5 125q0 152 -214 152h-94v34h97q90 0 132.5 43.5t42.5 103.5q0 63 -48.5 100.5t-127.5 37.5
q-75 0 -124 -34t-72 -79l-34 10q25 55 86 96t147 41q105 0 158 -51t53 -121q0 -50 -26 -94.5t-79 -67.5z" />
    <glyph glyph-name="uni0418" unicode="&#x418;" horiz-adv-x="733" 
d="M601 700h32v-700h-35v638l-466 -638h-32v700h34v-640z" />
    <glyph glyph-name="uni0419" unicode="&#x419;" horiz-adv-x="733" 
d="M371 771q-46 0 -78 28.5t-36 72.5h29q4 -32 27.5 -52t57.5 -20q35 0 58.5 20t27.5 52h29q-4 -44 -36 -72.5t-79 -28.5zM601 700h32v-700h-35v638l-466 -638h-32v700h34v-640z" />
    <glyph glyph-name="uni041A" unicode="&#x41a;" horiz-adv-x="642" 
d="M554 0l-272 383l-147 -163v-220h-35v700h35v-428l387 428h47l-263 -291l291 -409h-43z" />
    <glyph glyph-name="uni041B" unicode="&#x41b;" horiz-adv-x="674" 
d="M172 700h402v-700h-34v666h-333q0 -129 -3.5 -212t-13.5 -181.5t-33.5 -160.5t-60.5 -91q-41 -33 -96 -21l8 34q37 -9 67 14q33 26 54 89t29.5 162t11 181t2.5 206v14z" />
    <glyph glyph-name="uni041C" unicode="&#x41c;" horiz-adv-x="886" 
d="M754 700h32v-700h-35v634l-296 -450h-23l-297 450v-634h-35v700h32l311 -473z" />
    <glyph glyph-name="uni041D" unicode="&#x41d;" horiz-adv-x="731" 
d="M596 700h35v-700h-35v332h-461v-332h-35v700h35v-333h461v333z" />
    <glyph glyph-name="uni041E" unicode="&#x41e;" horiz-adv-x="789" 
d="M394 706q146 0 243 -104t97 -253t-97.5 -252.5t-242.5 -103.5t-242 103.5t-97 252.5t97 253t242 104zM394 27q131 0 216.5 93.5t85.5 228.5t-85.5 228.5t-216.5 93.5q-130 0 -215.5 -93.5t-85.5 -228.5t85.5 -228.5t215.5 -93.5z" />
    <glyph glyph-name="uni041F" unicode="&#x41f;" horiz-adv-x="731" 
d="M100 700h531v-700h-35v666h-462v-666h-34v700z" />
    <glyph glyph-name="uni0420" unicode="&#x420;" horiz-adv-x="619" 
d="M351 700q98 0 163 -59.5t65 -154.5t-64.5 -154.5t-163.5 -59.5h-217v-272h-34v700h251zM351 307q82 0 136.5 48.5t54.5 130.5t-53.5 130.5t-137.5 48.5h-217v-358h217z" />
    <glyph glyph-name="uni0421" unicode="&#x421;" horiz-adv-x="757" 
d="M404 29q82 0 149 38.5t107 105.5l32 -15q-45 -76 -120.5 -120t-167.5 -44q-145 0 -242 103.5t-97 252.5t97 252.5t242 103.5q92 0 167.5 -44t120.5 -120l-32 -15q-40 67 -107 105.5t-149 38.5q-130 0 -215.5 -93t-86.5 -228q1 -135 86.5 -228t215.5 -93z" />
    <glyph glyph-name="uni0422" unicode="&#x422;" horiz-adv-x="536" 
d="M526 700v-35h-236v-665h-34v665h-236v35h506z" />
    <glyph glyph-name="uni0423" unicode="&#x423;" horiz-adv-x="569" 
d="M569 700l-226 -524q-43 -96 -80 -133q-71 -71 -161 -41l11 33q109 -34 183 121l-276 544h39l255 -503l217 503h38z" />
    <glyph glyph-name="uni0424" unicode="&#x424;" horiz-adv-x="867" 
d="M802 350q0 -137 -100.5 -214t-250.5 -81v-84h-35v84q-150 4 -250.5 81t-100.5 214q0 136 100.5 213.5t250.5 82.5v83h35v-83q150 -5 250.5 -82.5t100.5 -213.5zM103 350q0 -83 44 -142t113 -87.5t156 -31.5v522q-135 -4 -224 -71.5t-89 -189.5zM451 89q88 3 157 31.5
t113 87.5t44 142q0 122 -89.5 189.5t-224.5 71.5v-522z" />
    <glyph glyph-name="uni0425" unicode="&#x425;" horiz-adv-x="601" 
d="M581 0h-43l-232 329l-233 -329h-43l254 360l-241 340h43l220 -310l219 310h43l-241 -340z" />
    <glyph glyph-name="uni0426" unicode="&#x426;" horiz-adv-x="716" 
d="M599 35h87v-162h-35v127h-551v700h35v-665h430v665h34v-665z" />
    <glyph glyph-name="uni0427" unicode="&#x427;" horiz-adv-x="661" 
d="M526 700h35v-700h-35v335q-31 -39 -97 -66t-133 -27q-107 0 -169 62t-62 194v202h35v-202q0 -110 50 -166t146 -56q80 0 141 32t89 72v320z" />
    <glyph glyph-name="uni0428" unicode="&#x428;" horiz-adv-x="1030" 
d="M895 700h35v-700h-830v700h34v-665h364v665h34v-665h363v665z" />
    <glyph glyph-name="uni0429" unicode="&#x429;" horiz-adv-x="1047" 
d="M930 35h87v-162h-35v127h-882v700h35v-665h363v665h35v-665h362v665h35v-665z" />
    <glyph glyph-name="uni042A" unicode="&#x42a;" horiz-adv-x="692" 
d="M398 428q100 0 164.5 -59t64.5 -155q0 -95 -65.5 -154.5t-163.5 -59.5h-251v666h-127v34h162v-272h216zM398 35q83 0 137 48.5t54 130.5t-54.5 131t-136.5 49h-216v-359h216z" />
    <glyph glyph-name="uni042B" unicode="&#x42b;" horiz-adv-x="833" 
d="M699 700h34v-700h-34v700zM351 428q100 0 164.5 -59t64.5 -155q0 -95 -65.5 -154.5t-163.5 -59.5h-251v700h35v-272h216zM351 35q83 0 137 48.5t54 130.5t-54.5 131t-136.5 49h-216v-359h216z" />
    <glyph glyph-name="uni042C" unicode="&#x42c;" horiz-adv-x="645" 
d="M351 428q100 0 164.5 -59t64.5 -155q0 -95 -65.5 -154.5t-163.5 -59.5h-251v700h35v-272h216zM351 35q83 0 137 48.5t54 130.5t-54.5 131t-136.5 49h-216v-359h216z" />
    <glyph glyph-name="uni042D" unicode="&#x42d;" horiz-adv-x="757" 
d="M352 705q145 0 242.5 -103.5t97.5 -252.5t-97.5 -252.5t-242.5 -103.5q-92 0 -167.5 44t-119.5 120l31 15q41 -67 107.5 -105.5t148.5 -38.5q127 0 211.5 87.5t90.5 217.5h-387v35h387q-7 128 -91.5 215t-210.5 87q-82 0 -148.5 -38.5t-107.5 -105.5l-31 15
q44 76 119.5 120t167.5 44z" />
    <glyph glyph-name="uni042E" unicode="&#x42e;" horiz-adv-x="1056" 
d="M662 706q145 0 242 -103.5t97 -252.5t-97 -253t-242 -104q-142 0 -238 98t-102 242h-187v-333h-35v700h35v-332h187q7 143 103 240.5t237 97.5zM662 28q130 0 216 93.5t86 228.5t-86 228.5t-216 93.5q-131 0 -216.5 -93.5t-85.5 -228.5t85.5 -228.5t216.5 -93.5z" />
    <glyph glyph-name="uni042F" unicode="&#x42f;" horiz-adv-x="661" 
d="M310 700h251v-700h-35v272h-216q-17 0 -49 4l-157 -276h-39l161 285q-67 22 -106 75t-39 126q0 95 65.5 154.5t163.5 59.5zM310 307h216v359h-216q-84 0 -137.5 -49t-53.5 -131t54.5 -130.5t136.5 -48.5z" />
    <glyph glyph-name="uni0430" unicode="&#x430;" horiz-adv-x="500" 
d="M252 489q29 0 56.5 -8t53.5 -25.5t42 -52.5t16 -82v-321h-34v99q-69 -106 -197 -106q-37 0 -68.5 10t-56 38t-24.5 71q0 64 47 97t131 53q13 3 34.5 7.5t34 7t30 7t28 9t21 11t15 14t4.5 17.5q0 53 -33 86.5t-100 33.5q-64 0 -102.5 -30t-50.5 -80l-34 8q35 136 187 136z
M386 201v64q-15 -3 -68.5 -16.5t-91.5 -20.5q-82 -17 -115.5 -43.5t-33.5 -72.5q0 -42 33 -63.5t84 -21.5q81 0 136.5 51t55.5 123z" />
    <glyph glyph-name="uni0431" unicode="&#x431;" horiz-adv-x="553" 
d="M278 481q101 0 160.5 -67.5t59.5 -172.5q0 -106 -61.5 -177t-161.5 -71q-90 0 -149.5 60.5t-70.5 151.5q-4 32 -4.5 69.5t3.5 84t16.5 92t32.5 88.5t54.5 80.5t78.5 60.5t102 40q2 1 12.5 4.5t13 4t11.5 4t12.5 5t11 4.5t11.5 5.5t9.5 6t10.5 7.5t9 8l25 -24
q-5 -5 -10.5 -9.5t-10 -7.5t-11.5 -7l-10.5 -6t-12.5 -5.5t-11.5 -5t-12.5 -5t-11.5 -4t-13 -4.5t-12.5 -4q-61 -20 -95 -38q-141 -75 -167 -281q31 52 81.5 82.5t110.5 30.5zM275 28q86 0 135.5 60.5t49.5 152.5q0 91 -48 148t-134 57q-87 0 -137.5 -57.5t-50.5 -147.5
q0 -92 49.5 -152.5t135.5 -60.5z" />
    <glyph glyph-name="uni0432" unicode="&#x432;" horiz-adv-x="505" 
d="M366 245q41 -12 65 -42t24 -74q0 -59 -39.5 -94t-101.5 -35h-234v482h210q60 0 100.5 -35.5t40.5 -93.5q0 -75 -65 -108zM290 447h-175v-188h175q47 0 76.5 24.5t29.5 69.5t-30 69.5t-76 24.5zM314 35q47 0 76.5 25t29.5 69q0 45 -30 70t-76 25h-199v-189h199z" />
    <glyph glyph-name="uni0433" unicode="&#x433;" horiz-adv-x="407" 
d="M387 482v-35h-272v-447h-35v482h307z" />
    <glyph glyph-name="uni0434" unicode="&#x434;" horiz-adv-x="530" 
d="M490 35v-153h-34v118h-432v-118h-34v153h39q51 55 69.5 161.5t20.5 251.5v34h300v-447h71zM73 35h312v412h-232q-1 -140 -17.5 -243.5t-62.5 -168.5z" />
    <glyph glyph-name="uni0435" unicode="&#x435;" 
d="M485 241q0 -17 -1 -26h-405q8 -82 60.5 -135t132.5 -53q109 0 164 96l32 -16q-30 -53 -81 -83.5t-115 -30.5q-101 0 -166.5 72t-65.5 176t65.5 176t166.5 72q99 0 156 -70.5t57 -177.5zM272 455q-84 0 -137.5 -58.5t-56.5 -146.5h369q-2 90 -47 147.5t-128 57.5z" />
    <glyph glyph-name="uni0436" unicode="&#x436;" horiz-adv-x="731" 
d="M668 0l-190 264l-105 -123v-141h-35v141l-104 123l-191 -264h-43l210 290l-178 192h47l259 -290v290h35v-290l259 290h48l-178 -192l209 -290h-43z" />
    <glyph glyph-name="uni0437" unicode="&#x437;" horiz-adv-x="429" 
d="M292 247q37 -10 67 -40.5t30 -74.5q0 -59 -48.5 -99t-132.5 -40q-63 0 -115 28t-73 63l30 18q54 -74 157 -74q64 0 104.5 27.5t40.5 75.5q0 96 -146 96h-60v34h67q52 0 85.5 25.5t33.5 71.5q0 47 -33 72t-89 25q-80 0 -136 -62l-24 21q67 76 162 76q72 0 113.5 -35.5
t41.5 -95.5q0 -37 -20.5 -67t-54.5 -45z" />
    <glyph glyph-name="uni0438" unicode="&#x438;" horiz-adv-x="543" 
d="M431 482h32v-482h-35v425l-327 -425h-31v482h34v-424z" />
    <glyph glyph-name="uni0439" unicode="&#x439;" horiz-adv-x="543" 
d="M272 541q-46 0 -78 28.5t-36 72.5h29q4 -32 27.5 -52.5t57.5 -20.5t58 20.5t28 52.5h29q-4 -44 -36 -72.5t-79 -28.5zM431 482h32v-482h-35v425l-327 -425h-31v482h34v-424z" />
    <glyph glyph-name="uni043A" unicode="&#x43a;" horiz-adv-x="501" 
d="M428 0l-190 264l-124 -132v-132h-34v482h34v-299l278 299h48l-178 -192l209 -290h-43z" />
    <glyph glyph-name="uni043B" unicode="&#x43b;" horiz-adv-x="499" 
d="M385 482h34v-482h-34v447h-229q0 -186 -16 -289t-60 -140q-33 -27 -80 -18l7 34q30 -6 51 11q38 31 50.5 134.5t12.5 270.5v32h264z" />
    <glyph glyph-name="uni043C" unicode="&#x43c;" horiz-adv-x="651" 
d="M540 482h31v-482h-34v419l-205 -297h-23l-204 297v-419h-35v482h32l219 -319z" />
    <glyph glyph-name="uni043D" unicode="&#x43d;" horiz-adv-x="554" 
d="M439 482h35v-482h-35v224h-324v-224h-35v482h35v-223h324v223z" />
    <glyph glyph-name="uni043E" unicode="&#x43e;" horiz-adv-x="568" 
d="M282 489q101 0 166 -71.5t65 -176.5t-65 -176.5t-166 -71.5t-166.5 72t-65.5 176t65.5 176t166.5 72zM282 27q87 0 140 61.5t53 152.5t-53 152.5t-140 61.5t-140.5 -61.5t-53.5 -152.5t53.5 -152.5t140.5 -61.5z" />
    <glyph glyph-name="uni043F" unicode="&#x43f;" horiz-adv-x="553" 
d="M80 482h393v-482h-34v447h-325v-447h-34v482z" />
    <glyph glyph-name="uni0440" unicode="&#x440;" horiz-adv-x="586" 
d="M306 490q100 0 162.5 -72t62.5 -177t-62 -176.5t-163 -71.5q-66 0 -115 31.5t-76 87.5v-330h-35v700h35v-111q27 55 76 87t115 32zM306 28q86 0 137 61t51 152t-51 152.5t-137 61.5t-137 -61.5t-51 -152.5t51 -152t137 -61z" />
    <glyph glyph-name="uni0441" unicode="&#x441;" horiz-adv-x="533" 
d="M281 27q109 0 164 96l33 -16q-31 -53 -82 -83.5t-115 -30.5q-101 0 -166 71.5t-65 176.5t65 176.5t166 71.5q64 0 115 -30.5t82 -83.5l-33 -15q-55 95 -164 95q-87 0 -140.5 -61.5t-53.5 -152.5t53.5 -152.5t140.5 -61.5z" />
    <glyph glyph-name="uni0442" unicode="&#x442;" horiz-adv-x="423" 
d="M403 482v-35h-174v-447h-35v447h-174v35h383z" />
    <glyph glyph-name="uni0443" unicode="&#x443;" horiz-adv-x="445" 
d="M386 482h37l-182 -482q-25 -67 -39.5 -98t-35.5 -54q-21 -25 -47.5 -34.5t-41.5 -8.5t-42 6l6 34q61 -12 91.5 18.5t71.5 136.5l-182 482h37l164 -433z" />
    <glyph glyph-name="uni0444" unicode="&#x444;" horiz-adv-x="680" 
d="M625 241q0 -105 -69.5 -174t-200.5 -74v-211h-35v211q-131 5 -200.5 74t-69.5 174t69 174.5t201 73.5v211h35v-211q132 -4 201 -73.5t69 -174.5zM87 241q0 -93 56 -151t177 -62v427q-118 -5 -175.5 -63.5t-57.5 -150.5zM355 28q120 4 176 62t56 151q0 92 -57 150.5
t-175 63.5v-427z" />
    <glyph glyph-name="uni0445" unicode="&#x445;" horiz-adv-x="463" 
d="M423 0h-43l-154 218l-153 -218h-43l175 248l-165 234h43l143 -203l144 203h42l-164 -234z" />
    <glyph glyph-name="uni0446" unicode="&#x446;" horiz-adv-x="566" 
d="M536 35v-153h-35v118h-421v482h35v-447h315v447h35v-447h71z" />
    <glyph glyph-name="uni0447" unicode="&#x447;" horiz-adv-x="498" 
d="M383 482h35v-482h-35v201q-72 -51 -163 -51q-53 0 -88.5 17t-52 47.5t-23 62t-6.5 72.5v133h34v-133q0 -85 32 -124.5t104 -39.5q95 0 163 54v243z" />
    <glyph glyph-name="uni0448" unicode="&#x448;" horiz-adv-x="774" 
d="M659 482h35v-482h-614v482h35v-447h255v447h34v-447h255v447z" />
    <glyph glyph-name="uni0449" unicode="&#x449;" horiz-adv-x="794" 
d="M764 35v-153h-35v118h-649v482h34v-447h255v447h35v-447h254v447h35v-447h71z" />
    <glyph glyph-name="uni044A" unicode="&#x44a;" 
d="M319 313q73 0 122 -42t49 -115q0 -72 -49.5 -114t-121.5 -42h-191v447h-118v35h153v-169h156zM319 35q57 0 95 31.5t38 89.5q0 59 -38 90.5t-95 31.5h-156v-243h156z" />
    <glyph glyph-name="uni044B" unicode="&#x44b;" horiz-adv-x="653" 
d="M539 482h34v-482h-34v482zM271 313q73 0 122 -42t49 -115q0 -72 -49.5 -114t-121.5 -42h-191v482h34v-169h157zM271 35q56 0 94.5 31.5t38.5 89.5q0 59 -38 90.5t-95 31.5h-157v-243h157z" />
    <glyph glyph-name="uni044C" unicode="&#x44c;" horiz-adv-x="497" 
d="M271 313q73 0 122 -42t49 -115q0 -72 -49.5 -114t-121.5 -42h-191v482h35v-169h156zM271 35q56 0 94.5 31.5t38.5 89.5q0 59 -38 90.5t-95 31.5h-156v-243h156z" />
    <glyph glyph-name="uni044D" unicode="&#x44d;" horiz-adv-x="533" 
d="M247 490q101 0 166 -72t65 -177t-65 -176.5t-166 -71.5q-65 0 -116 30.5t-81 83.5l33 16q25 -44 67.5 -69.5t96.5 -25.5q82 0 135 55.5t58 140.5h-257v35h257q-5 84 -58 140t-135 56q-54 0 -96.5 -25.5t-67.5 -69.5l-33 16q30 53 81.5 83.5t115.5 30.5z" />
    <glyph glyph-name="uni044E" unicode="&#x44e;" horiz-adv-x="766" 
d="M480 490q101 0 166 -72t65 -177t-65 -176.5t-166 -71.5q-97 0 -161 66t-70 165h-134v-224h-35v482h35v-223h134q6 99 70 165t161 66zM480 28q87 0 140.5 61t53.5 152t-53.5 152.5t-140.5 61.5t-140.5 -61.5t-53.5 -152.5t53.5 -152t140.5 -61z" />
    <glyph glyph-name="uni044F" unicode="&#x44f;" horiz-adv-x="491" 
d="M222 482h189v-482h-35v170h-154q-25 0 -44 4l-98 -174h-40l104 185q-42 17 -67.5 53.5t-25.5 87.5q0 72 49.5 114t121.5 42zM222 205h154v242h-154q-56 0 -94.5 -31.5t-38.5 -89.5q0 -59 38 -90t95 -31z" />
    <glyph glyph-name="uni0451" unicode="&#x451;" 
d="M173 558q-12 0 -20 8.5t-8 19.5t8 19.5t20 8.5q11 0 19 -8.5t8 -19.5t-8 -19.5t-19 -8.5zM355 558q-11 0 -19 8.5t-8 19.5t8 19.5t19 8.5q12 0 20 -8.5t8 -19.5t-8 -19.5t-20 -8.5zM485 241q0 -17 -1 -26h-405q8 -82 60.5 -135t132.5 -53q109 0 164 96l32 -16
q-30 -53 -81 -83.5t-115 -30.5q-101 0 -166.5 72t-65.5 176t65.5 176t166.5 72q99 0 156 -70.5t57 -177.5zM272 455q-84 0 -137.5 -58.5t-56.5 -146.5h369q-2 90 -47 147.5t-128 57.5z" />
    <glyph glyph-name="uni0452" unicode="&#x452;" horiz-adv-x="552" 
d="M285 489q88 0 137.5 -58t49.5 -157v-334q0 -58 -28 -97t-81 -39q-49 0 -86 30l22 27q28 -22 64 -22q35 0 55 27.5t20 67.5v340q0 81 -40.5 131t-112.5 50q-69 0 -113.5 -53.5t-44.5 -139.5v-262h-35v573h-72v34h72v93h35v-93h131v-34h-131v-189q23 48 63.5 76.5
t94.5 28.5z" />
    <glyph glyph-name="uni0453" unicode="&#x453;" horiz-adv-x="407" 
d="M387 482v-35h-272v-447h-35v482h307zM307 700h43l-99 -136h-21z" />
    <glyph glyph-name="uni0454" unicode="&#x454;" horiz-adv-x="532" 
d="M281 28q110 0 164 95l32 -16q-30 -53 -81 -83.5t-115 -30.5q-101 0 -166 71.5t-65 176.5t65 176.5t166 71.5q64 0 115 -30.5t81 -82.5l-32 -16q-55 95 -164 95q-82 0 -135 -56t-58 -140h256v-35h-256q5 -85 58 -140.5t135 -55.5z" />
    <glyph glyph-name="uni0455" unicode="&#x455;" horiz-adv-x="441" 
d="M223 259q30 -8 48.5 -13.5t44 -17t40 -24.5t25 -33t10.5 -44q0 -64 -47 -99.5t-115 -35.5q-72 0 -122.5 31.5t-66.5 79.5l33 15q13 -38 52.5 -65t103.5 -27q53 0 90 26t37 75q0 37 -34.5 58t-106.5 40q-71 18 -112.5 44.5t-47.5 77.5q-7 59 35.5 101t120.5 42
q61 0 103 -30t58 -79l-32 -13q-32 87 -129 87q-62 0 -94 -30t-27 -74q4 -35 38.5 -55.5t94.5 -36.5z" />
    <glyph glyph-name="uni0456" unicode="&#x456;" horiz-adv-x="220" 
d="M90 0v482h35v-482h-35zM107 630q12 0 20 -8.5t8 -19.5t-8 -19.5t-20 -8.5q-11 0 -19 8.5t-8 19.5t8 19.5t19 8.5z" />
    <glyph glyph-name="uni0457" unicode="&#x457;" horiz-adv-x="220" 
d="M92 0v482h35v-482h-35zM177 646q11 0 19.5 -8.5t8.5 -19.5t-8.5 -19.5t-19.5 -8.5t-19.5 8.5t-8.5 19.5t8.5 19.5t19.5 8.5zM43 646q11 0 19.5 -8.5t8.5 -19.5t-8.5 -19.5t-19.5 -8.5t-19.5 8.5t-8.5 19.5t8.5 19.5t19.5 8.5z" />
    <glyph glyph-name="uni0458" unicode="&#x458;" horiz-adv-x="231" 
d="M123 630q11 0 19.5 -8.5t8.5 -19.5t-8.5 -19.5t-19.5 -8.5t-19.5 8.5t-8.5 19.5t8.5 19.5t19.5 8.5zM105 -89v571h34v-571q0 -59 -27.5 -97.5t-81.5 -38.5q-50 0 -85 30l21 27q28 -22 64 -22t55.5 26.5t19.5 74.5z" />
    <glyph glyph-name="uni0459" unicode="&#x459;" horiz-adv-x="787" 
d="M561 313q73 0 122 -42t49 -115q0 -72 -49.5 -114t-121.5 -42h-177v447h-228q0 -185 -16.5 -288.5t-60.5 -140.5q-32 -28 -79 -18l7 34q30 -6 50 11q38 31 51 135.5t13 269.5v32h298v-169h142zM561 35q56 0 94.5 31.5t38.5 89.5q0 59 -38 90.5t-95 31.5h-142v-243h142z
" />
    <glyph glyph-name="uni045A" unicode="&#x45a;" horiz-adv-x="830" 
d="M607 259q168 0 168 -126q0 -68 -45 -100.5t-123 -32.5h-168v224h-324v-224h-35v482h35v-223h324v223h35v-223h133zM607 35q130 0 130 98q0 53 -34 72t-96 19h-133v-189h133z" />
    <glyph glyph-name="uni045B" unicode="&#x45b;" horiz-adv-x="552" 
d="M285 489q88 0 137.5 -58t49.5 -157v-274h-35v274q0 81 -40 131t-112 50q-69 0 -114 -53.5t-45 -139.5v-262h-34v573h-72v34h72v93h34v-93h132v-34h-132v-189q52 105 159 105z" />
    <glyph glyph-name="uni045C" unicode="&#x45c;" horiz-adv-x="501" 
d="M428 0l-190 264l-124 -132v-132h-34v482h34v-299l278 299h48l-178 -192l209 -290h-43zM327 700h43l-99 -136h-21z" />
    <glyph glyph-name="uni045E" unicode="&#x45e;" horiz-adv-x="445" 
d="M386 482h37l-182 -482q-25 -67 -39.5 -98t-35.5 -54q-21 -25 -47.5 -34.5t-41.5 -8.5t-42 6l6 34q61 -12 91.5 18.5t71.5 136.5l-182 482h37l164 -433zM308 679h29q0 -49 -27.5 -80.5t-74.5 -31.5q-48 0 -75.5 31.5t-27.5 80.5h29q0 -36 21 -59.5t53 -23.5q33 0 53 23
t20 60z" />
    <glyph glyph-name="uni045F" unicode="&#x45f;" 
d="M430 482h35v-482h-175v-118h-35v118h-175v35v447h35v-447h315v447z" />
    <glyph glyph-name="uni0490" unicode="&#x490;" horiz-adv-x="455" 
d="M430 827h35v-162h-340v-665h-35v700h340v127z" />
    <glyph glyph-name="uni0491" unicode="&#x491;" horiz-adv-x="406" 
d="M386 601v-154h-272v-447h-34v482h272v119h34z" />
    <glyph glyph-name="Wgrave" unicode="&#x1e80;" horiz-adv-x="1031" 
d="M949 700h37l-228 -700h-36l-207 644l-208 -644h-35l-227 700h37l209 -643l207 643h35l207 -643zM447 900l78 -136h-21l-99 136h42z" />
    <glyph glyph-name="wgrave" unicode="&#x1e81;" horiz-adv-x="710" 
d="M653 482h37l-156 -482h-34l-140 426l-141 -426h-34l-155 482h36l138 -425l140 425h31l140 -425zM282 700l78 -136h-21l-99 136h42z" />
    <glyph glyph-name="Wacute" unicode="&#x1e82;" horiz-adv-x="1031" 
d="M949 700h37l-228 -700h-36l-207 644l-208 -644h-35l-227 700h37l209 -643l207 643h35l207 -643zM592 900h43l-99 -136h-21z" />
    <glyph glyph-name="wacute" unicode="&#x1e83;" horiz-adv-x="710" 
d="M653 482h37l-156 -482h-34l-140 426l-141 -426h-34l-155 482h36l138 -425l140 425h31l140 -425zM437 700h43l-99 -136h-21z" />
    <glyph glyph-name="Wdieresis" unicode="&#x1e84;" horiz-adv-x="1031" 
d="M949 700h37l-228 -700h-36l-207 644l-208 -644h-35l-227 700h37l209 -643l207 643h35l207 -643zM582 856q11 0 19.5 -8.5t8.5 -19.5t-8.5 -19.5t-19.5 -8.5t-19.5 8.5t-8.5 19.5t8.5 19.5t19.5 8.5zM448 856q11 0 19.5 -8.5t8.5 -19.5t-8.5 -19.5t-19.5 -8.5t-19.5 8.5
t-8.5 19.5t8.5 19.5t19.5 8.5z" />
    <glyph glyph-name="wdieresis" unicode="&#x1e85;" horiz-adv-x="710" 
d="M653 482h37l-156 -482h-34l-140 426l-141 -426h-34l-155 482h36l138 -425l140 425h31l140 -425zM427 656q11 0 19.5 -8.5t8.5 -19.5t-8.5 -19.5t-19.5 -8.5t-19.5 8.5t-8.5 19.5t8.5 19.5t19.5 8.5zM293 656q11 0 19.5 -8.5t8.5 -19.5t-8.5 -19.5t-19.5 -8.5t-19.5 8.5
t-8.5 19.5t8.5 19.5t19.5 8.5z" />
    <glyph glyph-name="Germandbl" unicode="&#x1e9e;" horiz-adv-x="624" 
d="M332 443q99 -11 163 -66.5t64 -154.5q0 -111 -76 -170t-192 -59v34q35 0 70 7.5t74.5 26.5t64 60.5t24.5 100.5q0 58 -25 98.5t-65 58.5t-74 24.5t-69 6.5v35l154 220h-161q-74 0 -111.5 -52.5t-37.5 -141.5v-471h-35v471q0 108 48 168.5t136 60.5h203v-35z" />
    <glyph glyph-name="Ygrave" unicode="&#x1ef2;" horiz-adv-x="599" 
d="M579 700l-262 -467v-233h-34v232l-263 468h40l240 -427l239 427h40zM232 900l78 -136h-21l-99 136h42z" />
    <glyph glyph-name="ygrave" unicode="&#x1ef3;" horiz-adv-x="445" 
d="M386 482h37l-182 -482q-25 -67 -39.5 -98t-35.5 -54q-21 -25 -47.5 -34.5t-41.5 -8.5t-42 6l6 34q61 -12 91.5 18.5t71.5 136.5l-182 482h37l164 -433zM155 700l78 -136h-21l-99 136h42z" />
    <glyph glyph-name="endash" unicode="&#x2013;" horiz-adv-x="508" 
d="M60 324h388v-35h-388v35z" />
    <glyph glyph-name="emdash" unicode="&#x2014;" horiz-adv-x="594" 
d="M60 324h474v-35h-474v35z" />
    <glyph glyph-name="quoteleft" unicode="&#x2018;" horiz-adv-x="150" 
d="M50 538l70 168h20l-47 -168h-43z" />
    <glyph glyph-name="quoteright" unicode="&#x2019;" horiz-adv-x="150" 
d="M50 538l46 168h44l-70 -168h-20z" />
    <glyph glyph-name="quotesinglbase" unicode="&#x201a;" horiz-adv-x="150" 
d="M50 -158l46 168h44l-70 -168h-20z" />
    <glyph glyph-name="quotedblleft" unicode="&#x201c;" horiz-adv-x="272" 
d="M222 706h20l-46 -168h-44zM50 538l70 168h20l-47 -168h-43z" />
    <glyph glyph-name="quotedblright" unicode="&#x201d;" horiz-adv-x="272" 
d="M50 538l46 168h44l-70 -168h-20zM199 706h43l-69 -168h-21z" />
    <glyph glyph-name="quotedblbase" unicode="&#x201e;" horiz-adv-x="252" 
d="M50 -158l46 168h44l-70 -168h-20zM199 10h43l-69 -168h-21z" />
    <glyph glyph-name="dagger" unicode="&#x2020;" horiz-adv-x="439" 
d="M399 509v-35h-162v-474h-35v474h-162v35h162v191h35v-191h162z" />
    <glyph glyph-name="daggerdbl" unicode="&#x2021;" horiz-adv-x="439" 
d="M399 474h-163v-248h163v-35h-163v-191h-34v191h-162v35h162v248h-162v35h162v191h34v-191h163v-35z" />
    <glyph glyph-name="ellipsis" unicode="&#x2026;" horiz-adv-x="415" 
d="M67 56q12 0 20 -8.5t8 -19.5t-8 -19.5t-20 -8.5q-11 0 -19 8.5t-8 19.5t8 19.5t19 8.5zM197 56q12 0 20 -8.5t8 -19.5t-8 -19.5t-20 -8.5q-11 0 -19 8.5t-8 19.5t8 19.5t19 8.5zM327 56q12 0 20 -8.5t8 -19.5t-8 -19.5t-20 -8.5q-11 0 -19 8.5t-8 19.5t8 19.5t19 8.5z
" />
    <glyph glyph-name="perthousand" unicode="&#x2030;" horiz-adv-x="1067" 
d="M306 563q0 -61 -41 -102t-102 -41t-102 41t-41 102t41 102t102 41t102 -41t41 -102zM52 563q0 -47 32 -79t79 -32t79.5 32t32.5 79t-32.5 79t-79.5 32t-79 -32t-32 -79zM528 279q61 0 102.5 -41t41.5 -102t-41.5 -102t-102.5 -41q-60 0 -101.5 41t-41.5 102t41.5 102
t101.5 41zM528 25q48 0 80 32t32 79t-32 79.5t-80 32.5q-47 0 -79 -32.5t-32 -79.5t32 -79t79 -32zM545 700h41l-437 -700h-41zM863 279q61 0 102.5 -41t41.5 -102t-41.5 -102t-102.5 -41q-60 0 -101.5 41t-41.5 102t41.5 102t101.5 41zM863 25q48 0 80 32t32 79t-32 79.5
t-80 32.5q-47 0 -79 -32.5t-32 -79.5t32 -79t79 -32z" />
    <glyph glyph-name="guilsinglleft" unicode="&#x2039;" horiz-adv-x="294" 
d="M224 425l-112 -157l112 -157h-43l-111 157l111 157h43z" />
    <glyph glyph-name="guilsinglright" unicode="&#x203a;" horiz-adv-x="294" 
d="M112 425l112 -157l-112 -157h-42l111 157l-111 157h42z" />
    <glyph glyph-name="Euro" unicode="&#x20ac;" horiz-adv-x="814" 
d="M467 28q82 0 148.5 38.5t107.5 105.5l31 -15q-44 -76 -119.5 -120t-167.5 -44q-125 0 -216 78t-116 199h-85l20 35h60q-3 21 -3 44t3 44h-80l20 35h65q25 121 116 199t216 78q92 0 167.5 -44t119.5 -120l-31 -15q-41 67 -107.5 105.5t-148.5 38.5q-110 0 -189.5 -67.5
t-104.5 -174.5h429l-19 -35h-415q-3 -21 -3 -44t3 -44h367l-20 -34h-342q25 -107 104.5 -175t189.5 -68z" />
    <glyph glyph-name="ruble" unicode="&#x20bd;" horiz-adv-x="672" 
d="M379 272h-217v-85h280v-35h-280v-152h-35v152h-87v35h87v85h-87v35h87v393h252q97 0 162.5 -59.5t65.5 -154.5t-64.5 -154.5t-163.5 -59.5zM162 665v-358h217q82 0 136 48.5t54 130.5t-53.5 130.5t-136.5 48.5h-217z" />
    <glyph glyph-name="uni2116" unicode="&#x2116;" horiz-adv-x="1073" 
d="M870 403q-61 0 -102 41.5t-41 101.5q0 61 41 102.5t102 41.5q60 0 101.5 -41.5t41.5 -102.5q0 -60 -41.5 -101.5t-101.5 -41.5zM870 658q-47 0 -79.5 -32t-32.5 -80q0 -47 32.5 -79t79.5 -32t79 32t32 79q0 48 -32 80t-79 32zM598 60v640h35v-700h-32l-466 638v-638h-35
v700h32zM730 312v34h283v-34h-283z" />
    <glyph glyph-name="minus" unicode="&#x2212;" horiz-adv-x="508" 
d="M60 324h388v-35h-388v35z" />
    <glyph glyph-name="approxequal" unicode="&#x2248;" horiz-adv-x="533" 
d="M178 388q-33 -1 -51 -13.5t-34 -37.5l-33 12q20 34 45.5 53.5t71.5 20.5q41 1 99 -33q50 -29 79 -30q60 -2 85 50l33 -11q-37 -74 -115 -74q-41 0 -99 35q-52 29 -81 28zM355 222q60 -2 85 50l33 -11q-37 -74 -115 -74q-41 0 -99 35q-52 29 -81 28q-33 -1 -51 -13.5
t-34 -37.5l-33 11q19 34 45 54t72 21q41 1 99 -33q50 -29 79 -30z" />
    <glyph glyph-name="notequal" unicode="&#x2260;" horiz-adv-x="538" 
d="M458 366h-139l-71 -128h210v-35h-229l-69 -127h-40l70 127h-120v35h139l70 128h-209v35h228l70 127h39l-69 -127h120v-35z" />
    <glyph glyph-name="lessequal" unicode="&#x2264;" horiz-adv-x="483" 
d="M70 59v35h343v-35h-343zM413 530v-38l-304 -148l304 -147v-38l-343 166v39z" />
    <glyph glyph-name="greaterequal" unicode="&#x2265;" horiz-adv-x="482" 
d="M70 59v35h342v-35h-342zM70 530l342 -166v-39l-342 -166v38l303 147l-303 148v38z" />
    <glyph glyph-name="commaaccent" unicode="&#xf6c3;" horiz-adv-x="224" 
d="M109 -77h40l-54 -132h-20z" />
    </font>
</defs>
</svg>
